<?xml version="1.0" encoding="UTF-8"?>
<!DOCTYPE svg PUBLIC "-//W3C//DTD SVG 1.1//EN" "http://www.w3.org/Graphics/SVG/1.1/DTD/svg11.dtd">
<svg version="1.1" xmlns="http://www.w3.org/2000/svg" xmlns:xlink="http://www.w3.org/1999/xlink" x="0" y="0" width="512" height="512" viewBox="0, 0, 512, 512">
  <g id="_x30_6_Document">
    <path d="M417.601,63.825 L417.601,300.403 C417.601,446.558 431.645,495.328 359.296,495.328 L93.642,495.328 C67.621,495.328 46.489,474.196 46.489,448.175 L46.489,109.705 L139.521,16.672 L370.397,16.672 C396.468,16.672 417.601,37.805 417.601,63.825 z" fill="#FFFFFF"/>
    <path d="M139.528,16.671 L139.528,62.543 C139.528,88.593 118.411,109.71 92.361,109.71 L46.489,109.71 z" fill="#D7E9FF"/>
    <g>
      <path d="M370.406,11.58 L139.532,11.58 C138.482,11.58 136.874,12.12 135.926,13.072 L42.891,106.109 C41.956,107.044 41.409,108.626 41.409,109.704 L41.409,448.174 C41.409,476.984 64.846,500.42 93.653,500.42 L359.307,500.42 C410.932,500.42 422.703,486.741 422.703,448.215 L422.703,63.823 C422.704,35.016 399.242,11.58 370.406,11.58 z M134.435,28.969 L134.435,62.543 C134.435,85.743 115.558,104.617 92.361,104.617 L58.789,104.617 z M93.653,490.236 C70.46,490.236 51.594,471.367 51.594,448.174 L51.594,114.801 L92.361,114.801 C121.178,114.801 144.62,91.357 144.62,62.542 L144.62,21.764 L370.408,21.764 C393.63,21.764 412.522,40.631 412.522,63.823 C412.522,129.652 412.518,448.213 412.518,448.215 C412.518,475.97 405.96,490.883 359.978,490.883" fill="#116FFF"/>
      <path d="M204.774,68.281 L359.302,68.281 C362.117,68.281 364.394,66.001 364.394,63.189 C364.394,60.377 362.116,58.097 359.302,58.097 L204.774,58.097 C201.959,58.097 199.682,60.377 199.682,63.189 C199.682,66.001 201.96,68.281 204.774,68.281 z" fill="#116FFF"/>
      <path d="M204.774,114.801 L338.073,114.801 C340.888,114.801 343.165,112.521 343.165,109.709 C343.165,106.897 340.888,104.617 338.073,104.617 L204.774,104.617 C201.959,104.617 199.682,106.897 199.682,109.709 C199.682,112.521 201.96,114.801 204.774,114.801 z" fill="#116FFF"/>
      <path d="M102.216,161.321 L359.302,161.321 C362.117,161.321 364.394,159.041 364.394,156.229 C364.394,153.417 362.116,151.137 359.302,151.137 L102.216,151.137 C99.401,151.137 97.124,153.417 97.124,156.229 C97.124,159.041 99.402,161.321 102.216,161.321 z" fill="#116FFF"/>
      <path d="M102.215,207.841 L329.426,207.841 C332.241,207.841 334.518,205.561 334.518,202.749 C334.518,199.937 332.241,197.657 329.426,197.657 L102.215,197.657 C99.401,197.657 97.124,199.937 97.124,202.749 C97.124,205.561 99.402,207.841 102.215,207.841 z" fill="#116FFF"/>
      <path d="M102.216,254.361 L341.753,254.361 C344.568,254.361 346.845,252.081 346.845,249.269 C346.845,246.457 344.566,244.177 341.753,244.177 L102.216,244.177 C99.401,244.177 97.124,246.457 97.124,249.269 C97.124,252.081 99.402,254.361 102.216,254.361 z" fill="#116FFF"/>
      <path d="M102.216,444.361 L341.753,444.361 C344.568,444.361 346.845,442.081 346.845,439.269 C346.845,436.457 344.566,434.177 341.753,434.177 L102.216,434.177 C99.401,434.177 97.124,436.457 97.124,439.269 C97.124,442.081 99.402,444.361 102.216,444.361 z" fill="#116FFF"/>
      <path d="M102.216,300.882 L282.04,300.882 C284.855,300.882 287.133,298.602 287.133,295.79 C287.133,292.978 284.854,290.698 282.04,290.698 L102.216,290.698 C99.401,290.698 97.124,292.978 97.124,295.79 C97.124,298.602 99.402,300.882 102.216,300.882 z" fill="#116FFF"/>
      <path d="M102.216,347.399 L194.878,347.399 C197.693,347.399 199.969,345.119 199.969,342.307 C199.969,339.495 197.691,337.215 194.878,337.215 L102.216,337.215 C99.401,337.215 97.124,339.495 97.124,342.307 C97.124,345.119 99.402,347.399 102.216,347.399 z" fill="#116FFF"/>
      <path d="M225.286,383.735 L102.216,383.735 C99.401,383.735 97.124,386.015 97.124,388.827 C97.124,391.639 99.402,393.919 102.216,393.919 L225.286,393.919 C228.102,393.919 230.379,391.639 230.379,388.827 C230.379,386.015 228.101,383.735 225.286,383.735 z" fill="#116FFF"/>
    </g>
  </g>
</svg>
