<?xml version="1.0" encoding="UTF-8"?>
<!DOCTYPE svg PUBLIC "-//W3C//DTD SVG 1.1//EN" "http://www.w3.org/Graphics/SVG/1.1/DTD/svg11.dtd">
<svg version="1.1" xmlns="http://www.w3.org/2000/svg" xmlns:xlink="http://www.w3.org/1999/xlink" x="0" y="0" width="512" height="512" viewBox="0, 0, 512, 512">
  <g id="_x32_3_Evaluate">
    <path d="M426.735,78.87 L426.735,433.08 C426.735,433.709 426.735,434.283 426.683,434.912 L408.787,427.115 L138.878,427.115 C126.005,427.115 115.592,437.528 115.592,450.348 L115.592,478.71 C115.592,491.531 126.005,501.944 138.878,501.944 L98.376,501.944 C60.386,501.944 29.564,471.123 29.564,433.08 L29.564,78.87 C29.564,40.88 60.385,10.058 98.376,10.058 L357.871,10.058 C395.862,10.059 426.735,40.88 426.735,78.87 z" fill="#FFFFFF"/>
    <path d="M167.819,86.372 L167.819,132.295 C167.819,141.639 160.212,149.247 150.868,149.247 L104.945,149.247 C95.601,149.247 87.994,141.64 87.994,132.295 L87.994,86.372 C87.994,77.028 95.601,69.422 104.945,69.422 L150.868,69.422 C160.212,69.422 167.819,77.028 167.819,86.372 z" fill="#94C1FF"/>
    <path d="M167.819,215.306 L167.819,261.229 C167.819,270.573 160.212,278.181 150.868,278.181 L104.945,278.181 C95.601,278.181 87.994,270.574 87.994,261.229 L87.994,215.306 C87.994,205.962 95.601,198.356 104.945,198.356 L150.868,198.356 C160.212,198.356 167.819,205.962 167.819,215.306 z" fill="#D7E9FF"/>
    <path d="M167.819,344.24 L167.819,390.163 C167.819,399.507 160.212,407.115 150.868,407.115 L104.945,407.115 C95.601,407.115 87.994,399.508 87.994,390.163 L87.994,344.24 C87.994,334.896 95.601,327.29 104.945,327.29 L150.868,327.29 C160.212,327.29 167.819,334.896 167.819,344.24 z" fill="#94C1FF"/>
    <path d="M115.609,478.698 L115.609,450.365 C115.609,437.528 126.019,427.118 138.855,427.118 L408.807,427.118 L477.449,456.938 C484.102,459.835 484.102,469.227 477.449,472.123 L408.807,501.943 L138.856,501.943 C126.019,501.944 115.609,491.534 115.609,478.698 z" fill="#DB80FF"/>
    <path d="M138.856,501.944 L169.675,501.944 L169.675,427.119 L138.856,427.119 C126.02,427.119 115.61,437.528 115.61,450.366 L115.61,478.699 C115.609,491.534 126.019,501.944 138.856,501.944 z" fill="#D7E9FF"/>
    <path d="M408.807,427.119 L477.449,456.939 C484.102,459.836 484.102,469.228 477.449,472.124 L408.807,501.944 z" fill="#D7E9FF"/>
    <g>
      <path d="M357.87,4.825 L98.375,4.825 C57.545,4.825 24.329,38.041 24.329,78.871 L24.329,433.08 C24.329,473.936 57.545,507.175 98.375,507.175 L138.858,507.175 L138.878,507.175 L408.808,507.175 C409.523,507.175 410.234,507.027 410.893,506.741 L479.538,476.923 C490.39,472.193 490.376,456.856 479.533,452.141 L431.967,431.477 L431.967,78.871 C431.968,38.041 398.726,4.825 357.87,4.825 z M164.44,496.71 L138.879,496.71 C129.552,496.71 120.845,488.994 120.845,478.699 L120.845,450.366 C120.845,440.434 128.924,432.353 138.858,432.353 L164.44,432.353 z M403.575,496.71 L174.905,496.71 L174.905,432.352 L403.575,432.352 z M408.788,421.882 L138.878,421.882 C123.154,421.882 110.358,434.652 110.358,450.348 L110.358,478.709 C110.358,484.87 112.615,491.602 116.802,496.71 L98.375,496.71 C63.314,496.71 34.794,468.167 34.794,433.081 L34.794,78.871 C34.794,43.813 63.314,15.29 98.375,15.29 L357.87,15.29 C392.956,15.29 421.502,43.812 421.502,78.871 L421.502,426.93 L410.893,422.321 C410.315,422.069 409.258,421.882 408.788,421.882 z M475.358,461.738 C477.818,462.806 477.833,466.247 475.363,467.326 L414.041,493.963 L414.041,435.11 C431.575,442.725 457.829,454.126 475.358,461.738 z" fill="#CE55FF"/>
      <path d="M150.867,64.189 L104.947,64.189 C92.713,64.189 82.764,74.141 82.764,86.372 L82.764,132.295 C82.764,144.526 92.714,154.478 104.947,154.478 L150.867,154.478 C163.101,154.478 173.05,144.526 173.05,132.295 L173.05,86.373 C173.05,74.142 163.101,64.189 150.867,64.189 z M162.585,132.295 C162.585,138.757 157.327,144.013 150.867,144.013 L104.947,144.013 C98.488,144.013 93.229,138.757 93.229,132.295 L93.229,86.373 C93.229,79.911 98.487,74.655 104.947,74.655 L150.867,74.655 C157.326,74.655 162.585,79.911 162.585,86.373 z" fill="#116FFF"/>
      <path d="M150.867,193.122 L104.947,193.122 C92.713,193.122 82.764,203.074 82.764,215.305 L82.764,261.23 C82.764,273.461 92.714,283.413 104.947,283.413 L150.867,283.413 C163.101,283.413 173.05,273.461 173.05,261.23 L173.05,215.305 C173.05,203.074 163.101,193.122 150.867,193.122 z M162.585,261.23 C162.585,267.692 157.327,272.948 150.867,272.948 L104.947,272.948 C98.488,272.948 93.229,267.692 93.229,261.23 L93.229,215.305 C93.229,208.843 98.487,203.587 104.947,203.587 L150.867,203.587 C157.326,203.587 162.585,208.843 162.585,215.305 z" fill="#116FFF"/>
      <path d="M150.867,322.057 L104.947,322.057 C92.713,322.057 82.764,332.009 82.764,344.24 L82.764,390.163 C82.764,402.397 92.714,412.349 104.947,412.349 L150.867,412.349 C163.101,412.349 173.05,402.397 173.05,390.163 L173.05,344.24 C173.05,332.009 163.101,322.057 150.867,322.057 z M162.585,390.163 C162.585,396.625 157.327,401.883 150.867,401.883 L104.947,401.883 C98.488,401.883 93.229,396.625 93.229,390.163 L93.229,344.24 C93.229,337.778 98.487,332.522 104.947,332.522 L150.867,332.522 C157.326,332.522 162.585,337.778 162.585,344.24 z" fill="#116FFF"/>
      <path d="M368.285,81.316 L206.072,81.316 C203.18,81.316 200.839,83.659 200.839,86.549 C200.839,89.439 203.179,91.782 206.072,91.782 L368.284,91.782 C371.176,91.782 373.517,89.439 373.517,86.549 C373.517,83.659 371.177,81.316 368.285,81.316 z" fill="#116FFF"/>
      <path d="M206.072,137.354 L332.753,137.354 C335.645,137.354 337.986,135.011 337.986,132.121 C337.986,129.231 335.646,126.888 332.753,126.888 L206.072,126.888 C203.18,126.888 200.839,129.231 200.839,132.121 C200.839,135.011 203.18,137.354 206.072,137.354 z" fill="#116FFF"/>
      <path d="M368.285,210.249 L206.072,210.249 C203.18,210.249 200.839,212.592 200.839,215.482 C200.839,218.372 203.179,220.715 206.072,220.715 L368.284,220.715 C371.176,220.715 373.517,218.372 373.517,215.482 C373.517,212.592 371.177,210.249 368.285,210.249 z" fill="#116FFF"/>
      <path d="M206.072,266.287 L332.753,266.287 C335.645,266.287 337.986,263.944 337.986,261.054 C337.986,258.164 335.646,255.821 332.753,255.821 L206.072,255.821 C203.18,255.821 200.839,258.164 200.839,261.054 C200.839,263.944 203.18,266.287 206.072,266.287 z" fill="#116FFF"/>
      <path d="M368.285,339.183 L206.072,339.183 C203.18,339.183 200.839,341.526 200.839,344.416 C200.839,347.306 203.179,349.649 206.072,349.649 L368.284,349.649 C371.176,349.649 373.517,347.306 373.517,344.416 C373.517,341.526 371.177,339.183 368.285,339.183 z" fill="#116FFF"/>
      <path d="M332.753,384.756 L206.072,384.756 C203.18,384.756 200.839,387.099 200.839,389.989 C200.839,392.879 203.179,395.222 206.072,395.222 L332.753,395.222 C335.645,395.222 337.986,392.879 337.986,389.989 C337.986,387.099 335.646,384.756 332.753,384.756 z" fill="#116FFF"/>
    </g>
  </g>
</svg>
