<?xml version="1.0" encoding="UTF-8"?>
<!DOCTYPE svg PUBLIC "-//W3C//DTD SVG 1.1//EN" "http://www.w3.org/Graphics/SVG/1.1/DTD/svg11.dtd">
<svg version="1.1" xmlns="http://www.w3.org/2000/svg" xmlns:xlink="http://www.w3.org/1999/xlink" x="0" y="0" width="512" height="512" viewBox="0, 0, 512, 512">
  <g id="Layer_x0020_1">
    <path d="M157.392,219.865 C137.473,219.865 121.265,236.072 121.265,256 C121.266,275.919 137.473,292.126 157.391,292.126 L216.398,292.126 C218.317,292.126 219.874,293.683 219.874,295.603 L219.874,354.608 C219.874,374.527 236.081,390.734 256,390.734 C275.928,390.734 292.135,374.527 292.135,354.608 L292.135,295.603 C292.135,293.683 293.692,292.126 295.612,292.126 L354.609,292.126 C374.537,292.126 390.743,275.919 390.743,256 C390.743,236.072 374.537,219.865 354.608,219.865 L295.613,219.865 C293.693,219.865 292.135,218.308 292.135,216.388 L292.135,157.391 C292.135,137.463 275.928,121.256 256,121.256 C236.081,121.256 219.874,137.464 219.874,157.391 L219.875,216.388 C219.875,218.308 218.317,219.865 216.397,219.865 L157.392,219.865 z M256,397.688 C232.242,397.688 212.92,378.366 212.92,354.608 L212.92,299.079 L157.392,299.079 C133.634,299.079 114.312,279.758 114.312,256 C114.313,232.242 133.633,212.911 157.391,212.911 L212.92,212.911 L212.92,157.391 C212.92,133.634 232.242,114.303 256,114.303 C279.758,114.303 299.089,133.634 299.089,157.391 L299.089,212.911 L354.609,212.911 C378.366,212.911 397.697,232.242 397.697,256 C397.697,279.758 378.366,299.079 354.608,299.079 L299.089,299.079 L299.089,354.608 C299.089,378.366 279.757,397.688 256,397.688 z" fill="#0022EE" id="_234702128"/>
    <path d="M103.294,61.273 C92.13,61.273 81.6,65.655 73.632,73.623 C65.665,81.59 61.273,92.13 61.273,103.284 L61.273,408.707 C61.273,419.87 65.664,430.4 73.632,438.368 C81.6,446.336 92.129,450.727 103.293,450.727 L408.716,450.727 C419.87,450.727 430.409,446.336 438.376,438.368 C446.344,430.4 450.726,419.87 450.726,408.707 L450.726,103.284 C450.726,92.129 446.344,81.59 438.376,73.623 C430.409,65.655 419.87,61.273 408.715,61.273 L103.293,61.273 z M408.716,457.681 L103.294,457.681 C90.274,457.681 77.996,452.565 68.716,443.284 C59.436,434.004 54.319,421.727 54.319,408.707 L54.32,103.284 C54.32,90.273 59.435,77.987 68.715,68.706 C77.996,59.425 90.273,54.319 103.293,54.319 L408.716,54.319 C421.726,54.319 434.012,59.426 443.293,68.706 C452.574,77.987 457.679,90.273 457.679,103.284 L457.68,408.707 C457.68,421.726 452.573,434.004 443.293,443.284 C434.013,452.565 421.726,457.681 408.716,457.681 z M103.294,36.953 C85.639,36.953 68.996,43.87 56.438,56.429 C43.871,68.996 36.954,85.637 36.954,103.284 L36.954,408.706 C36.954,426.362 43.871,443.004 56.438,455.562 C68.997,468.129 85.638,475.046 103.293,475.046 L408.716,475.046 C426.362,475.046 443.003,468.129 455.57,455.562 C468.129,443.003 475.046,426.362 475.046,408.706 L475.046,103.284 C475.046,85.637 468.128,68.996 455.57,56.429 C443.004,43.87 426.362,36.953 408.715,36.953 L103.293,36.953 z M408.716,482 L103.294,482 C83.782,482 65.393,474.359 51.513,460.479 C37.642,446.608 30,428.219 30,408.707 L30,103.285 C30,83.773 37.642,65.393 51.513,51.513 C65.393,37.642 83.782,30 103.293,30 L408.716,30 C428.227,30 446.607,37.643 460.487,51.513 C474.358,65.393 481.999,83.773 481.999,103.285 L481.999,408.707 C481.999,428.219 474.357,446.608 460.487,460.479 C446.607,474.359 428.227,482 408.716,482 z" fill="#2B49FF" id="_234702176"/>
    <path d="M103.294,61.273 C92.13,61.273 81.6,65.655 73.632,73.623 C65.665,81.59 61.273,92.13 61.273,103.284 L61.273,408.707 C61.273,419.87 65.664,430.4 73.632,438.368 C81.6,446.336 92.129,450.727 103.293,450.727 L408.716,450.727 C419.87,450.727 430.409,446.336 438.376,438.368 C446.344,430.4 450.726,419.87 450.726,408.707 L450.726,103.284 C450.726,92.129 446.344,81.59 438.376,73.623 C430.409,65.655 419.87,61.273 408.715,61.273 L103.293,61.273 z M114.312,256 C114.313,232.242 133.634,212.911 157.392,212.911 L212.921,212.911 L212.921,157.392 C212.921,133.634 232.242,114.303 256,114.303 C279.758,114.303 299.089,133.634 299.089,157.392 L299.089,212.911 L354.609,212.911 C378.367,212.911 397.697,232.242 397.697,256 C397.697,279.758 378.366,299.079 354.608,299.079 L299.089,299.079 L299.089,354.608 C299.089,378.366 279.758,397.688 256,397.688 C232.242,397.688 212.92,378.366 212.92,354.608 L212.92,299.079 L157.392,299.079 C133.634,299.079 114.312,279.758 114.312,256 z" fill="#F8FAFB" id="_234702560"/>
    <g>
      <path d="M219.874,157.392 L219.875,216.388 C219.875,218.308 218.317,219.865 216.397,219.865 L157.392,219.865 C137.473,219.865 121.266,236.072 121.266,256 C121.266,275.919 137.473,292.126 157.392,292.126 L216.398,292.126 C218.317,292.126 219.874,293.683 219.874,295.603 L219.874,354.608 C219.874,374.527 236.081,390.734 256,390.734 C275.928,390.734 292.135,374.527 292.135,354.608 L292.135,295.603 C292.135,293.683 293.692,292.126 295.612,292.126 L354.609,292.126 C374.537,292.126 390.744,275.919 390.744,256 C390.744,236.072 374.537,219.865 354.609,219.865 L295.613,219.865 C293.693,219.865 292.135,218.308 292.135,216.388 L292.135,157.392 C292.135,137.463 275.928,121.257 256,121.257 C236.081,121.257 219.874,137.464 219.874,157.392 z" fill="#9BC9FF" id="_234702344"/>
      <path d="M103.293,54.32 L408.715,54.319 C421.726,54.319 434.012,59.426 443.292,68.706 C452.574,77.987 457.679,90.273 457.679,103.284 L457.68,408.707 C457.68,421.727 452.573,434.004 443.293,443.284 C434.012,452.565 421.726,457.681 408.716,457.681 L103.293,457.681 C90.274,457.681 77.995,452.565 68.715,443.284 C59.435,434.004 54.319,421.727 54.319,408.707 L54.319,103.284 C54.319,90.273 59.434,77.987 68.715,68.706 C77.995,59.425 90.273,54.32 103.292,54.32 z M36.954,103.284 L36.954,408.707 C36.954,426.362 43.871,443.004 56.438,455.562 C68.997,468.129 85.638,475.046 103.293,475.046 L408.716,475.046 C426.362,475.046 443.003,468.129 455.57,455.562 C468.129,443.004 475.046,426.362 475.046,408.707 L475.046,103.284 C475.046,85.637 468.128,68.996 455.57,56.429 C443.003,43.871 426.362,36.953 408.715,36.953 L103.293,36.953 C85.637,36.953 68.995,43.871 56.437,56.429 C43.87,68.996 36.953,85.637 36.953,103.284 z" fill="#9BC9FF" id="_234702224"/>
    </g>
  </g>
</svg>
