<?xml version="1.0" encoding="UTF-8"?>
<!DOCTYPE svg PUBLIC "-//W3C//DTD SVG 1.1//EN" "http://www.w3.org/Graphics/SVG/1.1/DTD/svg11.dtd">
<svg version="1.1" xmlns="http://www.w3.org/2000/svg" xmlns:xlink="http://www.w3.org/1999/xlink" x="0" y="0" width="512" height="512" viewBox="0, 0, 512, 512">
  <g id="_x31_9_Growth">
    <path d="M313.337,185.201 L303.305,185.201 C297.255,185.201 292.333,190.123 292.333,196.173 L292.333,410.347 C292.333,416.396 287.411,421.318 281.361,421.318 L230.636,421.318 C224.587,421.318 219.665,416.396 219.665,410.347 L219.665,196.173 C219.665,190.123 214.743,185.201 208.693,185.201 L198.66,185.201 C189.643,185.201 184.457,174.98 189.793,167.729 L247.169,89.687 C251.527,83.713 260.47,83.713 264.829,89.687 L322.205,167.729 C327.54,174.98 322.355,185.201 313.337,185.201 z" fill="#94C1FF"/>
    <path d="M498.542,481.089 C498.542,486.838 496.212,492.06 492.454,495.856 C488.659,499.613 483.474,501.943 477.725,501.943 L34.31,501.943 C22.774,501.943 13.456,492.624 13.456,481.089 C13.456,475.34 15.786,470.155 19.543,466.36 C23.338,462.603 28.523,460.273 34.309,460.273 L477.725,460.273 C489.223,460.272 498.542,469.591 498.542,481.089 z" fill="#FFFFFF"/>
    <g>
      <path d="M230.636,426.551 L281.36,426.551 C290.298,426.551 297.564,419.282 297.564,410.347 L297.564,196.173 C297.564,193.01 300.14,190.434 303.308,190.434 L313.339,190.434 C326.64,190.434 334.285,175.324 326.421,164.628 L269.054,86.603 C262.596,77.744 249.376,77.776 242.951,86.588 L185.579,164.626 C177.702,175.326 185.358,190.435 198.661,190.435 L208.692,190.435 C211.855,190.435 214.431,193.011 214.431,196.174 L214.431,410.347 C214.431,419.281 221.698,426.551 230.636,426.551 z M208.693,179.969 L198.662,179.969 C193.926,179.969 191.207,174.631 194.012,170.827 L251.394,92.772 C253.655,89.679 258.313,89.639 260.613,92.787 L317.99,170.827 C320.785,174.631 318.077,179.969 313.34,179.969 L303.309,179.969 C294.371,179.969 287.1,187.238 287.1,196.173 L287.1,410.346 C287.1,413.509 284.524,416.085 281.361,416.085 L230.637,416.085 C227.474,416.085 224.898,413.509 224.898,410.346 L224.898,196.173 C224.897,187.238 217.625,179.969 208.693,179.969 z" fill="#116FFF"/>
      <path d="M8.225,481.089 C8.225,495.474 19.927,507.176 34.307,507.176 L477.722,507.176 C492.111,507.176 503.774,495.548 503.774,481.089 C503.774,466.724 492.087,455.04 477.722,455.04 L34.308,455.04 C19.899,455.04 8.225,466.657 8.225,481.089 z M34.308,465.505 L477.723,465.505 C486.318,465.505 493.309,472.496 493.309,481.088 C493.309,489.836 486.267,496.71 477.723,496.71 L34.308,496.71 C25.697,496.71 18.691,489.701 18.691,481.088 C18.691,472.435 25.678,465.505 34.308,465.505 z" fill="#116FFF"/>
    </g>
  </g>
</svg>
