<?xml version="1.0" encoding="UTF-8"?>
<!DOCTYPE svg PUBLIC "-//W3C//DTD SVG 1.1//EN" "http://www.w3.org/Graphics/SVG/1.1/DTD/svg11.dtd">
<svg version="1.1" xmlns="http://www.w3.org/2000/svg" xmlns:xlink="http://www.w3.org/1999/xlink" x="0" y="0" width="512" height="512" viewBox="0, 0, 512, 512">
  <g id="_x31_9_Growth">
    <path d="M313.337,341.944 L303.305,341.944 C297.255,341.944 292.333,337.022 292.333,330.972 L292.333,116.798 C292.333,110.749 287.411,105.827 281.361,105.827 L230.636,105.827 C224.587,105.827 219.665,110.749 219.665,116.798 L219.665,330.972 C219.665,337.022 214.743,341.944 208.693,341.944 L198.66,341.944 C189.643,341.944 184.457,352.165 189.793,359.416 L247.169,437.458 C251.527,443.432 260.47,443.432 264.829,437.458 L322.205,359.416 C327.54,352.165 322.355,341.944 313.337,341.944 z" fill="#94C1FF"/>
    <path d="M498.542,46.056 C498.542,40.307 496.212,35.085 492.454,31.289 C488.659,27.532 483.474,25.202 477.725,25.202 L34.31,25.202 C22.774,25.202 13.456,34.521 13.456,46.056 C13.456,51.805 15.786,56.99 19.543,60.785 C23.338,64.542 28.523,66.872 34.309,66.872 L477.725,66.872 C489.223,66.873 498.542,57.554 498.542,46.056 z" fill="#FFFFFF"/>
    <g>
      <path d="M230.636,100.594 L281.36,100.594 C290.298,100.594 297.564,107.863 297.564,116.798 L297.564,330.972 C297.564,334.135 300.14,336.711 303.308,336.711 L313.339,336.711 C326.64,336.711 334.285,351.821 326.421,362.517 L269.054,440.542 C262.596,449.401 249.376,449.369 242.951,440.557 L185.579,362.519 C177.702,351.819 185.358,336.71 198.661,336.71 L208.692,336.71 C211.855,336.71 214.431,334.134 214.431,330.971 L214.431,116.798 C214.431,107.864 221.698,100.594 230.636,100.594 z M208.693,347.176 L198.662,347.176 C193.926,347.176 191.207,352.514 194.012,356.318 L251.394,434.373 C253.655,437.466 258.313,437.506 260.613,434.358 L317.99,356.318 C320.785,352.514 318.077,347.176 313.34,347.176 L303.309,347.176 C294.371,347.176 287.1,339.907 287.1,330.972 L287.1,116.799 C287.1,113.636 284.524,111.06 281.361,111.06 L230.637,111.06 C227.474,111.06 224.898,113.636 224.898,116.799 L224.898,330.972 C224.897,339.907 217.625,347.176 208.693,347.176 z" fill="#116FFF"/>
      <path d="M8.225,46.056 C8.225,31.671 19.927,19.969 34.307,19.969 L477.722,19.969 C492.111,19.969 503.774,31.597 503.774,46.056 C503.774,60.421 492.087,72.105 477.722,72.105 L34.308,72.105 C19.899,72.105 8.225,60.488 8.225,46.056 z M34.308,61.64 L477.723,61.64 C486.318,61.64 493.309,54.649 493.309,46.057 C493.309,37.309 486.267,30.435 477.723,30.435 L34.308,30.435 C25.697,30.435 18.691,37.444 18.691,46.057 C18.691,54.71 25.678,61.64 34.308,61.64 z" fill="#116FFF"/>
    </g>
  </g>
</svg>
