<svg clip-rule="evenodd" fill-rule="evenodd" height="512" image-rendering="optimizeQuality" shape-rendering="geometricPrecision" text-rendering="geometricPrecision" viewBox="0 0 2048 2048" width="512" xmlns="http://www.w3.org/2000/svg"><g id="Layer_x0020_1"><g id="_234696152"><g fill="#1e81ce"><path id="_234696992" d="m204.506 325.166c-31.2567 0-56.693 25.4244-56.693 56.6788l.011811 1284.31c0 31.2544 25.4114 56.6788 56.667 56.6788h1639.03c31.2402 0 56.6611-25.4232 56.6611-56.6764l.00236221-1284.32c0-31.2532-25.4268-56.6776-56.68-56.6776h-1638.99zm1639.01 1425.48h-1639.01c-46.5768 0-84.5068-37.917-84.5068-84.4902l.00708662-1284.32c0-46.6099 37.9099-84.4902 84.4855-84.4902l1639.03-.00236221c46.5579 0 84.4749 37.8839 84.4749 84.4938l.00826772 1284.31c0 46.5733-37.9252 84.4926-84.4831 84.4926z"/><path id="_234697064" d="m1914.1 596.892h-1780.19c-7.67599 0-13.9075-6.22914-13.9075-13.9051.00708662-7.67953 6.22796-13.9075 13.9051-13.9075l1780.19-.0011811c7.67717 0 13.8957 6.23032 13.8957 13.9087.00826772 7.67599-6.22914 13.9051-13.8957 13.9051z"/><path id="_234697376" d="m303.542 418.204c-15.7429 0-28.5768 12.8209-28.5768 28.5756.00826772 15.789 12.8197 28.6099 28.5733 28.6099 15.7961 0 28.611-12.8209 28.611-28.6099.0106299-15.7559-12.8197-28.5744-28.6075-28.5756zm0 84.9969c-31.0607 0-56.3906-25.3134-56.3906-56.4213.00354331-31.1114 25.3146-56.3894 56.3871-56.3894 31.115 0 56.4248 25.2792 56.4248 56.3894 0 31.1079-25.3134 56.4225-56.4213 56.4213z"/><path id="_234697352" d="m471.255 418.204c-15.7429 0-28.5744 12.8209-28.5744 28.5756.00590552 15.789 12.8197 28.6099 28.5721 28.6099 15.7949 0 28.611-12.8209 28.611-28.6099.00826772-15.7559-12.8185-28.5744-28.6087-28.5756zm0 84.9969c-31.0618 0-56.3906-25.3134-56.3906-56.4213.00236221-31.1114 25.3158-56.3894 56.3882-56.3894 31.1138 0 56.4248 25.2792 56.4248 56.3894.0141732 31.1079-25.3134 56.4225-56.4225 56.4213z"/><path id="_234696680" d="m638.969 418.204c-15.7429 0-28.5744 12.8209-28.5744 28.5756.00590552 15.789 12.8209 28.6099 28.5744 28.6099 15.7914 0 28.6087-12.8209 28.6087-28.6099.00826772-15.7559-12.8197-28.5744-28.6087-28.5756zm0 84.9969c-31.0618 0-56.3882-25.3134-56.3882-56.4213 0-31.1114 25.3158-56.3894 56.3882-56.3894 31.1114 0 56.4248 25.2792 56.4248 56.3894.011811 31.1079-25.3134 56.4225-56.4248 56.4213z"/><path id="_234697160" d="m551.013 870.175c-2.54173 0-5.08229.18189-7.61812.544489-13.4693 2.02677-25.35 9.1252-33.463 20.0622-16.7232 22.5969-11.9858 54.5776 10.5756 71.3091l253.271 187.089c3.53504 2.60788 5.63504 6.77245 5.63504 11.191.00236221 4.38189-2.1 8.54764-5.6504 11.1555l-253.242 187.088c-22.5721 16.7327-27.3201 48.7122-10.5898 71.3103 8.113 10.937 19.9914 18.0721 33.463 20.0634 13.4528 1.99016 26.9079-1.37599 37.8449-9.4878l319.509-235.983c.276378-.217323.601182-.433465.929528-.650788 5.50748-3.40512 10.285-7.82245 14.1957-13.1102 8.11418-10.9724 11.4791-24.4807 9.45355-37.9902-1.94291-12.8575-8.51103-24.228-18.5445-32.3044-.608268-.325985-1.23189-.687402-1.81063-1.12205l-323.679-239.132s-.0531496.0011811-.0531496.0011811c-8.86182-6.5941-19.4091-10.0335-30.2268-10.0335zm.0330709 608.204c-3.87874 0-7.7941-.288189-11.7425-.86693-20.7874-3.11575-39.1855-14.1236-51.7158-31.0382-25.8496-34.8756-18.5421-84.3449 16.3701-110.204l238.122-175.899-238.083-175.899c-34.9406-25.8957-42.267-75.3284-16.4091-110.239 12.5303-16.9146 30.8906-27.9225 51.7158-31.0004 20.8689-3.11575 41.6126 2.1 58.4882 14.6303l321.86 237.718c.68504.362599 1.32756.761812 1.97953 1.23307 16.9914 12.5291 28.0689 30.9272 31.1835 51.7878 3.16299 20.8961-2.02914 41.7213-14.5595 58.7067-5.89016 7.96654-13.1091 14.6658-21.4394 19.9181l-319.014 235.654c-13.6902 10.1398-29.9622 15.5008-46.7563 15.4996z"/><path id="_234696896" d="m1073.85 1109.16c-28.2414 0-51.2162 22.963-51.2162 51.2103.0129921 28.2118 22.9595 51.1737 51.2091 51.1737l423.077-.0011811c28.2107 0 51.1654-22.9595 51.1654-51.1725.00826772-28.2496-22.963-51.2091-51.1725-51.2091l-423.063-.0011811zm423.07 130.197h-423.07c-43.5615 0-79.03-35.4544-79.03-78.9863.00590552-43.5674 35.4567-79.0217 79.0229-79.0217h423.077c43.565 0 78.978 35.4555 78.978 79.0217.0165354 43.5319-35.4177 78.9875-78.978 78.9863z"/></g><path id="_234697040" d="m147.814 569.079 1752.37-.0011811v-187.234c0-31.2532-25.4268-56.6776-56.68-56.6776h-1638.99c-31.2567 0-56.693 25.4244-56.693 56.6788l.0011811 187.234zm547.58-122.3c.011811 31.1079-25.3134 56.4225-56.4248 56.4213-31.0618 0-56.3882-25.3134-56.3882-56.4213 0-31.1114 25.3158-56.3894 56.3882-56.3894 31.1114 0 56.4248 25.2792 56.4248 56.3894zm-224.14-56.3894c31.1138 0 56.4248 25.2792 56.4248 56.3894.0141732 31.1079-25.3134 56.4225-56.4225 56.4213-31.0618 0-56.3906-25.3134-56.3906-56.4213.00236221-31.1114 25.3158-56.3894 56.3882-56.3894zm-167.714 0c31.115 0 56.4248 25.2792 56.4248 56.3894 0 31.1079-25.3134 56.4225-56.4213 56.4213-31.0607 0-56.3906-25.3134-56.3906-56.4213.00354331-31.1114 25.3146-56.3894 56.3871-56.3894z" fill="#f8fafb"/><path id="_234696128" d="m904.972 1119.34-323.679-239.132-.0531496.0011811c-8.86182-6.5941-19.4091-10.0335-30.2268-10.0335-2.54173 0-5.08229.18189-7.61812.544489-13.4693 2.02677-25.35 9.1252-33.463 20.0622-16.7232 22.5969-11.9858 54.5776 10.5756 71.3091l253.271 187.089c3.53504 2.60788 5.63504 6.77245 5.63504 11.191.00236221 4.38189-2.1 8.54764-5.6504 11.1555l-253.242 187.088c-22.5721 16.7327-27.3201 48.7122-10.5898 71.3103 8.113 10.937 19.9914 18.0721 33.463 20.0634 13.4528 1.99016 26.9079-1.37599 37.8449-9.4878l319.509-235.983c.276378-.217323.601182-.433465.929528-.650788 5.50748-3.40512 10.285-7.82245 14.1957-13.1102 8.11418-10.9724 11.4791-24.4807 9.45355-37.9902-1.94291-12.8575-8.51103-24.228-18.5445-32.3044-.608268-.325985-1.23189-.687402-1.81063-1.12205z" fill="#f8fafb"/><path id="_234696560" d="m597.792 857.862 321.86 237.718c.68504.362599 1.32756.761812 1.97953 1.23307 16.9914 12.5291 28.0689 30.9272 31.1835 51.7878 3.16299 20.8961-2.02914 41.7213-14.5595 58.7067-5.89016 7.96654-13.1091 14.6658-21.4394 19.9181l-319.014 235.654c-13.6902 10.1398-29.9622 15.5008-46.7563 15.4996-3.87874 0-7.7941-.288189-11.7425-.86693-20.7874-3.11575-39.1855-14.1236-51.7158-31.0382-25.8496-34.8756-18.5421-84.3449 16.3701-110.204l238.122-175.899-238.083-175.899c-34.9406-25.8957-42.267-75.3284-16.4091-110.239 12.5303-16.9146 30.8906-27.9225 51.7158-31.0004 20.8689-3.11575 41.6126 2.1 58.4882 14.6303zm1302.39-260.971h-1752.37l.00944883 1069.27c0 31.2544 25.4114 56.6788 56.667 56.6788h1639.03c31.2402 0 56.6611-25.4232 56.6611-56.6764l.00236221-1069.27zm-905.356 563.48c.00590552-43.5674 35.4567-79.0217 79.0229-79.0217h423.077c43.565 0 78.978 35.4555 78.978 79.0217.0165354 43.5319-35.4177 78.9875-78.978 78.9863h-423.07c-43.5615 0-79.03-35.4544-79.03-78.9863z" fill="#9bc9ff"/><path id="_234696344" d="m1496.92 1109.16-423.063-.0011811c-28.2414 0-51.2162 22.963-51.2162 51.2103.0129921 28.2118 22.9595 51.1737 51.2091 51.1737l423.077-.0011811c28.2107 0 51.1654-22.9595 51.1654-51.1725.00826772-28.2496-22.963-51.2091-51.1725-51.2091z" fill="#f8fafb"/><path id="_234696104" d="m471.253 475.389c15.7949 0 28.611-12.8209 28.611-28.6099.00826772-15.7559-12.8185-28.5744-28.6087-28.5756-15.7429 0-28.5744 12.8209-28.5744 28.5756.00590552 15.789 12.8197 28.6099 28.5721 28.6099z" fill="#9bc9ff"/><path id="_234696224" d="m610.394 446.779c.00590552 15.789 12.8209 28.6099 28.5744 28.6099 15.7914 0 28.6087-12.8209 28.6087-28.6099.00826772-15.7559-12.8197-28.5744-28.6087-28.5756-15.7429 0-28.5744 12.8209-28.5744 28.5756z" fill="#9bc9ff"/><path id="_234696200" d="m332.15 446.779c.0106299-15.7559-12.8197-28.5744-28.6075-28.5756-15.7429 0-28.5768 12.8209-28.5768 28.5756.00826772 15.789 12.8197 28.6099 28.5733 28.6099 15.7961 0 28.611-12.8209 28.611-28.6099z" fill="#9bc9ff"/></g></g></svg>