<svg clip-rule="evenodd" fill-rule="evenodd" height="512" image-rendering="optimizeQuality" shape-rendering="geometricPrecision" text-rendering="geometricPrecision" viewBox="0 0 2048 2048" width="512" xmlns="http://www.w3.org/2000/svg"><g id="Layer_x0020_1"><g id="_233882112"><path id="_233882952" d="m1024 1133.12c3.55276 0 7.1315 1.37953 9.84804 4.09489l321.788 321.783c30.3862 30.3815 79.8142 30.3851 110.2.0011811 14.7425-14.7059 22.8166-34.2614 22.8166-55.0867.0011811-20.8276-8.07638-40.4174-22.8166-55.1209l-321.782-321.821c-5.42717-5.43071-5.43308-14.2311-.0011811-19.663l321.784-321.783c14.7413-14.7036 22.8154-34.2969 22.8154-55.1209.0011811-20.8252-8.07638-40.3819-22.8166-55.0855-14.6988-14.7413-34.2603-22.8154-55.0843-22.8154-20.8181-.0011811-40.4185 8.0752-55.1221 22.8154l-321.777 321.783c-5.43662 5.43071-14.237 5.43308-19.6701 0l-321.818-321.784c-30.3862-30.3862-79.8225-30.3839-110.209.0011811-14.7354 14.7036-22.8166 34.2614-22.8166 55.0855.00590552 20.8229 8.07638 40.4185 22.8166 55.1209l321.789 321.78c2.60788 2.60788 4.08662 6.15945 4.08662 9.85394.00472441 3.69331-1.48583 7.20709-4.09252 9.81497l-321.777 321.819c-14.7413 14.7036-22.8225 34.2969-22.8225 55.1209.00590552 20.7874 8.07638 40.3819 22.8166 55.0867 30.3921 30.3803 79.8225 30.3839 110.206 0l321.827-321.786c2.71299-2.71654 6.25749-4.09016 9.81024-4.0937zm386.753 376.468c-27.0862 0-54.1808-10.2803-74.7886-30.9248l-311.965-311.972-311.965 311.968c-41.2158 41.2536-108.33 41.2548-149.543.00354331-19.9902-19.9547-30.9662-46.5012-30.9662-74.7508 0-28.2874 10.9736-54.8315 30.9662-74.7863l311.971-311.971-311.964-311.968c-19.9973-19.9524-30.9733-46.5355-30.9733-74.7839 0-28.2532 10.9736-54.7961 30.9662-74.7508 41.2146-41.2512 108.323-41.2512 149.536 0l311.972 311.966 311.965-311.968c19.9559-19.9925 46.5378-30.9626 74.7875-30.9626 28.252-.00236221 54.7949 10.9736 74.7508 30.965 19.9949 19.9547 30.9638 46.5024 30.9638 74.7508.00708662 28.2461-10.9736 54.8315-30.9638 74.7863l-311.967 311.966 311.974 311.968c19.9878 19.9559 30.9567 46.5402 30.9567 74.7886.00708662 28.2473-10.9736 54.7961-30.9638 74.7508-20.602 20.6043-47.6977 30.9296-74.7497 30.9248z" fill="#1e81ce"/><path id="_233882208" d="m413.175 245.093c-44.6552 0-86.8146 17.5299-118.683 49.4008-31.8721 31.8662-49.402 74.0268-49.402 118.681l.0011811 1221.65c0 44.654 17.5288 86.8135 49.4008 118.683 31.8744 31.8307 74.0256 49.3996 118.678 49.3996h1221.66c44.6552 0 86.8075-17.5642 118.678-49.3996 31.878-31.8709 49.3985-74.0256 49.3985-118.681l.00708662-1221.65c0-44.6552-17.5347-86.8087-49.4055-118.678-31.8709-31.8733-74.0256-49.3996-118.681-49.3996l-1221.65-.0011811zm1221.65 1585.63h-1221.65c-52.0784 0-101.193-20.4236-138.351-57.5445-37.115-37.1233-57.5469-86.2678-57.5469-138.347l.00354331-1221.65c0-52.0784 20.4225-101.222 57.5434-138.344 37.1599-37.1256 86.269-57.5481 138.346-57.5481l1221.66-.00354331c52.0796 0 101.222 20.4295 138.344 57.5516 37.1221 37.1209 57.5481 86.2678 57.5481 138.346l.00354331 1221.65c0 52.0772-20.4307 101.228-57.5516 138.35-37.1197 37.1197-86.2666 57.5469-138.344 57.5445zm-1221.65-1682.9c-70.6253 0-137.191 27.6721-187.459 77.9044-50.2311 50.2666-77.9008 116.835-77.9008 187.456l.00590552 1221.65c0 70.6241 27.6614 137.19 77.8949 187.459 50.2678 50.23 116.832 77.9008 187.454 77.9008l1221.66-.00236221c70.6253 0 137.185-27.6673 187.454-77.8985 50.2359-50.2725 77.9008-116.835 77.9008-187.456v-1221.65c0-70.6217-27.6697-137.185-77.9008-187.454-50.2618-50.2347-116.835-77.9008-187.456-77.9008l-1221.65-.00354331zm1221.65 1780.18h-1221.65c-78.0485 0-151.605-30.5658-207.125-86.0493-55.4835-55.5225-86.0505-129.076-86.0505-207.122l.00236221-1221.65c0-78.0449 30.5646-151.599 86.0481-207.119 55.5272-55.4847 129.076-86.0505 207.121-86.0505h1221.66c78.0497 0 151.599 30.567 207.119 86.0505 55.4894 55.5166 86.0505 129.075 86.0505 207.122l.00472441 1221.65c0 78.0473-30.5729 151.604-86.0552 207.124-55.513 55.4835-129.076 86.0505-207.119 86.0493z" fill="#1e81ce"/><path id="_233882136" d="m692.365 575.314c-30.3862-30.3862-79.8225-30.3839-110.209.0011811-14.7354 14.7036-22.8166 34.2614-22.8166 55.0855.00590552 20.8229 8.07638 40.4185 22.8166 55.1209l321.789 321.78c2.60788 2.60788 4.08662 6.15945 4.08662 9.85394.00472441 3.69331-1.48583 7.20709-4.09252 9.81497l-321.777 321.819c-14.7413 14.7036-22.8225 34.2969-22.8225 55.1209.00590552 20.7874 8.07638 40.3819 22.8166 55.0867 30.3921 30.3803 79.8225 30.3839 110.206 0l321.827-321.786c2.71299-2.71654 6.25749-4.09016 9.81024-4.0937 3.55276 0 7.1315 1.37953 9.84804 4.09489l321.788 321.783c30.3862 30.3815 79.8142 30.3851 110.2.0011811 14.7425-14.7059 22.8166-34.2614 22.8166-55.0867.0011811-20.8276-8.07638-40.4174-22.8166-55.1209l-321.782-321.821c-5.42717-5.43071-5.43308-14.2311-.0011811-19.663l321.784-321.783c14.7413-14.7036 22.8154-34.2969 22.8154-55.1209.0011811-20.8252-8.07638-40.3819-22.8166-55.0855-14.6988-14.7413-34.2603-22.8154-55.0843-22.8154-20.8181-.0011811-40.4185 8.0752-55.1221 22.8154l-321.777 321.783c-5.43662 5.43071-14.237 5.43308-19.6701 0l-321.818-321.784z" fill="#9bc9ff"/><path id="_233881824" d="m712.028 555.65 311.972 311.966 311.965-311.968c19.9559-19.9925 46.5378-30.9626 74.7875-30.9626 28.252-.00236221 54.7949 10.9736 74.7508 30.965 19.9949 19.9547 30.9638 46.5024 30.9638 74.7508.00708662 28.2461-10.9736 54.8315-30.9638 74.7863l-311.967 311.966 311.974 311.968c19.9878 19.9559 30.9567 46.5402 30.9567 74.7886.00708662 28.2473-10.9736 54.7961-30.9638 74.7508-20.602 20.6043-47.6977 30.9296-74.7497 30.9248-27.0862 0-54.1808-10.2803-74.7886-30.9248l-311.965-311.972-311.965 311.968c-41.2158 41.2536-108.33 41.2548-149.543.00354331-19.9902-19.9547-30.9662-46.5012-30.9662-74.7508 0-28.2874 10.9736-54.8315 30.9662-74.7863l311.971-311.971-311.964-311.968c-19.9973-19.9524-30.9733-46.5355-30.9733-74.7839 0-28.2532 10.9736-54.7961 30.9662-74.7508 41.2146-41.2512 108.323-41.2512 149.536 0zm-298.853-310.557c-44.6552 0-86.8146 17.5299-118.683 49.4008-31.8721 31.8662-49.402 74.0268-49.402 118.681l.0011811 1221.65c0 44.654 17.5288 86.8135 49.4008 118.683 31.8744 31.8307 74.0256 49.3996 118.678 49.3996h1221.66c44.6552 0 86.8075-17.5642 118.678-49.3996 31.878-31.8709 49.3985-74.0256 49.3985-118.681l.00708662-1221.65c0-44.6552-17.5347-86.8087-49.4055-118.678-31.8709-31.8733-74.0256-49.3996-118.681-49.3996l-1221.65-.0011811z" fill="#f8fafb"/><path id="_233882520" d="m413.17 217.28 1221.66-.00354331c52.0796 0 101.222 20.4295 138.344 57.5516 37.1221 37.1209 57.5481 86.2678 57.5481 138.346l.00354331 1221.65c0 52.0772-20.4307 101.228-57.5516 138.35-37.1197 37.1197-86.2666 57.5469-138.344 57.5445h-1221.65c-52.0784 0-101.193-20.4236-138.351-57.5445-37.115-37.1233-57.5469-86.2678-57.5469-138.347l.00354331-1221.65c0-52.0784 20.4225-101.222 57.5434-138.344 37.1599-37.1256 86.269-57.5481 138.346-57.5481zm-265.355 195.894.00590552 1221.65c0 70.6241 27.6614 137.19 77.8949 187.459 50.2678 50.23 116.832 77.9008 187.454 77.9008l1221.66-.00236221c70.6253 0 137.185-27.6673 187.454-77.8985 50.2359-50.2725 77.9008-116.835 77.9008-187.456v-1221.65c0-70.6217-27.6697-137.185-77.9008-187.454-50.2618-50.2347-116.835-77.9008-187.456-77.9008l-1221.65-.00354331c-70.6253 0-137.191 27.6721-187.459 77.9044-50.2311 50.2666-77.9008 116.835-77.9008 187.456z" fill="#9bc9ff"/></g></g></svg>