<?xml version="1.0" encoding="UTF-8"?>
<!DOCTYPE svg PUBLIC "-//W3C//DTD SVG 1.1//EN" "http://www.w3.org/Graphics/SVG/1.1/DTD/svg11.dtd">
<svg version="1.1" xmlns="http://www.w3.org/2000/svg" xmlns:xlink="http://www.w3.org/1999/xlink" x="0" y="0" width="512" height="512" viewBox="0, 0, 512, 512">
  <g id="_x30_6_Folder">
    <path d="M505.651,116.783 L505.651,411.857 C505.651,432.945 492.425,451.59 473.514,458.336 C469.318,459.823 464.856,460.779 460.181,460.992 C432.719,462.32 410.037,440.435 410.037,413.238 L410.037,154.072 C410.037,138.19 397.129,125.335 381.3,125.335 L59.19,125.335 L59.19,81.087 C59.19,64.46 72.735,50.969 89.361,50.969 L220.404,50.969 C230.869,50.969 240.589,56.334 246.06,65.258 L250.469,72.323 C255.94,81.194 265.661,86.612 276.072,86.612 L475.48,86.612 C492.159,86.612 505.651,100.104 505.651,116.783 z" fill="#94C1FF"/>
    <g>
      <path d="M329.951,168.137 L486.241,168.137 L486.241,402.818 L329.951,402.818 L329.951,168.137 z" fill="#FFFFFF"/>
      <path d="M486.241,144.709 L486.241,169.137 C485.763,169.084 485.338,169.084 484.913,169.084 L73.681,169.084 C73.256,169.084 72.831,169.084 72.407,169.137 L72.407,144.709 C72.407,119.166 93.117,98.35 118.713,98.35 L439.882,98.35 C465.478,98.35 486.241,119.166 486.241,144.709 z" fill="#FFFFFF"/>
      <path d="M486.241,402.778 L486.241,378.35 C485.763,378.403 485.338,378.403 484.913,378.403 L73.681,378.403 C73.256,378.403 72.831,378.403 72.407,378.35 L72.407,402.778 C72.407,428.321 93.117,449.137 118.713,449.137 L439.882,449.137 C465.478,449.137 486.241,428.321 486.241,402.778 z" fill="#FFFFFF"/>
      <path d="M72.407,142.627 C72.407,115.212 94.837,98.351 120.539,98.351 C140.841,98.351 416.776,98.243 439.242,98.351 C461.707,98.458 486.024,114.451 486.241,144.341 C486.457,174.231 486.786,382.764 486.241,402.818 C485.695,422.873 470.274,449.907 441.526,449.138 C409.923,449.336 419.251,449.138 419.251,449.138" fill-opacity="0" stroke="#116FFF" stroke-width="4"/>
    </g>
    <g>
      <path d="M452.84,150.821 L330.951,150.821" fill-opacity="0" stroke="#116FFF" stroke-width="5" stroke-linecap="round"/>
      <path d="M452.84,180.821 L330.951,180.821" fill-opacity="0" stroke="#116FFF" stroke-width="5" stroke-linecap="round"/>
      <path d="M452.84,210.821 L330.951,210.821" fill-opacity="0" stroke="#116FFF" stroke-width="5" stroke-linecap="round"/>
      <path d="M452.84,240.821 L330.951,240.821" fill-opacity="0" stroke="#116FFF" stroke-width="5" stroke-linecap="round"/>
      <path d="M452.84,270.821 L330.951,270.821" fill-opacity="0" stroke="#116FFF" stroke-width="5" stroke-linecap="round"/>
      <path d="M452.84,300.821 L330.951,300.821" fill-opacity="0" stroke="#116FFF" stroke-width="5" stroke-linecap="round"/>
      <path d="M452.84,330.821 L330.951,330.821" fill-opacity="0" stroke="#116FFF" stroke-width="5" stroke-linecap="round"/>
      <path d="M452.84,360.821 L330.951,360.821" fill-opacity="0" stroke="#116FFF" stroke-width="5" stroke-linecap="round"/>
      <path d="M452.84,390.821 L330.951,390.821" fill-opacity="0" stroke="#116FFF" stroke-width="5" stroke-linecap="round"/>
      <path d="M452.84,420.821 L330.951,420.821" fill-opacity="0" stroke="#116FFF" stroke-width="5" stroke-linecap="round"/>
    </g>
    <path d="M457.84,461.05 L48.242,461.05 C25.102,461.05 6.343,442.291 6.343,419.151 L6.343,154.08 C6.343,138.208 19.21,125.341 35.082,125.341 L381.284,125.341 C397.156,125.341 410.023,138.208 410.023,154.08 L410.023,413.233 C410.022,439.651 431.45,461.05 457.84,461.05 z" fill="#D7E9FF"/>
    <path d="M218.852,366.653 L218.852,398.684 C218.852,407.98 211.363,415.469 202.067,415.469 L76.017,415.469 C66.721,415.469 59.231,407.98 59.231,398.684 L59.231,366.653 C59.231,357.357 66.722,349.867 76.017,349.867 L202.067,349.867 C211.363,349.868 218.852,357.358 218.852,366.653 z" fill="#FFFFFF"/>
    <g>
      <path d="M475.498,81.298 L276.096,81.298 C267.423,81.298 259.528,76.897 254.968,69.523 L250.579,62.437 C244.064,51.914 232.786,45.633 220.414,45.633 L89.372,45.633 C69.816,45.633 53.901,61.545 53.901,81.104 L53.901,120.03 L35.081,120.03 C16.308,120.03 1.031,135.304 1.031,154.08 L1.031,419.15 C1.031,445.183 22.211,466.363 48.241,466.363 C360.333,466.362 458.429,466.396 460.455,466.301 C488.783,464.934 510.97,441.028 510.97,411.875 L510.97,116.769 C510.969,97.21 495.054,81.298 475.498,81.298 z M48.241,455.739 C28.067,455.739 11.655,439.326 11.655,419.15 L11.655,154.079 C11.655,141.162 22.165,130.653 35.081,130.653 L381.285,130.653 C394.202,130.653 404.711,141.163 404.711,154.079 L404.711,413.232 C404.711,429.885 412.657,445.755 426,455.74 L48.241,455.74 z M500.345,411.875 C500.345,435.35 482.599,454.595 459.946,455.687 C435.758,456.883 415.335,437.486 415.335,413.231 L415.335,154.079 C415.335,135.303 400.058,120.029 381.285,120.029 L64.524,120.029 L64.524,81.103 C64.524,67.403 75.672,56.256 89.371,56.256 L220.414,56.256 C229.082,56.256 236.982,60.657 241.542,68.029 L245.931,75.112 C252.441,85.637 263.718,91.922 276.095,91.922 L475.497,91.922 C489.197,91.922 500.344,103.07 500.344,116.769 L500.344,411.875 z" fill="#116FFF"/>
      <path d="M202.067,344.556 L76.019,344.556 C63.834,344.556 53.921,354.469 53.921,366.654 L53.921,398.683 C53.921,410.868 63.834,420.781 76.019,420.781 L202.067,420.781 C214.252,420.781 224.165,410.868 224.165,398.683 L224.165,366.654 C224.165,354.469 214.252,344.556 202.067,344.556 z M213.541,398.684 C213.541,405.01 208.395,410.158 202.067,410.158 L76.019,410.158 C69.69,410.158 64.545,405.01 64.545,398.684 L64.545,366.655 C64.545,360.329 69.691,355.181 76.019,355.181 L202.067,355.181 C208.396,355.181 213.541,360.329 213.541,366.655 z" fill="#116FFF"/>
    </g>
  </g>
</svg>
