<svg enable-background="new 0 0 512 512" height="512" viewBox="0 0 512 512" width="512" xmlns="http://www.w3.org/2000/svg"><g id="_x30_6_Folder"><g><path d="m457.84 461.05h-409.598c-23.14 0-41.899-18.759-41.899-41.899v-265.071c0-15.872 12.867-28.739 28.739-28.739h346.202c15.872 0 28.739 12.867 28.739 28.739v259.153c-.001 26.418 21.427 47.817 47.817 47.817z" fill="#d7e9ff"/><path d="m505.651 116.783v295.074c0 21.088-13.226 39.733-32.137 46.479-4.196 1.487-8.658 2.443-13.333 2.656-27.462 1.328-50.144-20.557-50.144-47.754v-259.166c0-15.882-12.908-28.737-28.737-28.737h-322.11v-44.248c0-16.627 13.545-30.118 30.171-30.118h131.043c10.465 0 20.185 5.365 25.656 14.289l4.409 7.065c5.471 8.871 15.192 14.289 25.603 14.289h199.408c16.679 0 30.171 13.492 30.171 30.171z" fill="#94c1ff"/><path d="m218.852 366.653v32.031c0 9.296-7.489 16.785-16.785 16.785h-126.05c-9.296 0-16.786-7.489-16.786-16.785v-32.031c0-9.296 7.491-16.786 16.786-16.786h126.05c9.296.001 16.785 7.491 16.785 16.786z" fill="#fff"/><g fill="#116fff"><path d="m475.498 81.298h-199.402c-8.673 0-16.568-4.401-21.128-11.775l-4.389-7.086c-6.515-10.523-17.793-16.804-30.165-16.804h-131.042c-19.556 0-35.471 15.912-35.471 35.471v38.926h-18.82c-18.773 0-34.05 15.274-34.05 34.05v265.07c0 26.033 21.18 47.213 47.21 47.213 312.092-.001 410.188.033 412.214-.062 28.328-1.367 50.515-25.273 50.515-54.426v-295.106c-.001-19.559-15.916-35.471-35.472-35.471zm-427.257 374.441c-20.174 0-36.586-16.413-36.586-36.589v-265.071c0-12.917 10.51-23.426 23.426-23.426h346.204c12.917 0 23.426 10.51 23.426 23.426v259.153c0 16.653 7.946 32.523 21.289 42.508h-377.759zm452.104-43.864c0 23.475-17.746 42.72-40.399 43.812-24.188 1.196-44.611-18.201-44.611-42.456v-259.152c0-18.776-15.277-34.05-34.05-34.05h-316.761v-38.926c0-13.7 11.148-24.847 24.847-24.847h131.043c8.668 0 16.568 4.401 21.128 11.773l4.389 7.083c6.51 10.525 17.787 16.81 30.164 16.81h199.402c13.7 0 24.847 11.148 24.847 24.847v295.106z"/><path d="m202.067 344.556h-126.048c-12.185 0-22.098 9.913-22.098 22.098v32.029c0 12.185 9.913 22.098 22.098 22.098h126.048c12.185 0 22.098-9.913 22.098-22.098v-32.029c0-12.185-9.913-22.098-22.098-22.098zm11.474 54.128c0 6.326-5.146 11.474-11.474 11.474h-126.048c-6.329 0-11.474-5.148-11.474-11.474v-32.029c0-6.326 5.146-11.474 11.474-11.474h126.048c6.329 0 11.474 5.148 11.474 11.474z"/></g></g></g></svg>