<?xml version="1.0" encoding="UTF-8"?>
<!DOCTYPE svg PUBLIC "-//W3C//DTD SVG 1.1//EN" "http://www.w3.org/Graphics/SVG/1.1/DTD/svg11.dtd">
<svg version="1.1" xmlns="http://www.w3.org/2000/svg" xmlns:xlink="http://www.w3.org/1999/xlink" x="0" y="0" width="512" height="512" viewBox="0, 0, 512, 512">
  <g id="retract_selected">
    <g>
      <g>
        <path d="M89.64,382.751 L426.438,382.751 C429.275,382.751 431.575,384.735 431.575,387.182 L431.575,427.902 C431.575,430.349 429.275,432.333 426.438,432.333 L89.64,432.333 C86.803,432.333 84.503,430.349 84.503,427.902 L84.503,387.182 C84.503,384.735 86.803,382.751 89.64,382.751 z" fill="#0878FF"/>
        <path d="M89.64,382.751 L426.438,382.751 C429.275,382.751 431.575,384.735 431.575,387.182 L431.575,427.902 C431.575,430.349 429.275,432.333 426.438,432.333 L89.64,432.333 C86.803,432.333 84.503,430.349 84.503,427.902 L84.503,387.182 C84.503,384.735 86.803,382.751 89.64,382.751 z" fill-opacity="0" stroke="#116FFF" stroke-width="5"/>
      </g>
      <g>
        <path d="M125.69,241.423 L390.388,241.423 C392.618,241.423 394.425,242.982 394.425,244.905 L394.425,276.908 C394.425,278.831 392.618,280.39 390.388,280.39 L125.69,280.39 C123.46,280.39 121.653,278.831 121.653,276.908 L121.653,244.905 C121.653,242.982 123.46,241.423 125.69,241.423 z" fill="#0878FF"/>
        <path d="M125.69,241.423 L390.388,241.423 C392.618,241.423 394.425,242.982 394.425,244.905 L394.425,276.908 C394.425,278.831 392.618,280.39 390.388,280.39 L125.69,280.39 C123.46,280.39 121.653,278.831 121.653,276.908 L121.653,244.905 C121.653,242.982 123.46,241.423 125.69,241.423 z" fill-opacity="0" stroke="#116FFF" stroke-width="5"/>
      </g>
      <path d="M126.308,382.751 L161.198,280.39" fill-opacity="0" stroke="#116FFF" stroke-width="16"/>
      <path d="M217.965,382.751 L252.854,280.39" fill-opacity="0" stroke="#116FFF" stroke-width="16"/>
      <path d="M204.214,382.751 L169.325,280.39" fill-opacity="0" stroke="#116FFF" stroke-width="16"/>
      <path d="M386.377,382.751 L351.488,280.39" fill-opacity="0" stroke="#116FFF" stroke-width="16"/>
      <path d="M296.393,382.751 L261.503,280.39" fill-opacity="0" stroke="#116FFF" stroke-width="16"/>
      <path d="M308.536,382.751 L343.426,280.39" fill-opacity="0" stroke="#116FFF" stroke-width="16"/>
    </g>
    <g>
      <g>
        <path d="M98.084,124.767 L98.084,16.283 C98.084,11.311 105.624,7.243 114.839,7.243 C124.054,7.243 131.594,11.311 131.594,16.283 L131.594,124.767 C131.594,129.739 124.054,133.807 114.839,133.807 C105.624,133.807 98.084,129.739 98.084,124.767 z" fill="#E7AAFF"/>
        <path d="M98.084,124.767 L98.084,16.283 C98.084,11.311 105.624,7.243 114.839,7.243 C124.054,7.243 131.594,11.311 131.594,16.283 L131.594,124.767 C131.594,129.739 124.054,133.807 114.839,133.807 C105.624,133.807 98.084,129.739 98.084,124.767 z" fill-opacity="0" stroke="#CE56FF" stroke-width="7"/>
      </g>
      <g>
        <path d="M420.034,506 L91.644,506 C60.648,506 34.678,480.868 34.678,449.034 L34.678,195.202 C34.678,178.447 42.217,162.53 55.621,151.64 L219.816,15.927 C240.76,-1.665 270.918,-1.665 291.861,15.927 L456.057,150.802 C469.46,161.692 477,177.609 477,194.364 L477,448.197 C477,480.868 451.03,506 420.034,506 z M255.839,36.87 C250.813,36.87 244.948,38.546 240.76,41.897 L76.564,177.609 C71.538,181.798 68.187,188.5 68.187,195.202 L68.187,449.034 C68.187,461.6 78.24,472.491 91.644,472.491 L420.034,472.491 C432.6,472.491 443.491,462.438 443.491,449.034 L443.491,195.202 C443.491,188.5 440.14,181.798 435.113,177.609 L270.918,41.897 C266.729,38.546 260.865,36.87 255.839,36.87 z" fill="#E7AAFF"/>
        <path d="M420.034,506 L91.644,506 C60.648,506 34.678,480.868 34.678,449.034 L34.678,195.202 C34.678,178.447 42.217,162.53 55.621,151.64 L219.816,15.927 C240.76,-1.665 270.918,-1.665 291.861,15.927 L456.057,150.802 C469.46,161.692 477,177.609 477,194.364 L477,448.197 C477,480.868 451.03,506 420.034,506 z M255.839,36.87 C250.813,36.87 244.948,38.546 240.76,41.897 L76.564,177.609 C71.538,181.798 68.187,188.5 68.187,195.202 L68.187,449.034 C68.187,461.6 78.24,472.491 91.644,472.491 L420.034,472.491 C432.6,472.491 443.491,462.438 443.491,449.034 L443.491,195.202 C443.491,188.5 440.14,181.798 435.113,177.609 L270.918,41.897 C266.729,38.546 260.865,36.87 255.839,36.87 z" fill-opacity="0" stroke="#CE56FF" stroke-width="7"/>
      </g>
      <g display="none">
        <path d="M356.367,222.28 L155.311,222.28 C146.096,222.28 138.557,214.74 138.557,205.525 C138.557,196.31 146.096,188.77 155.311,188.77 L356.367,188.77 C365.582,188.77 373.121,196.31 373.121,205.525 C373.121,214.74 365.582,222.28 356.367,222.28 z" fill="#E7AAFF"/>
        <path d="M356.367,222.28 L155.311,222.28 C146.096,222.28 138.557,214.74 138.557,205.525 C138.557,196.31 146.096,188.77 155.311,188.77 L356.367,188.77 C365.582,188.77 373.121,196.31 373.121,205.525 C373.121,214.74 365.582,222.28 356.367,222.28 z" fill-opacity="0" stroke="#CE56FF" stroke-width="7"/>
      </g>
    </g>
  </g>
  <g id="retract" display="none">
    <g>
      <g>
        <path d="M89.601,383.418 L426.399,383.418 C429.236,383.418 431.536,385.402 431.536,387.849 L431.536,428.569 C431.536,431.016 429.236,433 426.399,433 L89.601,433 C86.764,433 84.464,431.016 84.464,428.569 L84.464,387.849 C84.464,385.402 86.764,383.418 89.601,383.418 z" fill="#0878FF"/>
        <path d="M89.601,383.418 L426.399,383.418 C429.236,383.418 431.536,385.402 431.536,387.849 L431.536,428.569 C431.536,431.016 429.236,433 426.399,433 L89.601,433 C86.764,433 84.464,431.016 84.464,428.569 L84.464,387.849 C84.464,385.402 86.764,383.418 89.601,383.418 z" fill-opacity="0" stroke="#116FFF" stroke-width="5"/>
      </g>
      <g>
        <path d="M125.651,242.09 L390.349,242.09 C392.579,242.09 394.386,243.649 394.386,245.572 L394.386,277.575 C394.386,279.498 392.579,281.057 390.349,281.057 L125.651,281.057 C123.421,281.057 121.614,279.498 121.614,277.575 L121.614,245.572 C121.614,243.649 123.421,242.09 125.651,242.09 z" fill="#0878FF"/>
        <path d="M125.651,242.09 L390.349,242.09 C392.579,242.09 394.386,243.649 394.386,245.572 L394.386,277.575 C394.386,279.498 392.579,281.057 390.349,281.057 L125.651,281.057 C123.421,281.057 121.614,279.498 121.614,277.575 L121.614,245.572 C121.614,243.649 123.421,242.09 125.651,242.09 z" fill-opacity="0" stroke="#116FFF" stroke-width="5"/>
      </g>
      <path d="M126.269,383.418 L161.159,281.057" fill-opacity="0" stroke="#116FFF" stroke-width="16"/>
      <path d="M217.926,383.418 L252.815,281.057" fill-opacity="0" stroke="#116FFF" stroke-width="16"/>
      <path d="M204.175,383.418 L169.286,281.057" fill-opacity="0" stroke="#116FFF" stroke-width="16"/>
      <path d="M386.338,383.418 L351.449,281.057" fill-opacity="0" stroke="#116FFF" stroke-width="16"/>
      <path d="M296.354,383.418 L261.464,281.057" fill-opacity="0" stroke="#116FFF" stroke-width="16"/>
      <path d="M308.497,383.418 L343.387,281.057" fill-opacity="0" stroke="#116FFF" stroke-width="16"/>
    </g>
    <g>
      <g>
        <path d="M98.045,125.434 L98.045,16.95 C98.045,11.978 105.585,7.91 114.8,7.91 C124.015,7.91 131.555,11.978 131.555,16.95 L131.555,125.434 C131.555,130.406 124.015,134.475 114.8,134.475 C105.585,134.475 98.045,130.406 98.045,125.434 z" fill="#94C1FF"/>
        <path d="M98.045,125.434 L98.045,16.95 C98.045,11.978 105.585,7.91 114.8,7.91 C124.015,7.91 131.555,11.978 131.555,16.95 L131.555,125.434 C131.555,130.406 124.015,134.475 114.8,134.475 C105.585,134.475 98.045,130.406 98.045,125.434 z" fill-opacity="0" stroke="#0878FF" stroke-width="7"/>
      </g>
      <g>
        <path d="M419.995,506.667 L91.605,506.667 C60.609,506.667 34.639,481.535 34.639,449.701 L34.639,195.869 C34.639,179.114 42.179,163.197 55.582,152.307 L219.778,16.594 C240.721,-0.998 270.879,-0.998 291.822,16.594 L456.018,151.469 C469.421,162.36 476.961,178.276 476.961,195.031 L476.961,448.864 C476.961,481.535 450.991,506.667 419.995,506.667 z M255.8,37.538 C250.774,37.538 244.91,39.213 240.721,42.564 L76.526,178.276 C71.499,182.465 68.148,189.167 68.148,195.869 L68.148,449.701 C68.148,462.267 78.201,473.158 91.605,473.158 L419.995,473.158 C432.561,473.158 443.452,463.105 443.452,449.701 L443.452,195.869 C443.452,189.167 440.101,182.465 435.075,178.276 L270.879,42.564 C266.691,39.213 260.826,37.538 255.8,37.538 z" fill="#94C1FF"/>
        <path d="M419.995,506.667 L91.605,506.667 C60.609,506.667 34.639,481.535 34.639,449.701 L34.639,195.869 C34.639,179.114 42.179,163.197 55.582,152.307 L219.778,16.594 C240.721,-0.998 270.879,-0.998 291.822,16.594 L456.018,151.469 C469.421,162.36 476.961,178.276 476.961,195.031 L476.961,448.864 C476.961,481.535 450.991,506.667 419.995,506.667 z M255.8,37.538 C250.774,37.538 244.91,39.213 240.721,42.564 L76.526,178.276 C71.499,182.465 68.148,189.167 68.148,195.869 L68.148,449.701 C68.148,462.267 78.201,473.158 91.605,473.158 L419.995,473.158 C432.561,473.158 443.452,463.105 443.452,449.701 L443.452,195.869 C443.452,189.167 440.101,182.465 435.075,178.276 L270.879,42.564 C266.691,39.213 260.826,37.538 255.8,37.538 z" fill-opacity="0" stroke="#0878FF" stroke-width="7"/>
      </g>
      <g display="none">
        <path d="M356.328,222.947 L155.272,222.947 C146.057,222.947 138.518,215.407 138.518,206.192 C138.518,196.977 146.057,189.438 155.272,189.438 L356.328,189.438 C365.543,189.438 373.082,196.977 373.082,206.192 C373.082,215.407 365.543,222.947 356.328,222.947 z" fill="#94C1FF"/>
        <path d="M356.328,222.947 L155.272,222.947 C146.057,222.947 138.518,215.407 138.518,206.192 C138.518,196.977 146.057,189.438 155.272,189.438 L356.328,189.438 C365.543,189.438 373.082,196.977 373.082,206.192 C373.082,215.407 365.543,222.947 356.328,222.947 z" fill-opacity="0" stroke="#0878FF" stroke-width="7"/>
      </g>
    </g>
  </g>
</svg>
