<?xml version="1.0" encoding="UTF-8"?>
<!DOCTYPE svg PUBLIC "-//W3C//DTD SVG 1.1//EN" "http://www.w3.org/Graphics/SVG/1.1/DTD/svg11.dtd">
<svg version="1.1" xmlns="http://www.w3.org/2000/svg" xmlns:xlink="http://www.w3.org/1999/xlink" x="0" y="0" width="512" height="512" viewBox="0, 0, 512, 512">
  <g id="retract_selected" display="none">
    <g>
      <path d="M66.133,352.343 L444.945,352.343 C448.136,352.343 450.723,354.575 450.723,357.327 L450.723,403.126 C450.723,405.879 448.136,408.11 444.945,408.11 L66.133,408.11 C62.942,408.11 60.355,405.879 60.355,403.126 L60.355,357.327 C60.355,354.575 62.942,352.343 66.133,352.343 z" fill="#E7AAFF" fill-opacity="0.5"/>
      <path d="M66.133,352.343 L444.945,352.343 C448.136,352.343 450.723,354.575 450.723,357.327 L450.723,403.126 C450.723,405.879 448.136,408.11 444.945,408.11 L66.133,408.11 C62.942,408.11 60.355,405.879 60.355,403.126 L60.355,357.327 C60.355,354.575 62.942,352.343 66.133,352.343 z" fill-opacity="0" stroke="#AA01EE" stroke-width="5"/>
    </g>
    <g>
      <path d="M106.68,193.385 L404.398,193.385 C406.906,193.385 408.939,195.138 408.939,197.302 L408.939,233.296 C408.939,235.46 406.906,237.213 404.398,237.213 L106.68,237.213 C104.173,237.213 102.139,235.46 102.139,233.296 L102.139,197.302 C102.139,195.138 104.173,193.385 106.68,193.385 z" fill="#E7AAFF" fill-opacity="0.5"/>
      <path d="M106.68,193.385 L404.398,193.385 C406.906,193.385 408.939,195.138 408.939,197.302 L408.939,233.296 C408.939,235.46 406.906,237.213 404.398,237.213 L106.68,237.213 C104.173,237.213 102.139,235.46 102.139,233.296 L102.139,197.302 C102.139,195.138 104.173,193.385 106.68,193.385 z" fill-opacity="0" stroke="#AA01EE" stroke-width="5"/>
    </g>
    <path d="M83.098,352.343 L128.77,237.213" fill-opacity="0" stroke="#AA01EE" stroke-width="10"/>
    <path d="M203.08,352.343 L248.752,237.213" fill-opacity="0" stroke="#AA01EE" stroke-width="10"/>
    <path d="M185.08,352.343 L139.408,237.213" fill-opacity="0" stroke="#AA01EE" stroke-width="10"/>
    <path d="M423.54,352.343 L377.868,237.213" fill-opacity="0" stroke="#AA01EE" stroke-width="10"/>
    <path d="M305.746,352.343 L260.074,237.213" fill-opacity="0" stroke="#AA01EE" stroke-width="10"/>
    <path d="M321.643,352.343 L367.314,237.213" fill-opacity="0" stroke="#AA01EE" stroke-width="10"/>
    <text transform="matrix(1, 0, 0, 1, 255.539, 146.39)">
      <tspan x="-172.441" y="25.5" font-family="ArialRoundedMTBold" font-size="72" fill="#AA00EE">RETRACT</tspan>
    </text>
    <path d="M62.133,121.866 L62.133,272.277 L83.098,272.277 L51,323.717 L18.902,272.277 L39.867,272.277 L39.867,121.866 z" fill-opacity="0" stroke="#AA01EE" stroke-width="6" stroke-linecap="round"/>
    <path d="M472.133,121.866 L472.133,272.277 L493.098,272.277 L461,323.717 L428.902,272.277 L449.867,272.277 L449.867,121.866 z" fill-opacity="0" stroke="#AA01EE" stroke-width="6" stroke-linecap="round"/>
  </g>
  <g id="retract">
    <g>
      <g>
        <path d="M35.558,435.095 L476.442,435.095 C480.156,435.095 483.167,437.692 483.167,440.896 L483.167,494.2 C483.167,497.403 480.156,500 476.442,500 L35.558,500 C31.844,500 28.833,497.403 28.833,494.2 L28.833,440.896 C28.833,437.692 31.844,435.095 35.558,435.095 z" fill="#0878FF"/>
        <path d="M35.558,435.095 L476.442,435.095 C480.156,435.095 483.167,437.692 483.167,440.896 L483.167,494.2 C483.167,497.403 480.156,500 476.442,500 L35.558,500 C31.844,500 28.833,497.403 28.833,494.2 L28.833,440.896 C28.833,437.692 31.844,435.095 35.558,435.095 z" fill-opacity="0" stroke="#116FFF" stroke-width="5"/>
      </g>
      <g>
        <path d="M82.749,250.09 L429.251,250.09 C432.17,250.09 434.536,252.131 434.536,254.648 L434.536,296.541 C434.536,299.059 432.17,301.1 429.251,301.1 L82.749,301.1 C79.83,301.1 77.464,299.059 77.464,296.541 L77.464,254.648 C77.464,252.131 79.83,250.09 82.749,250.09 z" fill="#0878FF"/>
        <path d="M82.749,250.09 L429.251,250.09 C432.17,250.09 434.536,252.131 434.536,254.648 L434.536,296.541 C434.536,299.059 432.17,301.1 429.251,301.1 L82.749,301.1 C79.83,301.1 77.464,299.059 77.464,296.541 L77.464,254.648 C77.464,252.131 79.83,250.09 82.749,250.09 z" fill-opacity="0" stroke="#116FFF" stroke-width="5"/>
      </g>
      <path d="M83.559,435.095 L129.23,301.1" fill-opacity="0" stroke="#116FFF" stroke-width="16"/>
      <path d="M203.541,435.095 L249.213,301.1" fill-opacity="0" stroke="#116FFF" stroke-width="16"/>
      <path d="M185.541,435.095 L139.869,301.1" fill-opacity="0" stroke="#116FFF" stroke-width="16"/>
      <path d="M424.001,435.095 L378.329,301.1" fill-opacity="0" stroke="#116FFF" stroke-width="16"/>
      <path d="M306.207,435.095 L260.535,301.1" fill-opacity="0" stroke="#116FFF" stroke-width="16"/>
      <path d="M322.104,435.095 L367.775,301.1" fill-opacity="0" stroke="#116FFF" stroke-width="16"/>
    </g>
    <g>
      <path d="M117.534,7.328 C120.738,7.327 150.281,7.327 154.539,7.327 C158.797,7.327 160.552,9.854 160.565,12.567 C160.579,15.281 160.565,152.987 160.565,158.755 C160.565,164.524 165.051,168.209 168.76,168.209 C172.468,168.209 181.405,168.209 187.586,168.209 C193.924,168.209 196.238,175.099 190.882,181.279 C183.748,189.51 153.652,219.944 146.648,227.667 C139.644,235.39 135.386,238.896 125.223,227.667 C115.06,216.438 85.078,186.747 80.231,181.31 C75.383,175.873 78.92,168.209 85.274,168.209 C91.628,168.209 97.68,168.209 102.724,168.209 C107.768,168.209 111.436,163.558 111.436,158.776 C111.436,153.994 111.339,20.329 111.436,12.567 C111.502,7.327 115.379,7.328 117.534,7.328 z" fill="#94C1FF"/>
      <path d="M117.534,7.328 C120.738,7.327 150.281,7.327 154.539,7.327 C158.797,7.327 160.552,9.854 160.565,12.567 C160.579,15.281 160.565,152.987 160.565,158.755 C160.565,164.524 165.051,168.209 168.76,168.209 C172.468,168.209 181.405,168.209 187.586,168.209 C193.924,168.209 196.238,175.099 190.882,181.279 C183.748,189.51 153.652,219.944 146.648,227.667 C139.644,235.39 135.386,238.896 125.223,227.667 C115.06,216.438 85.078,186.747 80.231,181.31 C75.383,175.873 78.92,168.209 85.274,168.209 C91.628,168.209 97.68,168.209 102.724,168.209 C107.768,168.209 111.436,163.558 111.436,158.776 C111.436,153.994 111.339,20.329 111.436,12.567 C111.502,7.327 115.379,7.328 117.534,7.328 z" fill-opacity="0" stroke="#126EFF" stroke-width="6" stroke-linecap="round" stroke-linejoin="bevel"/>
    </g>
    <g>
      <path d="M355.534,7.328 C358.738,7.327 388.281,7.327 392.539,7.327 C396.797,7.327 398.552,9.854 398.565,12.567 C398.579,15.281 398.565,152.987 398.565,158.755 C398.565,164.524 403.051,168.209 406.76,168.209 C410.468,168.209 419.405,168.209 425.586,168.209 C431.924,168.209 434.238,175.099 428.882,181.279 C421.748,189.51 391.652,219.944 384.648,227.667 C377.644,235.39 373.386,238.896 363.223,227.667 C353.06,216.438 323.078,186.747 318.231,181.31 C313.383,175.873 316.92,168.209 323.274,168.209 C329.629,168.209 335.68,168.209 340.724,168.209 C345.768,168.209 349.436,163.558 349.436,158.776 C349.436,153.994 349.339,20.329 349.436,12.567 C349.502,7.327 353.379,7.328 355.534,7.328 z" fill="#94C1FF"/>
      <path d="M355.534,7.328 C358.738,7.327 388.281,7.327 392.539,7.327 C396.797,7.327 398.552,9.854 398.565,12.567 C398.579,15.281 398.565,152.987 398.565,158.755 C398.565,164.524 403.051,168.209 406.76,168.209 C410.468,168.209 419.405,168.209 425.586,168.209 C431.924,168.209 434.238,175.099 428.882,181.279 C421.748,189.51 391.652,219.944 384.648,227.667 C377.644,235.39 373.386,238.896 363.223,227.667 C353.06,216.438 323.078,186.747 318.231,181.31 C313.383,175.873 316.92,168.209 323.274,168.209 C329.629,168.209 335.68,168.209 340.724,168.209 C345.768,168.209 349.436,163.558 349.436,158.776 C349.436,153.994 349.339,20.329 349.436,12.567 C349.502,7.327 353.379,7.328 355.534,7.328 z" fill-opacity="0" stroke="#126EFF" stroke-width="6" stroke-linecap="round" stroke-linejoin="bevel"/>
    </g>
  </g>
</svg>
