<?xml version="1.0" encoding="UTF-8"?>
<!DOCTYPE svg PUBLIC "-//W3C//DTD SVG 1.1//EN" "http://www.w3.org/Graphics/SVG/1.1/DTD/svg11.dtd">
<svg version="1.1" xmlns="http://www.w3.org/2000/svg" xmlns:xlink="http://www.w3.org/1999/xlink" x="0" y="0" width="512" height="512" viewBox="0, 0, 512, 512">
  <g id="retract_selected">
    <g>
      <g>
        <path d="M35.391,435.095 L476.275,435.095 C479.989,435.095 483,437.692 483,440.896 L483,494.2 C483,497.403 479.989,500 476.275,500 L35.391,500 C31.677,500 28.666,497.403 28.666,494.2 L28.666,440.896 C28.666,437.692 31.677,435.095 35.391,435.095 z" fill="#0878FF"/>
        <path d="M35.391,435.095 L476.275,435.095 C479.989,435.095 483,437.692 483,440.896 L483,494.2 C483,497.403 479.989,500 476.275,500 L35.391,500 C31.677,500 28.666,497.403 28.666,494.2 L28.666,440.896 C28.666,437.692 31.677,435.095 35.391,435.095 z" fill-opacity="0" stroke="#116FFF" stroke-width="5"/>
      </g>
      <g>
        <path d="M82.582,250.09 L429.084,250.09 C432.003,250.09 434.369,252.131 434.369,254.648 L434.369,296.541 C434.369,299.059 432.003,301.1 429.084,301.1 L82.582,301.1 C79.664,301.1 77.297,299.059 77.297,296.541 L77.297,254.648 C77.297,252.131 79.664,250.09 82.582,250.09 z" fill="#0878FF"/>
        <path d="M82.582,250.09 L429.084,250.09 C432.003,250.09 434.369,252.131 434.369,254.648 L434.369,296.541 C434.369,299.059 432.003,301.1 429.084,301.1 L82.582,301.1 C79.664,301.1 77.297,299.059 77.297,296.541 L77.297,254.648 C77.297,252.131 79.664,250.09 82.582,250.09 z" fill-opacity="0" stroke="#116FFF" stroke-width="5"/>
      </g>
      <path d="M83.392,435.095 L129.064,301.1" fill-opacity="0" stroke="#116FFF" stroke-width="16"/>
      <path d="M203.374,435.095 L249.046,301.1" fill-opacity="0" stroke="#116FFF" stroke-width="16"/>
      <path d="M185.374,435.095 L139.702,301.1" fill-opacity="0" stroke="#116FFF" stroke-width="16"/>
      <path d="M423.834,435.095 L378.162,301.1" fill-opacity="0" stroke="#116FFF" stroke-width="16"/>
      <path d="M306.04,435.095 L260.368,301.1" fill-opacity="0" stroke="#116FFF" stroke-width="16"/>
      <path d="M321.937,435.095 L367.609,301.1" fill-opacity="0" stroke="#116FFF" stroke-width="16"/>
    </g>
    <g>
      <path d="M117.367,7.328 C120.571,7.327 150.114,7.327 154.372,7.327 C158.63,7.327 160.385,9.854 160.398,12.567 C160.412,15.281 160.398,152.987 160.398,158.755 C160.398,164.524 164.885,168.209 168.593,168.209 C172.301,168.209 181.238,168.209 187.419,168.209 C193.757,168.209 196.071,175.099 190.715,181.279 C183.581,189.51 153.485,219.944 146.481,227.667 C139.477,235.39 135.219,238.896 125.056,227.667 C114.893,216.438 84.911,186.747 80.064,181.31 C75.216,175.873 78.754,168.209 85.108,168.209 C91.462,168.209 97.513,168.209 102.557,168.209 C107.601,168.209 111.269,163.558 111.269,158.776 C111.269,153.994 111.172,20.329 111.269,12.567 C111.335,7.327 115.212,7.328 117.367,7.328 z" fill="#DB80FF"/>
      <path d="M117.367,7.328 C120.571,7.327 150.114,7.327 154.372,7.327 C158.63,7.327 160.385,9.854 160.398,12.567 C160.412,15.281 160.398,152.987 160.398,158.755 C160.398,164.524 164.885,168.209 168.593,168.209 C172.301,168.209 181.238,168.209 187.419,168.209 C193.757,168.209 196.071,175.099 190.715,181.279 C183.581,189.51 153.485,219.944 146.481,227.667 C139.477,235.39 135.219,238.896 125.056,227.667 C114.893,216.438 84.911,186.747 80.064,181.31 C75.216,175.873 78.754,168.209 85.108,168.209 C91.462,168.209 97.513,168.209 102.557,168.209 C107.601,168.209 111.269,163.558 111.269,158.776 C111.269,153.994 111.172,20.329 111.269,12.567 C111.335,7.327 115.212,7.328 117.367,7.328 z" fill-opacity="0" stroke="#8C00C4" stroke-width="6" stroke-linecap="round" stroke-linejoin="bevel"/>
    </g>
    <g>
      <path d="M355.367,7.328 C358.571,7.327 388.114,7.327 392.372,7.327 C396.63,7.327 398.385,9.854 398.398,12.567 C398.412,15.281 398.398,152.987 398.398,158.755 C398.398,164.524 402.885,168.209 406.593,168.209 C410.301,168.209 419.238,168.209 425.419,168.209 C431.757,168.209 434.071,175.099 428.715,181.279 C421.581,189.51 391.486,219.944 384.481,227.667 C377.477,235.39 373.219,238.896 363.056,227.667 C352.893,216.438 322.911,186.747 318.064,181.31 C313.216,175.873 316.754,168.209 323.108,168.209 C329.462,168.209 335.513,168.209 340.557,168.209 C345.601,168.209 349.269,163.558 349.269,158.776 C349.269,153.994 349.172,20.329 349.269,12.567 C349.335,7.327 353.212,7.328 355.367,7.328 z" fill="#DB80FF"/>
      <path d="M355.367,7.328 C358.571,7.327 388.114,7.327 392.372,7.327 C396.63,7.327 398.385,9.854 398.398,12.567 C398.412,15.281 398.398,152.987 398.398,158.755 C398.398,164.524 402.885,168.209 406.593,168.209 C410.301,168.209 419.238,168.209 425.419,168.209 C431.757,168.209 434.071,175.099 428.715,181.279 C421.581,189.51 391.486,219.944 384.481,227.667 C377.477,235.39 373.219,238.896 363.056,227.667 C352.893,216.438 322.911,186.747 318.064,181.31 C313.216,175.873 316.754,168.209 323.108,168.209 C329.462,168.209 335.513,168.209 340.557,168.209 C345.601,168.209 349.269,163.558 349.269,158.776 C349.269,153.994 349.172,20.329 349.269,12.567 C349.335,7.327 353.212,7.328 355.367,7.328 z" fill-opacity="0" stroke="#8C00C4" stroke-width="6" stroke-linecap="round" stroke-linejoin="bevel"/>
    </g>
  </g>
  <g id="retract" display="none">
    <g>
      <g>
        <path d="M35.558,435.095 L476.442,435.095 C480.156,435.095 483.167,437.692 483.167,440.896 L483.167,494.2 C483.167,497.403 480.156,500 476.442,500 L35.558,500 C31.844,500 28.833,497.403 28.833,494.2 L28.833,440.896 C28.833,437.692 31.844,435.095 35.558,435.095 z" fill="#0878FF"/>
        <path d="M35.558,435.095 L476.442,435.095 C480.156,435.095 483.167,437.692 483.167,440.896 L483.167,494.2 C483.167,497.403 480.156,500 476.442,500 L35.558,500 C31.844,500 28.833,497.403 28.833,494.2 L28.833,440.896 C28.833,437.692 31.844,435.095 35.558,435.095 z" fill-opacity="0" stroke="#116FFF" stroke-width="5"/>
      </g>
      <g>
        <path d="M82.749,250.09 L429.251,250.09 C432.17,250.09 434.536,252.131 434.536,254.648 L434.536,296.541 C434.536,299.059 432.17,301.1 429.251,301.1 L82.749,301.1 C79.83,301.1 77.464,299.059 77.464,296.541 L77.464,254.648 C77.464,252.131 79.83,250.09 82.749,250.09 z" fill="#0878FF"/>
        <path d="M82.749,250.09 L429.251,250.09 C432.17,250.09 434.536,252.131 434.536,254.648 L434.536,296.541 C434.536,299.059 432.17,301.1 429.251,301.1 L82.749,301.1 C79.83,301.1 77.464,299.059 77.464,296.541 L77.464,254.648 C77.464,252.131 79.83,250.09 82.749,250.09 z" fill-opacity="0" stroke="#116FFF" stroke-width="5"/>
      </g>
      <path d="M83.559,435.095 L129.23,301.1" fill-opacity="0" stroke="#116FFF" stroke-width="16"/>
      <path d="M203.541,435.095 L249.213,301.1" fill-opacity="0" stroke="#116FFF" stroke-width="16"/>
      <path d="M185.541,435.095 L139.869,301.1" fill-opacity="0" stroke="#116FFF" stroke-width="16"/>
      <path d="M424.001,435.095 L378.329,301.1" fill-opacity="0" stroke="#116FFF" stroke-width="16"/>
      <path d="M306.207,435.095 L260.535,301.1" fill-opacity="0" stroke="#116FFF" stroke-width="16"/>
      <path d="M322.104,435.095 L367.775,301.1" fill-opacity="0" stroke="#116FFF" stroke-width="16"/>
    </g>
    <g>
      <path d="M117.534,7.328 C120.738,7.327 150.281,7.327 154.539,7.327 C158.797,7.327 160.552,9.854 160.565,12.567 C160.579,15.281 160.565,152.987 160.565,158.755 C160.565,164.524 165.051,168.209 168.76,168.209 C172.468,168.209 181.405,168.209 187.586,168.209 C193.924,168.209 196.238,175.099 190.882,181.279 C183.748,189.51 153.652,219.944 146.648,227.667 C139.644,235.39 135.386,238.896 125.223,227.667 C115.06,216.438 85.078,186.747 80.231,181.31 C75.383,175.873 78.92,168.209 85.274,168.209 C91.628,168.209 97.68,168.209 102.724,168.209 C107.768,168.209 111.436,163.558 111.436,158.776 C111.436,153.994 111.339,20.329 111.436,12.567 C111.502,7.327 115.379,7.328 117.534,7.328 z" fill="#94C1FF"/>
      <path d="M117.534,7.328 C120.738,7.327 150.281,7.327 154.539,7.327 C158.797,7.327 160.552,9.854 160.565,12.567 C160.579,15.281 160.565,152.987 160.565,158.755 C160.565,164.524 165.051,168.209 168.76,168.209 C172.468,168.209 181.405,168.209 187.586,168.209 C193.924,168.209 196.238,175.099 190.882,181.279 C183.748,189.51 153.652,219.944 146.648,227.667 C139.644,235.39 135.386,238.896 125.223,227.667 C115.06,216.438 85.078,186.747 80.231,181.31 C75.383,175.873 78.92,168.209 85.274,168.209 C91.628,168.209 97.68,168.209 102.724,168.209 C107.768,168.209 111.436,163.558 111.436,158.776 C111.436,153.994 111.339,20.329 111.436,12.567 C111.502,7.327 115.379,7.328 117.534,7.328 z" fill-opacity="0" stroke="#126EFF" stroke-width="6" stroke-linecap="round" stroke-linejoin="bevel"/>
    </g>
    <g>
      <path d="M355.534,7.328 C358.738,7.327 388.281,7.327 392.539,7.327 C396.797,7.327 398.552,9.854 398.565,12.567 C398.579,15.281 398.565,152.987 398.565,158.755 C398.565,164.524 403.051,168.209 406.76,168.209 C410.468,168.209 419.405,168.209 425.586,168.209 C431.924,168.209 434.238,175.099 428.882,181.279 C421.748,189.51 391.652,219.944 384.648,227.667 C377.644,235.39 373.386,238.896 363.223,227.667 C353.06,216.438 323.078,186.747 318.231,181.31 C313.383,175.873 316.92,168.209 323.274,168.209 C329.629,168.209 335.68,168.209 340.724,168.209 C345.768,168.209 349.436,163.558 349.436,158.776 C349.436,153.994 349.339,20.329 349.436,12.567 C349.502,7.327 353.379,7.328 355.534,7.328 z" fill="#94C1FF"/>
      <path d="M355.534,7.328 C358.738,7.327 388.281,7.327 392.539,7.327 C396.797,7.327 398.552,9.854 398.565,12.567 C398.579,15.281 398.565,152.987 398.565,158.755 C398.565,164.524 403.051,168.209 406.76,168.209 C410.468,168.209 419.405,168.209 425.586,168.209 C431.924,168.209 434.238,175.099 428.882,181.279 C421.748,189.51 391.652,219.944 384.648,227.667 C377.644,235.39 373.386,238.896 363.223,227.667 C353.06,216.438 323.078,186.747 318.231,181.31 C313.383,175.873 316.92,168.209 323.274,168.209 C329.629,168.209 335.68,168.209 340.724,168.209 C345.768,168.209 349.436,163.558 349.436,158.776 C349.436,153.994 349.339,20.329 349.436,12.567 C349.502,7.327 353.379,7.328 355.534,7.328 z" fill-opacity="0" stroke="#126EFF" stroke-width="6" stroke-linecap="round" stroke-linejoin="bevel"/>
    </g>
  </g>
</svg>
