<svg enable-background="new 0 0 512 512" height="512" viewBox="0 0 512 512" width="512" xmlns="http://www.w3.org/2000/svg"><g id="_x31_6_Processing"><g><path d="m325.277 256.083c0 35.653-28.922 64.575-64.575 64.575s-64.54-28.922-64.54-64.575 28.887-64.54 64.54-64.54c35.653-.001 64.575 28.886 64.575 64.54z" fill="#fff"/><path d="m414.96 230.413-20.591-4.102c-3.515-15.82-9.709-30.467-18.162-43.691l11.718-17.493c3.264-4.939 2.594-11.468-1.507-15.737l-19.084-18.999c-4.101-4.185-10.713-4.854-15.651-1.507l-17.578 11.718c-13.141-8.454-27.872-14.564-43.608-18.08l-4.185-20.758c-1.172-5.775-6.194-9.96-12.136-9.96h-26.951c-5.943 0-10.965 4.185-12.137 9.96l-4.185 20.758c-15.736 3.516-30.467 9.626-43.609 18.08l-17.576-11.718c-4.855-3.347-11.468-2.678-15.653 1.507l-19 18.999c-4.185 4.269-4.854 10.798-1.59 15.737l11.718 17.493c-8.37 13.224-14.564 27.872-18.08 43.691l-20.674 4.102c-5.859 1.255-9.96 6.278-9.96 12.22v26.867c0 5.942 4.101 11.049 9.96 12.22l20.674 4.185c3.516 15.736 9.71 30.467 18.08 43.608l-11.718 17.578c-3.264 4.938-2.595 11.467 1.59 15.652l19 18.999c4.185 4.185 10.798 4.855 15.653 1.591l17.576-11.718c13.142 8.454 27.873 14.648 43.609 18.08l4.185 20.675c1.172 5.775 6.194 9.96 12.137 9.96h26.951c5.942 0 10.964-4.185 12.136-9.96l4.185-20.675c15.736-3.432 30.467-9.626 43.608-18.08l17.578 11.718c4.938 3.264 11.55 2.594 15.651-1.591l19.084-18.999c4.101-4.185 4.772-10.714 1.507-15.652l-11.718-17.578c8.454-13.141 14.648-27.872 18.162-43.608l20.591-4.185c5.86-1.171 9.961-6.278 9.961-12.22v-26.868c0-5.942-4.101-10.965-9.961-12.219zm-154.261 90.228c-35.657 0-64.533-28.877-64.533-64.534 0-35.656 28.876-64.533 64.533-64.533s64.617 28.877 64.617 64.533c0 35.657-28.96 64.534-64.617 64.534z" fill="#d7e9ff"/><g fill="#116fff"><path d="m105.362 225.316c-8.192 1.681-14.14 8.963-14.14 17.316v26.905c0 8.353 5.948 15.635 14.16 17.318l17.441 3.5c3.414 13.833 8.835 26.941 16.163 39.055l-9.893 14.774c-4.599 6.998-3.659 16.358 2.233 22.252l19.056 19.061c5.974 5.872 15.336 6.791 22.265 2.177l14.722-9.858c12.07 7.354 25.183 12.798 39.067 16.227l3.506 17.382c1.676 8.197 8.958 14.145 17.313 14.145h26.905c8.35 0 15.632-5.946 17.318-14.16l3.495-17.367c13.889-3.426 27.002-8.874 39.067-16.227l14.763 9.886c7.001 4.589 16.368 3.654 22.255-2.238l19.025-19.025c5.897-5.895 6.837-15.254 2.213-22.293l-9.858-14.725c7.354-12.073 12.801-25.186 16.225-39.067l17.39-3.503c8.192-1.679 14.14-8.961 14.14-17.313v-26.905c0-8.35-5.948-15.632-14.16-17.321l-17.369-3.495c-3.424-13.884-8.871-26.997-16.225-39.067l9.863-14.733c4.609-6.917 3.69-16.276-2.218-22.285l-19.025-19.028c-5.897-5.887-15.254-6.83-22.296-2.208l-14.733 9.865c-12.111-7.32-25.219-12.745-39.052-16.161l-3.506-17.461c-1.681-8.194-8.963-14.14-17.313-14.14h-26.905c-8.355 0-15.637 5.948-17.318 14.163l-3.5 17.438c-13.838 3.416-26.946 8.841-39.052 16.161l-14.748-9.87c-6.914-4.612-16.281-3.695-22.285 2.215l-19.061 19.058c-5.872 5.981-6.786 15.338-2.172 22.26l9.868 14.735c-7.328 12.111-12.75 25.219-16.163 39.055zm26.9 2.098c3.322-14.996 9.163-29.108 17.359-41.944 1.119-1.75 1.094-3.999-.061-5.726l-11.738-17.533c-1.875-2.816-1.482-6.648.905-9.081l18.995-18.992c2.463-2.425 6.296-2.813 9.101-.945l17.543 11.743c1.732 1.152 3.976 1.183 5.729.061 12.832-8.194 26.946-14.035 41.944-17.364 2.019-.447 3.587-2.047 3.996-4.078l4.16-20.717c.695-3.401 3.603-5.774 7.062-5.774h26.905c3.46 0 6.362 2.376 7.057 5.757l4.16 20.735c.409 2.031 1.973 3.631 3.996 4.078 15.003 3.327 29.113 9.17 41.949 17.364 1.753 1.122 4.006 1.091 5.729-.061l17.497-11.718c2.872-1.881 6.705-1.513 9.111.887l18.995 18.995c2.422 2.463 2.816 6.296.945 9.104l-11.743 17.541c-1.16 1.732-1.18 3.991-.051 5.744 8.227 12.77 14.089 26.877 17.421 41.926.45 2.021 2.049 3.59 4.078 3.999l20.645 4.155c3.403.7 5.78 3.605 5.78 7.065v26.905c0 3.46-2.376 6.365-5.759 7.057l-20.666 4.162c-2.029.409-3.628 1.978-4.078 3.999-3.332 15.044-9.193 29.151-17.421 41.926-1.129 1.755-1.109 4.012.051 5.744l11.718 17.502c1.891 2.874 1.513 6.705-.889 9.109l-19.025 19.025c-2.397 2.402-6.24 2.775-9.071.915l-17.538-11.743c-1.743-1.157-3.996-1.178-5.749-.051-12.765 8.227-26.874 14.089-41.929 17.426-2.019.447-3.587 2.044-3.996 4.075l-4.155 20.643c-.7 3.403-3.603 5.78-7.062 5.78h-26.905c-3.46 0-6.367-2.376-7.057-5.762l-4.165-20.663c-.409-2.029-1.978-3.626-3.996-4.073-15.049-3.337-29.159-9.201-41.924-17.426-1.716-1.102-3.962-1.137-5.749.051l-17.533 11.738c-2.821 1.873-6.653 1.477-9.081-.907l-19.025-19.028c-2.402-2.402-2.775-6.234-.91-9.071l11.743-17.541c1.155-1.727 1.18-3.976.061-5.726-8.197-12.839-14.038-26.951-17.359-41.944-.45-2.024-2.049-3.59-4.078-3.999l-20.717-4.157c-3.403-.698-5.78-3.6-5.78-7.062v-26.905c0-3.462 2.376-6.365 5.754-7.06l20.737-4.16c2.035-.41 3.634-1.976 4.084-4z"/><path d="m260.701 325.89c38.495 0 69.81-31.315 69.81-69.808 0-38.472-31.315-69.772-69.81-69.772-38.469 0-69.769 31.3-69.769 69.772 0 38.493 31.3 69.808 69.769 69.808zm0-129.114c32.72 0 59.344 26.604 59.344 59.306 0 32.72-26.624 59.342-59.344 59.342-32.7 0-59.304-26.621-59.304-59.342 0-32.702 26.604-59.306 59.304-59.306z"/><path d="m497.328 308.947c1.37 2.569 4.562 3.5 7.078 2.151 2.55-1.362 3.516-4.533 2.151-7.083l-26.91-50.399c-.884-1.656-2.692-2.61-4.129-2.744-1.679-.158-3.582.716-4.563 1.934l-35.771 44.553c-1.814 2.254-1.451 5.547.802 7.356 2.254 1.817 5.55 1.451 7.354-.805l25.808-32.143c-14.914 202.13-281.716 269.403-389.817 95.602-1.533-2.455-4.768-3.204-7.21-1.679-2.453 1.525-3.204 4.752-1.681 7.208 112.549 180.928 390.708 113.4 408.93-97.583z"/><path d="m6.117 263.972 37.585 43.033c.938 1.071 2.767 1.989 4.64 1.745 1.851-.249 3.32-1.482 4.017-2.915l24.8-51.472c1.252-2.604.158-5.731-2.448-6.986-2.596-1.255-5.723-.158-6.986 2.443l-17.975 37.313c-19.199-126.071 79.646-242.145 208.994-242.145 89.53 0 169.586 56.761 199.21 141.243.956 2.726 3.935 4.16 6.669 3.207 2.729-.958 4.16-3.943 3.204-6.671-31.091-88.67-115.117-148.244-209.083-148.244-134.229 0-237.621 119.082-219.776 251.153l-24.971-28.587c-1.901-2.182-5.202-2.404-7.384-.498-2.177 1.901-2.397 5.204-.496 7.381z"/></g></g></g></svg>