<?xml version="1.0" encoding="UTF-8"?>
<!DOCTYPE svg PUBLIC "-//W3C//DTD SVG 1.1//EN" "http://www.w3.org/Graphics/SVG/1.1/DTD/svg11.dtd">
<svg version="1.1" xmlns="http://www.w3.org/2000/svg" x="0" y="0" width="512" height="512" viewBox="0, 0, 512, 512">
  <g id="Layer_x0020_1">
    <path d="M204.23,452.925 C207.979,453.906 211.818,451.636 212.787,447.887 C213.76,444.138 211.502,440.299 207.753,439.33 C167.264,428.765 130.803,404.597 105.079,371.257 C79.19,337.723 65.509,297.509 65.509,254.967 C65.509,212.392 79.211,172.154 105.128,138.6 C130.675,105.53 166.857,81.453 207.01,70.798 C209.121,70.239 211.288,71.487 211.855,73.606 L215.731,88.067 L251.231,52.563 L202.736,39.576 L206.169,52.378 C206.439,53.401 206.296,54.472 205.77,55.392 C205.24,56.3 204.374,56.96 203.355,57.239 C160.247,68.679 121.412,94.534 94.005,130.01 C66.126,166.106 51.393,209.313 51.393,254.967 C51.393,300.585 66.109,343.772 93.96,379.859 C121.569,415.622 160.727,441.58 204.23,452.925 z M206.016,461.083 C204.756,461.083 203.491,460.927 202.243,460.607 C202.239,460.599 202.234,460.599 202.234,460.599 C157.04,448.806 116.358,421.859 87.682,384.7 C58.755,347.22 43.46,302.358 43.46,254.967 C43.46,207.539 58.767,162.657 87.731,125.165 C115.385,89.361 154.24,63.013 197.492,50.633 L193.3,34.989 C192.935,33.626 193.325,32.16 194.327,31.159 C195.328,30.157 196.786,29.766 198.157,30.136 L259.916,46.687 C261.283,47.049 262.35,48.124 262.72,49.487 C263.085,50.859 262.695,52.317 261.693,53.314 L216.483,98.529 C215.481,99.531 214.019,99.921 212.652,99.552 C211.284,99.19 210.217,98.114 209.847,96.751 L205.232,79.519 C168.283,90.207 135.081,112.798 111.402,143.453 C86.565,175.603 73.438,214.166 73.438,254.967 C73.438,295.744 86.549,334.287 111.353,366.416 C136.013,398.369 170.955,421.539 209.749,431.66 C217.722,433.721 222.531,441.9 220.465,449.882 C219.464,453.742 217.016,456.994 213.576,459.018 C211.243,460.381 208.648,461.083 206.016,461.083 z M257.616,459.433 L306.108,472.432 L302.281,458.139 C301.965,456.961 302.211,455.692 302.95,454.723 C303.693,453.742 304.843,453.163 306.071,453.155 C306.641,453.142 307.212,453.073 307.771,452.925 C351.265,441.58 390.428,415.622 418.041,379.859 C445.887,343.771 460.612,300.585 460.612,254.967 C460.612,209.374 445.908,166.208 418.09,130.141 C390.514,94.378 351.388,68.42 307.919,57.042 C306.112,56.571 304.223,56.837 302.605,57.786 C300.988,58.738 299.838,60.266 299.37,62.085 C298.397,65.829 300.655,69.673 304.404,70.641 C344.852,81.223 381.276,105.403 406.971,138.735 C432.822,172.256 446.487,212.45 446.487,254.967 C446.487,297.509 432.806,337.723 406.922,371.269 C381.194,404.597 344.733,428.765 304.252,439.329 C303.652,439.482 303.082,439.712 302.552,440.011 C301.485,440.619 300.199,440.693 299.066,440.217 C297.937,439.74 297.091,438.771 296.775,437.585 L293.117,423.936 L257.616,459.433 z M311.716,481.999 C311.376,481.999 311.031,481.958 310.69,481.868 L248.928,465.317 C247.56,464.955 246.493,463.879 246.127,462.52 C245.758,461.145 246.152,459.687 247.15,458.69 L292.361,413.475 C293.367,412.473 294.828,412.083 296.192,412.444 C297.559,412.814 298.631,413.877 298.996,415.252 L303.316,431.381 C341.678,421.116 376.209,398.081 400.644,366.416 C425.448,334.287 438.558,295.744 438.558,254.967 C438.558,214.216 425.464,175.698 400.693,143.576 C376.061,111.632 341.156,88.462 302.408,78.312 C298.549,77.314 295.305,74.863 293.276,71.426 C291.256,67.977 290.689,63.961 291.692,60.089 C292.694,56.23 295.14,52.978 298.585,50.954 C302.026,48.929 306.05,48.371 309.918,49.373 C355.084,61.194 395.729,88.154 424.368,125.301 C453.258,162.768 468.54,207.609 468.54,254.967 C468.54,302.359 453.249,347.22 424.318,384.7 C395.913,421.498 355.732,448.301 311.055,460.258 L315.543,477.015 C315.913,478.378 315.518,479.832 314.521,480.833 C313.765,481.597 312.751,481.999 311.716,481.999 z" fill="#1E81CE" id="_316751928"/>
    <path d="M215.73,88.069 L251.231,52.564 L202.735,39.577 L206.168,52.38 C206.439,53.402 206.295,54.474 205.77,55.393 C205.24,56.301 204.374,56.962 203.355,57.241 C160.247,68.68 121.412,94.536 94.005,130.011 C66.125,166.107 51.393,209.314 51.393,254.969 C51.393,300.586 66.109,343.773 93.96,379.86 C121.568,415.624 160.727,441.582 204.23,452.927 C207.979,453.908 211.818,451.637 212.787,447.889 C213.76,444.14 211.502,440.3 207.753,439.331 C167.264,428.767 130.803,404.599 105.079,371.258 C79.19,337.725 65.509,297.511 65.509,254.968 C65.509,212.394 79.211,172.155 105.128,138.601 C130.675,105.531 166.857,81.454 207.01,70.799 C209.121,70.241 211.288,71.489 211.855,73.608 L215.731,88.069 z" fill="#9BC9FF" id="_316750656"/>
    <path d="M293.115,423.938 L257.615,459.434 L306.106,472.434 L302.279,458.14 C301.963,456.962 302.21,455.693 302.949,454.724 C303.692,453.743 304.842,453.164 306.069,453.156 C306.64,453.143 307.211,453.074 307.769,452.926 C351.264,441.581 390.427,415.623 418.039,379.86 C445.886,343.773 460.611,300.586 460.611,254.968 C460.611,209.375 445.907,166.209 418.089,130.142 C390.513,94.379 351.387,68.421 307.917,57.044 C306.11,56.572 304.222,56.838 302.604,57.787 C300.986,58.739 299.836,60.267 299.368,62.086 C298.395,65.83 300.654,69.674 304.402,70.643 C344.85,81.224 381.275,105.404 406.97,138.736 C432.821,172.258 446.486,212.451 446.486,254.968 C446.486,297.51 432.805,337.724 406.921,371.27 C381.192,404.598 344.731,428.766 304.25,439.331 C303.651,439.483 303.08,439.713 302.551,440.012 C301.483,440.62 300.198,440.694 299.065,440.218 C297.936,439.741 297.09,438.772 296.774,437.586 L293.115,423.937 z" fill="#F8FAFB" id="_316750800"/>
    <g>
      <path d="M253.6,108.655 C233.66,108.655 212.31,171.328 212.31,264.624 C212.31,357.922 233.66,420.595 253.6,420.595 C263.233,420.595 273.071,406.099 280.736,380.696 C273.893,378.038 269.194,371.369 269.194,363.837 C269.194,353.869 277.329,345.752 287.285,345.752 C287.725,345.752 288.195,345.773 288.636,345.805 C292.718,321.339 294.862,293.343 294.862,264.625 C294.862,171.328 273.512,108.655 253.601,108.655 z M253.6,426.266 C236.714,426.266 225.819,399.843 219.652,377.674 C211.253,347.443 206.642,307.292 206.642,264.624 C206.642,221.956 211.253,181.806 219.652,151.571 C225.819,129.405 236.714,102.983 253.6,102.983 C270.457,102.983 281.352,129.405 287.52,151.571 C295.919,181.805 300.53,221.956 300.53,264.624 C300.53,294.746 298.18,324.108 293.746,349.525 C293.628,350.301 293.159,350.982 292.512,351.408 C291.837,351.836 291.044,351.977 290.28,351.792 C289.311,351.549 288.284,351.423 287.285,351.423 C280.442,351.423 274.862,356.99 274.862,363.836 C274.862,369.721 279.061,374.84 284.818,376.006 C285.582,376.162 286.257,376.634 286.668,377.313 C287.079,377.994 287.196,378.805 286.961,379.565 C278.211,410.116 266.639,426.266 253.6,426.266 z" fill="#1E81CE" id="_414592752"/>
      <path d="M287.285,351.423 C280.442,351.423 274.862,356.991 274.862,363.837 C274.862,370.682 280.442,376.25 287.285,376.25 C294.127,376.25 299.707,370.682 299.707,363.837 C299.707,356.991 294.127,351.423 287.285,351.423 z M287.285,381.921 C277.329,381.921 269.194,373.816 269.194,363.837 C269.194,353.869 277.329,345.752 287.285,345.752 C297.27,345.752 305.375,353.869 305.375,363.837 C305.375,373.816 297.27,381.921 287.285,381.921 z" fill="#1E81CE" id="_414591648"/>
      <path d="M168.171,254.381 C187.318,270.149 210.489,286.009 235.364,300.374 C316.153,347.02 381.114,359.872 391.069,342.607 C401.054,325.347 357.444,275.523 276.654,228.876 C195.835,182.225 130.905,169.371 120.92,186.636 C116.103,194.989 123.739,210.753 141.917,230.094 C147.615,225.51 155.75,224.77 162.269,228.535 C166.468,230.952 169.464,234.849 170.698,239.515 C171.96,244.185 171.314,249.057 168.906,253.245 C168.671,253.63 168.436,254.011 168.172,254.381 z M370.6,355.634 C359.91,355.634 347.723,353.314 336.945,350.53 C306.579,342.689 269.488,326.619 232.515,305.284 C206.436,290.218 182.179,273.508 162.385,256.953 C161.798,256.448 161.416,255.717 161.387,254.936 C161.328,254.146 161.622,253.377 162.18,252.816 C162.855,252.093 163.471,251.279 163.971,250.408 C165.644,247.536 166.085,244.19 165.234,240.987 C164.353,237.78 162.297,235.107 159.448,233.448 C154.338,230.506 147.819,231.562 143.942,235.971 C143.413,236.563 142.65,236.91 141.858,236.931 C141.858,236.931 141.828,236.931 141.799,236.931 C141.035,236.931 140.301,236.622 139.773,236.059 C117.688,213.191 109.495,195.121 116.014,183.799 C124.443,169.177 152.782,172.966 175.072,178.719 C205.437,186.56 242.529,202.63 279.473,223.965 C316.446,245.298 348.898,269.379 370.864,291.768 C386.987,308.185 404.431,330.822 395.973,345.444 C391.627,352.991 381.965,355.634 370.6,355.634 z" fill="#1E81CE" id="_414591936"/>
      <path d="M153.252,231.777 C152.166,231.777 151.08,231.918 150.022,232.206 C146.82,233.063 144.148,235.122 142.474,237.988 C140.83,240.861 140.389,244.205 141.241,247.409 C142.092,250.617 144.148,253.289 147.026,254.951 C149.904,256.604 153.252,257.047 156.453,256.19 C159.654,255.336 162.327,253.274 163.971,250.402 C165.645,247.536 166.086,244.19 165.234,240.987 C164.353,237.78 162.297,235.107 159.448,233.448 C157.51,232.347 155.396,231.777 153.252,231.777 z M153.194,262.292 C150.051,262.292 146.967,261.47 144.177,259.861 C140.007,257.447 137.012,253.547 135.75,248.881 C134.516,244.214 135.162,239.339 137.57,235.16 C139.978,230.973 143.884,227.983 148.554,226.726 C153.223,225.478 158.098,226.121 162.268,228.535 C166.467,230.952 169.463,234.849 170.697,239.515 C171.959,244.184 171.313,249.057 168.905,253.245 L168.905,253.239 C166.467,257.424 162.562,260.416 157.922,261.67 C156.365,262.084 154.779,262.292 153.194,262.292 z" fill="#1E81CE" id="_414591984"/>
      <path d="M370.424,179.303 C343.259,179.303 293.392,195.371 235.364,228.876 C198.859,249.958 166.82,273.708 145.176,295.745 C124.648,316.658 115.808,333.738 120.918,342.607 C126.058,351.476 145.264,352.368 173.633,345.035 C203.558,337.32 240.12,321.457 276.653,300.374 C301.528,286.01 324.699,270.149 343.816,254.381 C343.582,254.011 343.346,253.63 343.111,253.239 C340.703,249.057 340.057,244.185 341.32,239.515 C342.553,234.849 345.549,230.952 349.749,228.535 C356.268,224.77 364.374,225.51 370.1,230.094 C388.249,210.753 395.885,194.989 391.068,186.636 C388.278,181.776 381.113,179.303 370.423,179.303 z M141.417,355.634 C130.022,355.634 120.389,352.991 116.014,345.444 C107.585,330.822 125.03,308.185 141.123,291.768 C163.119,269.379 195.57,245.298 232.514,223.965 C269.488,202.63 306.579,186.56 336.945,178.718 C359.234,172.966 387.545,169.177 395.973,183.799 C402.522,195.121 394.299,213.19 372.244,236.058 C371.686,236.637 370.952,236.954 370.13,236.931 C369.337,236.91 368.603,236.563 368.074,235.97 C364.198,231.562 357.679,230.505 352.568,233.447 C349.69,235.107 347.635,237.78 346.783,240.986 C345.931,244.19 346.372,247.536 348.016,250.402 C348.544,251.279 349.132,252.093 349.837,252.816 C350.366,253.376 350.659,254.146 350.63,254.936 C350.571,255.717 350.219,256.448 349.602,256.953 C329.809,273.508 305.581,290.218 279.473,305.284 C242.529,326.619 205.438,342.689 175.071,350.53 C164.294,353.314 152.076,355.634 141.417,355.634 z" fill="#1E81CE" id="_414591576"/>
      <path d="M358.765,231.777 C356.592,231.777 354.477,232.347 352.568,233.448 C349.69,235.107 347.635,237.78 346.783,240.987 C345.932,244.19 346.372,247.536 348.017,250.402 C349.69,253.274 352.363,255.336 355.564,256.19 C358.765,257.047 362.113,256.604 364.991,254.951 C370.923,251.524 372.95,243.917 369.543,237.988 C367.869,235.122 365.197,233.063 361.995,232.206 C360.909,231.918 359.822,231.777 358.765,231.777 z M358.795,262.292 C357.238,262.292 355.652,262.084 354.096,261.67 C349.426,260.416 345.52,257.424 343.112,253.239 C340.704,249.057 340.058,244.184 341.321,239.515 C342.554,234.849 345.55,230.952 349.749,228.535 C353.92,226.121 358.795,225.478 363.464,226.726 C368.133,227.983 372.009,230.973 374.447,235.16 C379.41,243.791 376.444,254.877 367.81,259.861 C365.02,261.47 361.936,262.292 358.795,262.292 z" fill="#1E81CE" id="_414591960"/>
      <path d="M256.009,242.893 C244.027,242.893 234.276,252.64 234.276,264.625 C234.276,276.61 244.027,286.357 256.009,286.357 C267.991,286.357 277.74,276.61 277.74,264.625 C277.74,252.64 267.991,242.893 256.009,242.893 z M256.009,292.031 C240.885,292.031 228.609,279.734 228.609,264.625 C228.609,249.516 240.885,237.219 256.009,237.219 C271.104,237.219 283.409,249.516 283.409,264.625 C283.409,279.734 271.104,292.031 256.009,292.031 z" fill="#1E81CE" id="_414591888"/>
      <path d="M256.009,257.233 C251.926,257.233 248.608,260.548 248.608,264.624 C248.608,268.701 251.926,272.01 256.009,272.01 C260.091,272.01 263.41,268.701 263.41,264.624 C263.41,260.548 260.091,257.233 256.009,257.233 z M256.009,277.681 C248.814,277.681 242.94,271.825 242.94,264.624 C242.94,257.424 248.814,251.562 256.009,251.562 C263.204,251.562 269.048,257.424 269.048,264.624 C269.048,271.825 263.204,277.681 256.009,277.681 z" fill="#1E81CE" id="_414591792"/>
    </g>
    <path d="M165.657,244.202 C165.658,243.13 165.517,242.05 165.234,240.986 C164.353,237.78 162.297,235.108 159.448,233.447 C158.747,233.049 158.021,232.72 157.28,232.462 C152.602,230.857 147.288,232.166 143.943,235.97 C143.902,236.016 143.86,236.061 143.817,236.103 C143.318,236.683 142.869,237.313 142.474,237.988 C140.83,240.86 140.389,244.205 141.241,247.409 C142.092,250.616 144.148,253.288 147.026,254.951 C149.904,256.604 153.252,257.047 156.453,256.189 C159.654,255.336 162.327,253.274 163.971,250.402 C164.939,248.745 165.494,246.929 165.626,245.073 C165.647,244.783 165.657,244.493 165.657,244.202 z" fill="#9BC9FF" id="_414592128"/>
    <path d="M256.009,277.681 C248.814,277.681 242.94,271.825 242.94,264.624 C242.94,257.424 248.814,251.561 256.009,251.561 C263.204,251.561 269.048,257.424 269.048,264.624 C269.048,271.825 263.204,277.681 256.009,277.681 z M277.74,264.624 C277.74,252.639 267.991,242.892 256.009,242.892 C244.027,242.892 234.277,252.64 234.277,264.624 C234.277,276.609 244.027,286.356 256.009,286.356 C267.991,286.356 277.74,276.609 277.74,264.624 z" fill="#F8FAFB" id="_414592176"/>
    <g>
      <path d="M346.783,240.987 C345.931,244.191 346.371,247.536 348.017,250.402 C348.38,251.006 348.771,251.578 349.208,252.112 C349.382,252.323 349.562,252.526 349.747,252.724 C349.777,252.754 349.807,252.786 349.837,252.816 C349.846,252.826 349.856,252.836 349.865,252.846 C351.413,254.445 353.364,255.603 355.564,256.19 C358.764,257.048 362.113,256.605 364.991,254.951 C370.923,251.524 372.95,243.918 369.542,237.988 C369.149,237.315 368.701,236.686 368.204,236.107 C368.159,236.064 368.116,236.018 368.075,235.971 C364.198,231.563 357.678,230.506 352.568,233.448 C349.69,235.108 347.635,237.78 346.783,240.987 z" fill="#9BC9FF" id="_414591384"/>
      <path d="M299.707,363.836 C299.707,358.068 295.746,353.207 290.405,351.82 C290.364,351.812 290.322,351.803 290.28,351.792 C289.311,351.548 288.284,351.422 287.285,351.422 C280.442,351.422 274.862,356.99 274.862,363.836 C274.862,368.195 277.126,372.037 280.537,374.252 C282.482,375.516 284.799,376.249 287.285,376.249 C294.127,376.249 299.707,370.682 299.707,363.836 z" fill="#9BC9FF" id="_414590928"/>
      <path d="M256.009,272.011 C260.091,272.011 263.409,268.701 263.409,264.625 C263.409,260.549 260.091,257.233 256.009,257.233 C251.926,257.233 248.608,260.549 248.608,264.625 C248.608,268.701 251.926,272.011 256.009,272.011 z" fill="#9BC9FF" id="_414591192"/>
    </g>
  </g>
</svg>
