<svg clip-rule="evenodd" fill-rule="evenodd" height="512" image-rendering="optimizeQuality" shape-rendering="geometricPrecision" text-rendering="geometricPrecision" viewBox="0 0 2048 2048" width="512" xmlns="http://www.w3.org/2000/svg"><g id="Layer_x0020_1"><g id="_316750728"><path id="_316751928" d="m816.92 1811.7c14.9953 3.92481 30.3508-5.15788 34.2272-20.152 3.89292-14.9953-5.14016-30.3532-20.1354-34.2296-161.956-42.2575-307.801-138.93-410.697-272.292-103.553-134.134-158.277-294.99-158.277-465.159 0-170.299 54.8056-331.253 158.475-465.469 102.189-132.279 246.917-228.588 407.527-271.208 8.44253-2.23347 17.113 2.75906 19.3795 11.2335l15.5043 57.8457 142.002-142.018-193.983-51.9485 13.7315 51.2103c1.08307 4.08898.509056 8.37638-1.59331 12.0543-2.1189 3.63071-5.58426 6.27402-9.65906 7.39016-172.434 45.7583-327.772 149.179-437.402 291.082-111.517 144.383-170.446 317.212-170.446 499.829 0 182.47 58.8626 355.218 170.267 499.567 110.434 143.053 267.069 246.885 441.081 292.265zm7.14449 32.6339c-5.04213 0-10.102-.624804-15.0933-1.9063-.0165354-.0330709-.034252-.0330709-.034252-.0330709-180.777-47.1685-343.505-154.958-458.21-303.596-115.707-149.917-176.886-329.365-176.886-518.931 0-189.712 61.2272-369.241 177.082-519.208 110.616-143.217 266.036-248.609 439.046-298.127l-16.7693-62.576c-1.46102-5.45197.0992127-11.3162 4.1067-15.3225 4.0063-4.00748 9.83741-5.5689 15.3225-4.09016l247.034 66.2044c5.46733 1.44685 9.7382 5.74843 11.2169 11.2016 1.46102 5.48622-.0992127 11.3162-4.1067 15.3071l-180.843 180.86c-4.00748 4.00866-9.85394 5.56772-15.3236 4.09016-5.46969-1.44567-9.7382-5.74961-11.2169-11.2016l-18.4606-68.9304c-147.799 42.7512-280.603 133.115-375.32 255.736-99.3473 128.6-151.856 282.853-151.856 446.057 0 163.106 52.4422 317.279 151.658 445.794 98.6422 127.812 238.41 220.492 393.584 260.978 31.8945 8.2441 51.1276 40.9607 42.867 72.8882-4.00748 15.4382-13.7965 28.4469-27.5599 36.5433-9.32835 5.45315-19.7091 8.26182-30.2362 8.26182zm206.399-6.60237 193.967 51.9981-15.3071-57.1725c-1.26496-4.71378-.27874-9.78898 2.67756-13.6654 2.97166-3.92481 7.57087-6.23977 12.4819-6.27284 2.28189-.0496063 4.56615-.328347 6.79961-.918898 173.978-45.3803 330.63-149.212 441.081-292.265 111.386-144.349 170.284-317.097 170.284-499.567 0-182.371-58.8142-355.035-170.087-499.303-110.303-143.052-266.807-246.885-440.686-292.395-7.22717-1.8874-14.7827-.820867-21.2528 2.97284-6.47126 3.81024-11.0705 9.92009-12.9425 17.1957-3.89174 14.9788 5.14134 30.352 20.1354 34.2272 161.792 42.3248 307.49 139.045 410.269 272.375 103.406 134.085 158.065 294.858 158.065 464.927 0 170.169-54.7241 331.024-158.261 465.208-102.913 133.312-248.757 229.984-410.681 272.242-2.39764.608268-4.67953 1.52835-6.79843 2.72717-4.26969 2.43189-9.41221 2.72599-13.9441.822048-4.51654-1.9063-7.9004-5.78268-9.16418-10.5284l-14.6339-54.5941-142.002 141.986zm216.402 90.2646c-1.36299 0-2.74252-.162992-4.1067-.525591l-247.048-66.2044c-5.46969-1.44567-9.73938-5.74843-11.2016-11.185-1.47874-5.50158.0980316-11.3315 4.08898-15.3225l180.845-180.86c4.02402-4.00866 9.87048-5.56772 15.3236-4.12323 5.46969 1.47874 9.75591 5.73308 11.2181 11.2335l17.2784 64.5142c153.448-41.0611 291.573-133.198 389.312-259.86 99.2162-128.516 151.658-282.689 151.658-445.794 0-163.006-52.376-317.079-151.461-445.564-98.5276-127.778-238.147-220.459-393.14-261.058-15.4382-3.99095-28.4138-13.7965-36.5268-27.5421-8.07993-13.7965-10.3476-29.8595-6.33898-45.3473 4.00748-15.4382 13.7953-28.4457 27.5752-36.5433 13.7622-8.09646 29.8583-10.3299 45.3307-6.32245 180.663 47.2843 343.243 155.124 457.8 303.711 115.558 149.868 176.688 329.234 176.688 518.666 0 189.566-61.1634 369.013-176.887 518.931-113.62 147.191-274.344 254.406-453.053 302.234l17.9516 67.0264c1.47874 5.45079-.0980316 11.2665-4.08898 15.2728-3.02244 3.05433-7.07953 4.66418-11.2181 4.66418z" fill="#1e81ce" fill-rule="nonzero"/><path id="_316750656" d="m862.922 352.275 142.002-142.018-193.983-51.9485 13.7315 51.2103c1.08307 4.08898.509056 8.37638-1.59331 12.0543-2.1189 3.63071-5.58426 6.27402-9.65906 7.39016-172.434 45.7583-327.772 149.179-437.402 291.082-111.517 144.383-170.446 317.212-170.446 499.829 0 182.47 58.8626 355.218 170.267 499.567 110.434 143.053 267.069 246.885 441.081 292.265 14.9953 3.92481 30.3508-5.15788 34.2272-20.152 3.89292-14.9953-5.14016-30.3532-20.1354-34.2296-161.956-42.2575-307.801-138.93-410.697-272.292-103.553-134.134-158.277-294.99-158.277-465.159 0-170.299 54.8056-331.253 158.475-465.469 102.189-132.279 246.917-228.588 407.527-271.208 8.44253-2.23347 17.113 2.75906 19.3795 11.2335l15.5043 57.8457z" fill="#9bc9ff"/><path id="_316750800" d="m1172.46 1695.75-142.002 141.986 193.967 51.9981-15.3071-57.1725c-1.26496-4.71378-.27874-9.78898 2.67756-13.6654 2.97166-3.92481 7.57087-6.23977 12.4819-6.27284 2.28189-.0496063 4.56615-.328347 6.79961-.918898 173.978-45.3803 330.63-149.212 441.081-292.265 111.386-144.349 170.284-317.097 170.284-499.567 0-182.371-58.8142-355.035-170.087-499.303-110.303-143.052-266.807-246.885-440.686-292.395-7.22717-1.8874-14.7827-.820867-21.2528 2.97284-6.47126 3.81024-11.0705 9.92009-12.9425 17.1957-3.89174 14.9788 5.14134 30.352 20.1354 34.2272 161.792 42.3248 307.49 139.045 410.269 272.375 103.406 134.085 158.065 294.858 158.065 464.927 0 170.169-54.7241 331.024-158.261 465.208-102.913 133.312-248.757 229.984-410.681 272.242-2.39764.608268-4.67953 1.52835-6.79843 2.72717-4.26969 2.43189-9.41221 2.72599-13.9441.822048-4.51654-1.9063-7.9004-5.78268-9.16418-10.5284l-14.6339-54.5941z" fill="#f8fafb"/></g></g></svg>