<svg enable-background="new 0 0 512 512" height="512" viewBox="0 0 512 512" width="512" xmlns="http://www.w3.org/2000/svg"><g id="_x32_3_Evaluate"><g><path d="m426.735 78.87v354.21c0 .629 0 1.203-.052 1.832l-17.896-7.797h-269.909c-12.873 0-23.286 10.413-23.286 23.233v28.362c0 12.821 10.413 23.234 23.286 23.234h-40.502c-37.99 0-68.812-30.821-68.812-68.864v-354.21c0-37.99 30.821-68.812 68.812-68.812h259.495c37.991.001 68.864 30.822 68.864 68.812z" fill="#fff"/><path d="m167.819 86.372v45.923c0 9.344-7.607 16.952-16.951 16.952h-45.923c-9.344 0-16.951-7.607-16.951-16.952v-45.923c0-9.344 7.607-16.95 16.951-16.95h45.923c9.344 0 16.951 7.606 16.951 16.95z" fill="#94c1ff"/><path d="m167.819 215.306v45.923c0 9.344-7.607 16.952-16.951 16.952h-45.923c-9.344 0-16.951-7.607-16.951-16.952v-45.923c0-9.344 7.607-16.95 16.951-16.95h45.923c9.344 0 16.951 7.606 16.951 16.95z" fill="#d7e9ff"/><path d="m167.819 344.24v45.923c0 9.344-7.607 16.952-16.951 16.952h-45.923c-9.344 0-16.951-7.607-16.951-16.952v-45.923c0-9.344 7.607-16.95 16.951-16.95h45.923c9.344 0 16.951 7.606 16.951 16.95z" fill="#94c1ff"/><path d="m115.609 478.698v-28.333c0-12.837 10.41-23.247 23.246-23.247h269.952l68.642 29.82c6.653 2.897 6.653 12.289 0 15.185l-68.642 29.82h-269.951c-12.837.001-23.247-10.409-23.247-23.245z" fill="#94c1ff"/><path d="m138.856 501.944h30.819v-74.825h-30.819c-12.836 0-23.246 10.409-23.246 23.247v28.333c-.001 12.835 10.409 23.245 23.246 23.245z" fill="#d7e9ff"/><path d="m408.807 427.119 68.642 29.82c6.653 2.897 6.653 12.289 0 15.185l-68.642 29.82z" fill="#d7e9ff"/><g fill="#116fff"><path d="m357.87 4.825h-259.495c-40.83 0-74.046 33.216-74.046 74.046v354.209c0 40.856 33.216 74.095 74.046 74.095h40.483.02 269.93c.715 0 1.426-.148 2.085-.434l68.645-29.818c10.852-4.73 10.838-20.067-.005-24.782l-47.566-20.664v-352.606c.001-40.83-33.241-74.046-74.097-74.046zm-193.43 491.885h-25.561c-9.327 0-18.034-7.716-18.034-18.011v-28.333c0-9.932 8.079-18.013 18.013-18.013h25.582zm239.135 0h-228.67v-64.358h228.67zm5.213-74.828h-269.91c-15.724 0-28.52 12.77-28.52 28.466v28.361c0 6.161 2.257 12.893 6.444 18.001h-18.427c-35.061 0-63.581-28.543-63.581-63.629v-354.21c0-35.058 28.52-63.581 63.581-63.581h259.495c35.086 0 63.632 28.522 63.632 63.581v348.059l-10.609-4.609c-.578-.252-1.635-.439-2.105-.439zm66.57 39.856c2.46 1.068 2.475 4.509.005 5.588l-61.322 26.637v-58.853c17.534 7.615 43.788 19.016 61.317 26.628z"/><path d="m150.867 64.189h-45.92c-12.234 0-22.183 9.952-22.183 22.183v45.923c0 12.231 9.95 22.183 22.183 22.183h45.92c12.234 0 22.183-9.952 22.183-22.183v-45.922c0-12.231-9.949-22.184-22.183-22.184zm11.718 68.106c0 6.462-5.258 11.718-11.718 11.718h-45.92c-6.459 0-11.718-5.256-11.718-11.718v-45.922c0-6.462 5.258-11.718 11.718-11.718h45.92c6.459 0 11.718 5.256 11.718 11.718z"/><path d="m150.867 193.122h-45.92c-12.234 0-22.183 9.952-22.183 22.183v45.925c0 12.231 9.95 22.183 22.183 22.183h45.92c12.234 0 22.183-9.952 22.183-22.183v-45.925c0-12.231-9.949-22.183-22.183-22.183zm11.718 68.108c0 6.462-5.258 11.718-11.718 11.718h-45.92c-6.459 0-11.718-5.256-11.718-11.718v-45.925c0-6.462 5.258-11.718 11.718-11.718h45.92c6.459 0 11.718 5.256 11.718 11.718z"/><path d="m150.867 322.057h-45.92c-12.234 0-22.183 9.952-22.183 22.183v45.923c0 12.234 9.95 22.186 22.183 22.186h45.92c12.234 0 22.183-9.952 22.183-22.186v-45.923c0-12.231-9.949-22.183-22.183-22.183zm11.718 68.106c0 6.462-5.258 11.72-11.718 11.72h-45.92c-6.459 0-11.718-5.258-11.718-11.72v-45.923c0-6.462 5.258-11.718 11.718-11.718h45.92c6.459 0 11.718 5.256 11.718 11.718z"/><path d="m368.285 81.316h-162.213c-2.892 0-5.233 2.343-5.233 5.233s2.34 5.233 5.233 5.233h162.212c2.892 0 5.233-2.343 5.233-5.233s-2.34-5.233-5.232-5.233z"/><path d="m206.072 137.354h126.681c2.892 0 5.233-2.343 5.233-5.233s-2.34-5.233-5.233-5.233h-126.681c-2.892 0-5.233 2.343-5.233 5.233s2.341 5.233 5.233 5.233z"/><path d="m368.285 210.249h-162.213c-2.892 0-5.233 2.343-5.233 5.233s2.34 5.233 5.233 5.233h162.212c2.892 0 5.233-2.343 5.233-5.233s-2.34-5.233-5.232-5.233z"/><path d="m206.072 266.287h126.681c2.892 0 5.233-2.343 5.233-5.233s-2.34-5.233-5.233-5.233h-126.681c-2.892 0-5.233 2.343-5.233 5.233s2.341 5.233 5.233 5.233z"/><path d="m368.285 339.183h-162.213c-2.892 0-5.233 2.343-5.233 5.233s2.34 5.233 5.233 5.233h162.212c2.892 0 5.233-2.343 5.233-5.233s-2.34-5.233-5.232-5.233z"/><path d="m332.753 384.756h-126.681c-2.892 0-5.233 2.343-5.233 5.233s2.34 5.233 5.233 5.233h126.681c2.892 0 5.233-2.343 5.233-5.233s-2.34-5.233-5.233-5.233z"/></g></g></g></svg>