<svg id="Capa_1" enable-background="new 0 0 494.415 494.415" height="512" viewBox="0 0 494.415 494.415" width="512" xmlns="http://www.w3.org/2000/svg"><g><path d="m386.871 260.932c-31.69-22.592-60.305-49.191-91.553-72.409-85.852-67.348-142.394 36.122-99.457 15.804 50.947-60.718 111.497 23.798 153.877 54.344 10.031 7.55 27.511 23.807 37.217 30.577 10.295 9.51 38.162 16.847 29.763 33.596-40.217 44.152-89.878 81.281-133.604 122.262-4.63 3.895-14.112 11.887-18.816 15.716-3.456 4.138-10.023 7.431-15.111 11.353-5.157 1.059-10.125 1.438-13.341-2.96-21.57-25.511-50.693-43.125-78.968-59.919-33.459-18.993-124.711-68.953-79.336-112.304 12.797-16.316 66.839-30.341 59.294-52.788-5.779-11.524-59.207 33.188-71.019 38.81-75.231 69.997 76.847 149.7 126.302 184.098 11.095 6.916 20.422 15.78 30.914 23.305 10.612 6.346 33.285 5.422 41.619-4.84 35.462-16.614 100.72-74.098 111.879-83.734 23.875-24.806 67.068-48.198 68.555-86.279-2.541-30.806-40.153-36.223-58.215-54.632z" fill="#67b0ff"/><g><path d="m417.227 191.001c6.257-5.909 14.685-19.375 8.535-27.33l.742.712c-232.682-181.784-133.047-173.086-351.548-4.834l2.113-1.34c-13.847 8.067-12.672 22.225-1.497 32.493l-1.909-1.711c57.469 42.798 106.469 96.537 170.627 129.344 25.831 12.898 43.762-37.368 64.053-26.552 7.188 15.53-19.988 25.797-29.366 35.854-50.231 34.002-120.077-51.469-160.839-77.745-84.864-67.762-104.551-70.822-10.377-145.179 47.97-38.215 109.48-143.678 177.807-89.587 49.578 31.527 92.684 71.984 134.797 112.502 15.605 14.092 37.43 31.589 25.179 54.663-3.607 18.374-40.48 37.523-28.317 8.71z" fill="#ffb7bf"/></g></g></svg>