<svg height="512" viewBox="0 0 64 64" width="512" xmlns="http://www.w3.org/2000/svg"><g id="Stop"><path d="m59.707 20.1128-15.82-15.82a.9993.9993 0 0 0 -.707-.2928h-22.36a1 1 0 0 0 -.707.293l-15.82 15.82a1 1 0 0 0 -.293.707v22.36a1 1 0 0 0 .293.707l15.82 15.82a1 1 0 0 0 .707.293h22.36a.9993.9993 0 0 0 .707-.293l15.82-15.82a1 1 0 0 0 .293-.707v-22.36a1 1 0 0 0 -.293-.7072z" fill="#e53935"/><g fill="#fafafa"><path d="m42.3516 58h-20.7032a1 1 0 0 1 -.707-.293l-14.6484-14.6484a1 1 0 0 1 -.293-.707v-20.7032a1 1 0 0 1 .293-.707l14.6484-14.6484a1 1 0 0 1 .707-.293h20.7032a.9993.9993 0 0 1 .707.293l14.6484 14.6484a1 1 0 0 1 .293.707v20.7032a1 1 0 0 1 -.293.707l-14.6484 14.6484a.9993.9993 0 0 1 -.707.293zm-20.2891-2h19.875l14.0625-14.0625v-19.875l-14.0625-14.0625h-19.875l-14.0625 14.0625v19.875z"/><path d="m15 39a4.0045 4.0045 0 0 1 -4-4 1 1 0 0 1 2 0 2 2 0 1 0 2-2 4 4 0 1 1 4-4 1 1 0 0 1 -2 0 2 2 0 1 0 -2 2 4 4 0 0 1 0 8z"/><path d="m30 25h-8a1 1 0 0 0 0 2h3v11a1 1 0 0 0 2 0v-11h3a1 1 0 0 0 0-2z"/><path d="m37 39a4.0042 4.0042 0 0 1 -4-4v-6a4 4 0 0 1 8 0v6a4.0042 4.0042 0 0 1 -4 4zm0-12a2.0023 2.0023 0 0 0 -2 2v6a2 2 0 0 0 4 0v-6a2.0023 2.0023 0 0 0 -2-2z"/><path d="m45 39a1 1 0 0 1 -1-1v-12a1 1 0 0 1 1-1h4a4 4 0 0 1 0 8h-3v5a1 1 0 0 1 -1 1zm1-8h3a2 2 0 0 0 0-4h-3z"/></g></g></svg>