<svg id="Icons" height="512" viewBox="0 0 60 60" width="512" xmlns="http://www.w3.org/2000/svg"><path d="m5.493 25.47a.5.5 0 0 1 -.292-.906l3.414-2.459-5.715 3.295a.5.5 0 0 1 -.544-.837l6.653-4.84-7.729 4.466a.5.5 0 0 1 -.532-.845l5.146-3.521-4.614 2.664a.5.5 0 0 1 -.538-.842l6.82-4.8-6.282 3.628a.5.5 0 0 1 -.54-.84l7.492-5.348-6.952 4.015a.5.5 0 0 1 -.533-.845l5.317-3.655-4.784 2.766a.5.5 0 0 1 -.534-.844l4.8-3.323-4.266 2.462a.5.5 0 0 1 -.548-.834l6.46-4.8-5.912 3.413a.5.5 0 0 1 -.553-.831l5.794-4.42-5.241 3.026a.5.5 0 0 1 -.544-.838l3.249-2.361-2.705 1.561a.5.5 0 0 1 -.547-.836l2.7-1.99-2.153 1.249a.5.5 0 0 1 -.57-.817l2.4-2-1.83 1.053a.5.5 0 0 1 -.626-.763l1.49-1.7-.864.5a.5.5 0 0 1 -.68-.691l.36-.6a.5.5 0 0 1 -.13-.918l1.17-.664a.5.5 0 0 1 .678.692l-.209.345 1.8-1.04a.5.5 0 0 1 .626.763l-1.495 1.696 4.271-2.465a.5.5 0 0 1 .57.818l-2.4 2 4.884-2.821a.5.5 0 0 1 .546.836l-2.708 1.993 3.168-1.829a.5.5 0 0 1 .544.838l-3.248 2.361 3.744-2.162a.5.5 0 0 1 .553.831l-5.795 4.421 6.655-3.842a.5.5 0 0 1 .547.835l-6.459 4.8 7.322-4.227a.5.5 0 0 1 .534.845l-4.8 3.323 5.347-3.087a.5.5 0 0 1 .533.845l-5.308 3.646 4.82-2.786a.5.5 0 0 1 .54.84l-7.494 5.349 6.954-4.018a.5.5 0 0 1 .538.842l-6.818 4.8 6.28-3.626a.5.5 0 0 1 .532.846l-5.146 3.521 4.614-2.663a.5.5 0 0 1 .544.838l-6.654 4.842 6.11-3.528a.5.5 0 0 1 .542.839l-3.415 2.46 2.873-1.659a.5.5 0 0 1 .579.809l-3.736 3.274 3.157-1.823a.5.5 0 0 1 .589.8l-1.413 1.3.824-.476a.5.5 0 0 1 .707.636l-.611 1.378a.506.506 0 0 1 .533.24.5.5 0 0 1 -.183.683l-1.161.671a.5.5 0 0 1 -.707-.635l.593-1.339-3.419 1.97a.5.5 0 0 1 -.589-.8l1.417-1.3-3.642 2.1a.5.5 0 0 1 -.579-.809l3.735-3.273-7.071 4.082a.491.491 0 0 1 -.25.07z" fill="#c3dadc"/><path d="m12.533 7.47a.5.5 0 0 1 -.439-.739l.7-1.287-1.514.874a.5.5 0 0 1 -.7-.656l.859-1.72-.162.094a.5.5 0 0 1 -.748-.472l.144-1.85a.492.492 0 0 1 -.078-.1.5.5 0 0 1 .181-.683l.183-.106a.5.5 0 0 1 .749.471l-.108 1.404.781-.452a.5.5 0 0 1 .7.657l-.859 1.72 1.609-.93a.5.5 0 0 1 .69.672l-.7 1.288 1.249-.721a.5.5 0 0 1 .715.617l-.108.273.179-.1a.5.5 0 0 1 .5.867l-1.423.809a.5.5 0 0 1 -.715-.617l.108-.273-1.543.89a.5.5 0 0 1 -.25.07z" fill="#8aaaaf"/><path d="m24.42 25.47a.5.5 0 0 1 -.284-.911l3.464-2.395-5.06 2.921a.5.5 0 0 1 -.532-.846l4.716-3.218-4.444 2.564a.5.5 0 0 1 -.537-.842l6.705-4.708-6.168 3.565a.5.5 0 0 1 -.53-.847l4.42-2.994-3.89 2.241a.5.5 0 0 1 -.533-.845l5.283-3.622-4.75 2.743a.5.5 0 0 1 -.542-.839l7.433-5.337-6.891 3.974a.5.5 0 0 1 -.541-.84l6.052-4.334-5.511 3.178a.5.5 0 0 1 -.537-.843l3.917-2.743-3.38 1.951a.5.5 0 0 1 -.553-.83l5.75-4.4-5.2 3a.5.5 0 0 1 -.558-.826l4.9-3.838-4.339 2.506a.5.5 0 0 1 -.574-.813l3.585-3.061-3.011 1.738a.5.5 0 0 1 -.581-.808l1.301-1.143-.717.414a.5.5 0 0 1 -.712-.626l.658-1.575a.5.5 0 0 1 -.393-.912l1.164-.669a.5.5 0 0 1 .712.625l-.648 1.554 3.778-2.186a.5.5 0 0 1 .581.808l-1.3 1.144 3.387-1.955a.5.5 0 0 1 .574.814l-3.584 3.06 5.773-3.333a.5.5 0 0 1 .559.827l-4.902 3.842 5.712-3.3a.5.5 0 0 1 .553.83l-5.751 4.4 6.615-3.818a.5.5 0 0 1 .537.842l-3.916 2.746 4.42-2.554a.5.5 0 0 1 .541.84l-6.056 4.34 6.782-3.915a.5.5 0 0 1 .542.839l-7.429 5.339 7.24-4.182a.5.5 0 0 1 .533.845l-5.283 3.622 4.75-2.743a.5.5 0 0 1 .53.847l-4.42 2.994 3.89-2.245a.5.5 0 0 1 .537.842l-6.7 4.708 6.168-3.561a.5.5 0 0 1 .532.846l-4.719 3.221 4.187-2.417a.5.5 0 0 1 .534.844l-3.466 2.39 2.927-1.69a.5.5 0 0 1 .548.835l-3.492 2.582 2.944-1.7a.5.5 0 0 1 .545.838l-.771.561.226-.131a.5.5 0 0 1 .578.811l-1.639 1.423 1.061-.613a.5.5 0 0 1 .637.75l-.9 1.1.262-.151a.5.5 0 0 1 .5.866l-2.626 1.519a.5.5 0 0 1 -.638-.749l.9-1.1-3.2 1.85a.5.5 0 0 1 -.578-.81l1.639-1.424-3.873 2.233a.5.5 0 0 1 -.545-.837l.771-.563-2.423 1.4a.5.5 0 0 1 -.547-.835l3.492-2.584-5.921 3.419a.494.494 0 0 1 -.25.07z" fill="#c3dadc"/><path d="m37.428 7.47a.5.5 0 0 1 -.428-.247l-.455-.777-1.662.954a.5.5 0 0 1 -.689-.673l.309-.564-1.818 1.05a.5.5 0 0 1 -.667-.71l.94-1.419-.678.392a.5.5 0 0 1 -.7-.646l.6-1.276a.5.5 0 0 1 -.646-.528l.131-1.326a.517.517 0 0 1 -.067-.092.5.5 0 0 1 .181-.683l.183-.106a.5.5 0 0 1 .521.012.5.5 0 0 1 .227.47l-.085.853.427-.246a.5.5 0 0 1 .7.646l-.592 1.256 1.14-.652a.5.5 0 0 1 .667.71l-.941 1.419 1.523-.879a.5.5 0 0 1 .688.673l-.308.564.544-.314a.5.5 0 0 1 .681.181l.464.792a.5.5 0 0 1 .377.916l-.316.183a.489.489 0 0 1 -.251.067z" fill="#8aaaaf"/><path d="m45.3 25.47a.5.5 0 0 1 -.277-.917l.158-.1-1.417.819a.5.5 0 0 1 -.525-.851l.641-.42-.6.348a.5.5 0 0 1 -.526-.85l2.553-1.699-2.027 1.17a.5.5 0 0 1 -.522-.852l.427-.278a.5.5 0 0 1 -.43-.893l1.965-1.3-1.44.831a.5.5 0 0 1 -.534-.844l5.793-4-5.259 3.037a.5.5 0 0 1 -.533-.845l5.4-3.706-4.867 2.808a.5.5 0 0 1 -.538-.842l5.801-4.086-5.263 3.043a.5.5 0 0 1 -.532-.846l3.037-2.072-2.5 1.446a.5.5 0 0 1 -.549-.834l5.8-4.319-5.256 3.029a.5.5 0 0 1 -.537-.843l2.537-1.783-2 1.155a.5.5 0 0 1 -.549-.834l3.711-2.765-3.162 1.823a.5.5 0 0 1 -.577-.812l3.818-3.3-3.241 1.877a.5.5 0 0 1 -.608-.782l1.864-1.911-1.256.728a.5.5 0 0 1 -.7-.649l.551-1.151a.517.517 0 0 1 -.481-.248.5.5 0 0 1 .183-.683l1.167-.669a.5.5 0 0 1 .7.649l-.516 1.076 2.991-1.731a.5.5 0 0 1 .607.782l-1.863 1.911 4.67-2.7a.5.5 0 0 1 .577.812l-3.816 3.301 6.017-3.474a.5.5 0 0 1 .549.834l-3.716 2.765 4.29-2.477a.5.5 0 0 1 .537.842l-2.535 1.784 2.934-1.694a.5.5 0 0 1 .549.834l-5.794 4.318 6.593-3.807a.5.5 0 0 1 .533.846l-3.035 2.071 3.437-1.984a.5.5 0 0 1 .538.841l-5.8 4.082 6.273-3.622a.5.5 0 0 1 .533.845l-5.4 3.707 4.867-2.811a.5.5 0 0 1 .534.844l-5.793 4 5.259-3.037a.5.5 0 0 1 .525.851l-1.965 1.3 1.44-.832a.5.5 0 0 1 .522.852l-.427.278a.5.5 0 0 1 .58.213.5.5 0 0 1 -.149.679l-2.553 1.694 2.027-1.17a.5.5 0 0 1 .524.852l-.64.419.116-.067a.5.5 0 0 1 .526.85l-.4.267a.5.5 0 0 1 .432.879l-4.357 3.374 3.8-2.194a.5.5 0 0 1 .544.837l-.466.339a.5.5 0 0 1 .478.865l-.39.3a.5.5 0 0 1 .419.864l-.433.391a.5.5 0 0 1 .488.8l-.313.392a.5.5 0 0 1 .173.928l-1.782 1.032a.5.5 0 0 1 -.64-.745l.125-.156-1.561.9a.5.5 0 0 1 -.585-.8l.339-.306-1.917 1.107a.5.5 0 0 1 -.556-.828l.21-.162-1.716.99a.5.5 0 0 1 -.544-.837l.409-.3-1.971 1.137a.5.5 0 0 1 -.556-.828l4.359-3.372-7.282 4.2a.494.494 0 0 1 -.253.07z" fill="#c3dadc"/><path d="m56.415 7.47a.5.5 0 0 1 -.491-.592l.2-1.046-2.424 1.395a.5.5 0 0 1 -.641-.745l.7-.876-.482.279a.5.5 0 0 1 -.694-.662l.717-1.377-.015.008a.5.5 0 0 1 -.748-.475l.141-1.668a.5.5 0 0 1 .106-.782l.183-.106a.5.5 0 0 1 .749.474l-.1 1.213.66-.382a.5.5 0 0 1 .694.663l-.709 1.377 1.3-.752a.5.5 0 0 1 .64.745l-.7.875 1.064-.615a.5.5 0 0 1 .741.526l-.2 1.046.652-.376a.492.492 0 0 1 .4-.043.5.5 0 0 1 .3.269l.2.45a.5.5 0 0 1 .326.927l-.316.183a.5.5 0 0 1 -.7-.225l-.192-.42-1.111.642a.5.5 0 0 1 -.25.07z" fill="#8aaaaf"/><path d="m29.948 59.466a.5.5 0 0 1 -.349-.858l.592-.578-1.248.72a.5.5 0 0 1 -.576-.812l3.18-2.735-3.693 2.131a.5.5 0 0 1 -.575-.813l3.566-3.053-4.13 2.384a.5.5 0 0 1 -.569-.818l2.009-1.67-2.322 1.341a.5.5 0 0 1 -.573-.814l3.179-2.7-3.673 2.12a.5.5 0 0 1 -.71-.629l.631-1.473-.2.115a.5.5 0 0 1 -.5-.865l1.5-.867a.5.5 0 0 1 .71.63l-.629 1.478 7.178-4.143a.5.5 0 0 1 .573.814l-3.178 2.694 2.609-1.505a.5.5 0 0 1 .569.817l-2.01 1.671 3.712-2.148a.5.5 0 0 1 .576.813l-3.567 3.057 3.636-2.1a.5.5 0 0 1 .576.811l-3.179 2.735.08-.045a.5.5 0 0 1 .6.79l-1.849 1.8a.507.507 0 0 1 .036.054.5.5 0 0 1 -.183.683l-1.547.902a.49.49 0 0 1 -.252.066z" fill="#2265c6"/><path d="m27.03 50.212a.5.5 0 0 1 -.314-.889l1.023-.829-.459.265a.5.5 0 0 1 -.563-.822l.923-.744-.36.207a.5.5 0 0 1 -.586-.8l2.466-2.231-1.88 1.085a.5.5 0 0 1 -.581-.807l2.201-1.947-1.619.935a.5.5 0 0 1 -.567-.82l1.252-1.029-.685.4a.5.5 0 0 1 -.563-.823l.854-.686-.291.168a.5.5 0 0 1 -.567-.82l1.158-.949-.591.341a.5.5 0 0 1 -.6-.791l1.992-1.937-1.394.8a.5.5 0 0 1 -.671-.7l.848-1.317a.506.506 0 0 1 -.572-.231.5.5 0 0 1 .182-.682l1.659-.957a.5.5 0 0 1 .67.7l-.83 1.291 3.081-1.779a.5.5 0 0 1 .6.791l-1.991 1.937 2.415-1.394a.5.5 0 0 1 .567.82l-1.157.948.642-.37a.5.5 0 0 1 .563.822l-.853.686.293-.169a.5.5 0 0 1 .567.819l-1.253 1.03.69-.4a.5.5 0 0 1 .581.808l-2.2 1.942 1.624-.938a.5.5 0 0 1 .586.8l-2.464 2.23 1.88-1.076a.5.5 0 0 1 .564.822l-.926.746.365-.211a.5.5 0 0 1 .565.821l-1.027.832.465-.268a.5.5 0 1 1 .5.865l-5.962 3.438a.5.5 0 0 1 -.25.067z" fill="#2265c6"/><path d="m8.948 59.466a.5.5 0 0 1 -.346-.861l.386-.373-.995.575a.5.5 0 0 1 -.582-.807l3.526-3.135-4.137 2.392a.5.5 0 0 1 -.58-.809l3.72-3.263-4.348 2.506a.5.5 0 0 1 -.573-.814l2.392-2.023-2.771 1.6a.5.5 0 0 1 -.566-.82l2.751-2.239-3.142 1.813a.5.5 0 0 1 -.7-.647l.617-1.3-.11.062a.5.5 0 0 1 -.5-.865l1.5-.867a.5.5 0 0 1 .7.647l-.616 1.295 7.17-4.14a.5.5 0 0 1 .566.821l-2.752 2.24 2.19-1.265a.5.5 0 0 1 .573.815l-2.391 2.028 3.894-2.248a.5.5 0 0 1 .58.809l-3.719 3.263 4-2.31a.5.5 0 0 1 .583.807l-3.526 3.133.281-.162a.5.5 0 0 1 .6.793l-1.723 1.66a.417.417 0 0 1 .029.044.5.5 0 0 1 -.183.683l-1.546.896a.49.49 0 0 1 -.252.066z" fill="#2265c6"/><path d="m6.03 50.185a.5.5 0 0 1 -.326-.879l1.938-1.671-1.362.786a.5.5 0 0 1 -.557-.827l.4-.314a.5.5 0 0 1 -.428-.865l2.265-2.007-1.68.97a.5.5 0 0 1 -.575-.813l1.839-1.574-1.264.73a.5.5 0 0 1 -.575-.813l1.816-1.552-1.241.716a.5.5 0 0 1 -.567-.818l1.276-1.054-.709.409a.5.5 0 0 1 -.573-.814l1.541-1.3-.968.559a.5.5 0 0 1 -.593-.8l1.584-1.49-.991.571a.5.5 0 0 1 -.664-.713l.772-1.138a.5.5 0 0 1 -.321-.927l1.659-.957a.5.5 0 0 1 .616.091.5.5 0 0 1 .048.622l-.724 1.067 2.825-1.631a.5.5 0 0 1 .593.8l-1.584 1.489 2.075-1.2a.5.5 0 0 1 .573.814l-1.539 1.3 1.114-.643a.5.5 0 0 1 .567.819l-1.275 1.051.711-.411a.5.5 0 0 1 .575.813l-1.818 1.559 1.246-.719a.5.5 0 0 1 .575.812l-1.838 1.574 1.265-.731a.5.5 0 0 1 .582.807l-2.262 2.008 1.684-.973a.5.5 0 0 1 .558.827l-.4.313a.492.492 0 0 1 .5.2.5.5 0 0 1 -.082.668l-1.935 1.674 1.366-.788a.5.5 0 1 1 .5.865l-5.962 3.44a.49.49 0 0 1 -.25.068z" fill="#2265c6"/><path d="m50.345 59.328a.5.5 0 0 1 -.34-.867l2.183-2.023-2.788 1.609a.5.5 0 0 1 -.56-.824l2.476-1.965-2.812 1.623a.5.5 0 0 1 -.555-.829l2.018-1.552-2.28 1.316a.5.5 0 0 1 -.555-.829l.912-.7-1.062.612a.5.5 0 0 1 -.572-.814l2.974-2.511-3.434 1.982a.5.5 0 0 1 -.542-.838l.285-.206-.31.178a.5.5 0 0 1 -.655-.724l.417-.579a.5.5 0 0 1 -.157-.924l1.5-.867a.5.5 0 0 1 .656.724l-.244.339 6.842-3.95a.5.5 0 0 1 .542.838l-.422.3a.5.5 0 0 1 .454.864l-2.97 2.509 2.82-1.62a.5.5 0 0 1 .555.829l-.913.7 2.175-1.256a.5.5 0 0 1 .555.829l-2.014 1.551 2.169-1.253a.5.5 0 0 1 .561.824l-2.478 1.966.77-.444a.5.5 0 0 1 .59.8l-2.791 2.584a.5.5 0 0 1 .073.9l-2.818 1.631a.489.489 0 0 1 -.255.067z" fill="#2265c6"/><path d="m48.03 50.091a.5.5 0 0 1 -.312-.891l.823-.659-.261.15a.5.5 0 0 1 -.574-.813l1.783-1.52-1.209.7a.5.5 0 0 1 -.569-.818l1.406-1.166-.837.483a.5.5 0 0 1 -.591-.8l2.722-2.532-2.131 1.229a.5.5 0 0 1 -.576-.811l1.889-1.623-1.313.756a.5.5 0 0 1 -.577-.81l1.965-1.7-1.388.8a.5.5 0 0 1 -.607-.782l2.563-2.614-1.956 1.13a.5.5 0 0 1 -.681-.685l1-1.708-.028.016a.5.5 0 0 1 -.5-.865l1.659-.957a.5.5 0 0 1 .681.684l-1 1.707 3.494-2.016a.5.5 0 0 1 .608.782l-2.563 2.612 2.771-1.6a.5.5 0 0 1 .577.81l-1.967 1.7 1.393-.8a.5.5 0 0 1 .576.812l-1.89 1.624 1.318-.76a.5.5 0 0 1 .59.8l-2.718 2.53 2.134-1.232a.5.5 0 0 1 .57.817l-1.404 1.165.839-.483a.5.5 0 0 1 .575.813l-1.785 1.52 1.214-.7a.5.5 0 0 1 .563.823l-.826.661.266-.153a.5.5 0 1 1 .5.865l-5.966 3.441a.493.493 0 0 1 -.25.068z" fill="#2265c6"/><g fill="#262626"><path d="m2.193 25.553c3.3-.61 14.688 1.687 15.543-1.612.038-5.614-.026-11.245 0-16.865-1.327-2.235-4.014-4.05-5.8-6.125-1.985-1.151-4.836-.219-7.113-.504-1.823-.168-4.918-.362-4.558 2.326.853 3.727-2.11 23.378 1.928 22.78zm13.5-18.873h-3.339c-1.246-.706-.39-2.742-.63-3.969zm-13.957-4.565c1.318-1.432 6.32-.148 8.54-.562-.325 6.371-.133 5.94 5.988 5.767-1.293 20.035 5.969 17.114-14.075 17.127-1.34-6.868-.009-15.09-.453-22.332z"/><path d="m23.035 25.378c3.408-.672 14.618 1.713 15.69-1.575.041-5.656-.028-11.334 0-17-1.946-2-3.916-4.1-6-5.979-2-.561-4.686-.027-6.887-.2-1.738-.117-4.873-.385-4.562 2.204.818 3.557-1.991 23.248 1.759 22.55zm9.7-22.695 3.975 3.974c-4.137.227-4.2.148-3.985-3.983zm-10.01-.609a5.133 5.133 0 0 1 -.006-.7c2.812-.053 5.719.046 8.558 0-.271 6.38-.334 6.2 6 5.965-1.077 21.594 5.053 16.807-11.887 17.283-.675 0-2.262.341-2.615-.5-.159-7.314.001-14.709-.051-22.048z"/><path d="m59.724 15.187c.3-8.412.526-8.729-6.016-14.327-.046-.267-.371-.313-.616-.286-3.145.53-6.518-.3-9.653.331-2.728 1.917-.475 18.6-1.165 23.168 1.18 2.676 8.28.6 11.045 1.21 9.188 1.388 5.844-3.855 6.405-10.096zm-2.1-8.62c-4.158.14-4.073.371-3.9-3.841 1.276 1.305 2.604 2.565 3.904 3.841zm-1.613 18.151c-3.916-.337-8.408.673-12.077-.373-.718-7.553.216-15.5-.322-23.092 2.914.035 5.754.058 8.662.013-.221 6.328-.494 6.483 6 6.167.169 5.674-.328 11.825.176 17.285-.188.229-2.166 0-2.439 0z"/><path d="m26.276 49.709c-4.872.176-2.52 3.9-.436 6.085.8 1.041 1.869 3.17 3.274 3.477 3.654.271 4.916-4.433 7.187-6.58 1.3-1.815-.7-3.447-2.577-3.02-.967-3.95 2.835-16.766-3.3-15.99-7.099-1.211-3.224 11.57-4.148 16.028zm1.448.1c.738-3.181-1.8-15.044 1.628-15.489 4.755-.415 2.479 5.97 2.924 8.877.355 2.131-.713 5.676.417 7.125 1.618-.424 3.283.878 2.242 2.508-1.539 1.109-3.907 7.56-5.831 4.934-.933-1.788-7.581-7.508-2.411-7.443.257-.001 1.031-.157 1.031-.514z"/><path d="m5.276 49.67c-4.875.176-2.528 3.948-.433 6.136.808 1.052 1.866 3.161 3.277 3.487 3.65.3 4.913-4.444 7.187-6.579 1.269-1.847-.674-3.485-2.583-3.081-1.005-4.031 2.9-16.572-3.312-15.991-7.137-1.124-3.181 11.597-4.136 16.028zm1.448.137c.744-3.022-1.859-15.563 1.751-15.45 5.279-1.129 1.918 12.429 2.8 15.838 6.572.036.064 5.547-1.522 8.04-1.319 1.373-5.238-5.3-6.009-6.462-.419-2.296 2.366-.679 2.98-1.966z"/><path d="m47.269 49.541c-6.842.309.405 7.854 2.653 9.78 3.689.824 5.045-4.354 7.316-6.411 1.4-1.8-.483-3.818-2.5-3.4-.888-4.087 2.846-15.93-3.138-15.996-7.436-1.224-3.347 11.492-4.331 16.027zm1.462.392c.74-3.06-1.822-15.354 1.666-15.447 1.373 0 2.772.01 2.872 1.772.8 2.641-1.833 15.692 1.766 14.227a1.34 1.34 0 0 1 .928 2.169c-4.621 5.806-4.173 8.228-9.148.794-3.258-4.032 1.239-2.136 1.916-3.515z"/><path d="m7.331 16.3c2.046.514 2.956-3.1 4.351-4.255-.852-1.95-2.887 2.287-3.675 3-.318-.728-1.912-.611-1.676.256z"/><path d="m28.319 16.254c2.137.192 2.924-3.023 4.341-4.294-1.172-1.266-2.736 2.329-3.619 3.146-.291-.64-1.709-.5-1.722.148z"/><path d="m53.283 11.594c-1.6.27-2.166 2.409-3.264 3.47-.3-.7-1.852-.577-1.692.218.521.4.908 1.306 1.671 1.095.639-.117 4.609-4.84 3.285-4.783z"/></g></svg>