<?xml version="1.0" encoding="UTF-8"?>
<!DOCTYPE svg PUBLIC "-//W3C//DTD SVG 1.1//EN" "http://www.w3.org/Graphics/SVG/1.1/DTD/svg11.dtd">
<svg version="1.1" xmlns="http://www.w3.org/2000/svg" xmlns:xlink="http://www.w3.org/1999/xlink" x="0" y="0" width="512" height="512" viewBox="0, 0, 512, 512">
  <g id="red">
    <path d="M288.177,449.53 L288.177,471.279 C288.177,479.822 281.254,486.745 272.663,486.745 L239.327,486.745 C230.735,486.745 223.862,479.822 223.862,471.279 L223.862,449.53 z" fill="#94C1FF"/>
    <path d="M174.521,68.405 L174.521,157.316 L151.348,157.316 C146.438,157.316 142.609,153.045 143.149,148.086 C146.144,121.084 144.72,97.763 135.49,80.826 C132.495,75.229 136.276,68.405 142.658,68.405 z" fill="#FFFFFF"/>
    <path d="M174.521,185.595 L174.521,274.506 L151.348,274.506 C146.438,274.506 142.609,270.235 143.149,265.276 C146.144,238.274 144.72,214.953 135.49,198.065 C132.495,192.419 136.276,185.595 142.658,185.595 z" fill="#FFFFFF"/>
    <path d="M174.521,302.785 L174.521,391.696 L151.348,391.696 C146.438,391.696 142.609,387.425 143.149,382.515 C146.144,355.464 144.72,332.144 135.49,315.255 C132.495,309.609 136.276,302.785 142.658,302.785 z" fill="#FFFFFF"/>
    <path d="M337.437,68.377 L337.437,406.439 C337.437,430.245 318.153,449.565 294.347,449.565 L217.689,449.565 C193.883,449.565 174.563,430.245 174.563,406.439 L174.563,68.377 C174.563,44.535 193.883,25.251 217.689,25.251 L294.347,25.251 C318.153,25.252 337.437,44.535 337.437,68.377 z" fill="#D7E9FF"/>
    <path d="M300.627,112.683 C300.627,137.324 280.674,157.31 256,157.31 C231.358,157.31 211.373,137.324 211.373,112.683 C211.373,88.008 231.359,68.022 256,68.022 C280.675,68.022 300.627,88.008 300.627,112.683 z" fill="#FF2B2B"/>
    <path d="M300.627,230.065 C300.627,254.706 280.674,274.692 256,274.692 C231.358,274.692 211.373,254.706 211.373,230.065 C211.373,205.39 231.359,185.404 256,185.404 C280.675,185.404 300.627,205.39 300.627,230.065 z" fill="#94C1FF"/>
    <path d="M300.627,347.448 C300.627,372.089 280.674,392.075 256,392.075 C231.358,392.075 211.373,372.089 211.373,347.448 C211.373,322.773 231.359,302.787 256,302.787 C280.675,302.787 300.627,322.772 300.627,347.448 z" fill="#94C1FF"/>
    <path d="M376.499,80.826 C367.269,97.764 365.845,121.084 368.889,148.086 C369.429,153.045 365.551,157.316 360.641,157.316 L337.468,157.316 L337.468,68.405 L369.331,68.405 C375.713,68.405 379.543,75.229 376.499,80.826 z" fill="#FFFFFF"/>
    <path d="M376.499,198.065 C367.269,214.953 365.845,238.274 368.889,265.276 C369.429,270.235 365.551,274.506 360.641,274.506 L337.468,274.506 L337.468,185.595 L369.331,185.595 C375.713,185.595 379.543,192.419 376.499,198.065 z" fill="#FFFFFF"/>
    <path d="M376.499,315.255 C367.269,332.144 365.845,355.464 368.889,382.515 C369.429,387.425 365.551,391.696 360.641,391.696 L337.468,391.696 L337.468,302.785 L369.331,302.785 C375.713,302.785 379.543,309.609 376.499,315.255 z" fill="#FFFFFF"/>
    <g>
      <path d="M256.002,63.112 C228.683,63.112 206.461,85.349 206.461,112.682 C206.461,139.998 228.683,162.221 256.002,162.221 C283.316,162.221 305.538,139.999 305.538,112.682 C305.538,85.349 283.316,63.112 256.002,63.112 z M256.002,152.402 C234.101,152.402 216.28,134.583 216.28,112.682 C216.28,90.764 234.101,72.931 256.002,72.931 C277.903,72.931 295.719,90.764 295.719,112.682 C295.719,134.583 277.903,152.402 256.002,152.402 z" fill="#116FFF"/>
      <path d="M246.763,83.594 C237.236,86.619 229.8,94.168 226.871,103.788 C226.085,106.382 227.547,109.124 230.141,109.913 C232.697,110.701 235.467,109.269 236.268,106.646 C238.253,100.118 243.287,95 249.736,92.953 C252.32,92.133 253.749,89.372 252.929,86.787 C252.114,84.208 249.366,82.772 246.763,83.594 z" fill="#116FFF"/>
      <path d="M256.002,180.495 C228.683,180.495 206.461,202.732 206.461,230.065 C206.461,257.381 228.683,279.604 256.002,279.604 C283.316,279.604 305.538,257.382 305.538,230.065 C305.538,202.731 283.316,180.495 256.002,180.495 z M256.002,269.784 C234.101,269.784 216.28,251.965 216.28,230.064 C216.28,208.146 234.101,190.313 256.002,190.313 C277.903,190.313 295.719,208.146 295.719,230.064 C295.719,251.965 277.903,269.784 256.002,269.784 z" fill="#116FFF"/>
      <path d="M246.763,200.977 C237.236,204.002 229.8,211.551 226.871,221.171 C226.085,223.765 227.547,226.507 230.141,227.296 C232.697,228.084 235.467,226.652 236.268,224.029 C238.253,217.501 243.287,212.383 249.736,210.336 C252.32,209.516 253.749,206.755 252.929,204.17 C252.114,201.59 249.366,200.157 246.763,200.977 z" fill="#116FFF"/>
      <path d="M256.002,297.877 C228.683,297.877 206.461,320.114 206.461,347.447 C206.461,374.763 228.683,396.986 256.002,396.986 C283.316,396.986 305.538,374.764 305.538,347.447 C305.538,320.114 283.316,297.877 256.002,297.877 z M256.002,387.167 C234.101,387.167 216.28,369.348 216.28,347.447 C216.28,325.529 234.101,307.696 256.002,307.696 C277.903,307.696 295.719,325.529 295.719,347.447 C295.719,369.348 277.903,387.167 256.002,387.167 z" fill="#116FFF"/>
      <path d="M246.763,318.359 C237.236,321.384 229.8,328.933 226.871,338.553 C226.085,341.147 227.547,343.889 230.141,344.678 C232.697,345.466 235.467,344.034 236.268,341.411 C238.253,334.883 243.287,329.765 249.736,327.718 C252.32,326.898 253.749,324.137 252.929,321.552 C252.114,318.97 249.366,317.544 246.763,318.359 z" fill="#116FFF"/>
      <path d="M380.821,83.17 C383.113,78.903 383.012,73.914 380.567,69.825 C378.189,65.853 373.984,63.482 369.319,63.482 L342.097,63.482 C339.639,39.288 319.162,20.344 294.348,20.344 L217.69,20.344 C192.858,20.344 172.363,39.288 169.903,63.482 L142.68,63.482 C132.612,63.482 126.367,74.212 131.178,83.17 C131.183,83.177 131.188,83.187 131.192,83.196 C139.151,97.826 141.462,118.881 138.249,147.571 C137.388,155.368 143.493,162.225 151.347,162.225 L169.652,162.225 L169.652,180.674 L142.68,180.674 C132.612,180.674 126.367,191.404 131.178,200.362 C131.183,200.369 131.188,200.379 131.192,200.388 C139.151,215.018 141.462,236.071 138.249,264.761 C137.385,272.586 143.52,279.418 151.347,279.418 L169.652,279.418 L169.652,297.867 L142.68,297.867 C132.612,297.867 126.367,308.597 131.178,317.555 C131.183,317.562 131.188,317.572 131.192,317.581 C139.151,332.211 141.462,353.264 138.249,381.954 C137.385,389.779 143.52,396.611 151.347,396.611 L169.652,396.611 L169.652,406.44 C169.652,432.927 191.203,454.476 217.688,454.476 L218.925,454.476 L218.925,471.264 C218.925,482.509 228.073,491.657 239.321,491.657 L272.676,491.657 C283.924,491.657 293.072,482.509 293.072,471.264 L293.072,454.476 L294.347,454.476 C320.812,454.476 342.344,432.927 342.344,406.44 L342.344,396.611 L360.649,396.611 C368.51,396.611 374.608,389.757 373.747,381.945 C370.535,353.265 372.846,332.212 380.804,317.582 C380.809,317.572 380.814,317.563 380.818,317.556 C385.636,308.585 379.371,297.868 369.316,297.868 L342.342,297.868 L342.342,279.419 L360.647,279.419 C368.508,279.419 374.606,272.565 373.745,264.753 C370.533,236.073 372.844,215.02 380.802,200.39 C380.807,200.38 380.812,200.371 380.816,200.364 C385.634,191.393 379.369,180.676 369.314,180.676 L342.34,180.676 L342.34,162.227 L360.645,162.227 C364.38,162.227 367.957,160.63 370.45,157.845 C372.953,155.05 374.156,151.305 373.744,147.563 C370.532,118.883 372.843,97.828 380.801,83.198 C380.811,83.186 380.816,83.177 380.821,83.17 z M169.635,269.599 L151.349,269.599 C149.361,269.599 147.791,267.86 148.012,265.845 C151.45,235.11 148.77,212.171 139.828,195.714 C138.558,193.341 139.983,190.493 142.681,190.493 L169.635,190.493 z M169.635,386.793 L151.349,386.793 C149.361,386.793 147.791,385.054 148.012,383.039 C151.45,352.304 148.77,329.363 139.823,312.906 C138.57,310.546 139.971,307.687 142.68,307.687 L169.634,307.687 L169.634,386.793 z M342.364,307.687 L369.318,307.687 C372.023,307.687 373.431,310.541 372.176,312.906 C363.23,329.363 360.549,352.304 363.987,383.03 C364.209,385.067 362.635,386.794 360.65,386.794 L342.364,386.794 z M342.364,190.493 L369.318,190.493 C372.018,190.493 373.44,193.343 372.171,195.714 C363.229,212.171 360.549,235.11 363.987,265.835 C364.209,267.872 362.635,269.599 360.65,269.599 L342.364,269.599 z M169.635,152.406 L151.349,152.406 C149.354,152.406 147.792,150.661 148.012,148.654 C151.45,117.917 148.77,94.975 139.823,78.518 C138.57,76.158 139.971,73.299 142.68,73.299 L169.634,73.299 L169.634,152.406 z M283.254,471.264 C283.254,477.094 278.507,481.838 272.677,481.838 L239.322,481.838 C233.492,481.838 228.745,477.094 228.745,471.264 L228.745,454.476 L283.253,454.476 L283.253,471.264 z M332.526,406.44 C332.526,427.512 315.4,444.657 294.348,444.657 C293.857,444.657 212.489,444.652 217.69,444.657 C196.618,444.657 179.473,427.512 179.473,406.44 L179.473,68.376 C179.473,47.304 196.618,30.162 217.69,30.162 L294.348,30.162 C315.4,30.162 332.526,47.305 332.526,68.376 z M372.176,78.519 C363.23,94.976 360.549,117.917 363.987,148.645 C364.131,149.963 363.522,150.87 363.143,151.292 C362.769,151.707 361.949,152.407 360.65,152.407 L342.364,152.407 L342.364,73.3 L369.318,73.3 C370.958,73.3 371.792,74.28 372.142,74.865 C372.795,75.964 372.809,77.328 372.176,78.519 z" fill="#116FFF"/>
    </g>
  </g>
  <g id="orange" display="none">
    <path d="M288.177,449.53 L288.177,471.279 C288.177,479.822 281.254,486.745 272.663,486.745 L239.327,486.745 C230.735,486.745 223.862,479.822 223.862,471.279 L223.862,449.53 z" fill="#94C1FF"/>
    <path d="M174.521,68.405 L174.521,157.316 L151.348,157.316 C146.438,157.316 142.609,153.045 143.149,148.086 C146.144,121.084 144.72,97.763 135.49,80.826 C132.495,75.229 136.276,68.405 142.658,68.405 z" fill="#FFFFFF"/>
    <path d="M174.521,185.595 L174.521,274.506 L151.348,274.506 C146.438,274.506 142.609,270.235 143.149,265.276 C146.144,238.274 144.72,214.953 135.49,198.065 C132.495,192.419 136.276,185.595 142.658,185.595 z" fill="#FFFFFF"/>
    <path d="M174.521,302.785 L174.521,391.696 L151.348,391.696 C146.438,391.696 142.609,387.425 143.149,382.515 C146.144,355.464 144.72,332.144 135.49,315.255 C132.495,309.609 136.276,302.785 142.658,302.785 z" fill="#FFFFFF"/>
    <path d="M337.437,68.377 L337.437,406.439 C337.437,430.245 318.153,449.565 294.347,449.565 L217.689,449.565 C193.883,449.565 174.563,430.245 174.563,406.439 L174.563,68.377 C174.563,44.535 193.883,25.251 217.689,25.251 L294.347,25.251 C318.153,25.252 337.437,44.535 337.437,68.377 z" fill="#D7E9FF"/>
    <path d="M300.627,112.683 C300.627,137.324 280.674,157.31 256,157.31 C231.358,157.31 211.373,137.324 211.373,112.683 C211.373,88.008 231.359,68.022 256,68.022 C280.675,68.022 300.627,88.008 300.627,112.683 z" fill="#94C1FF"/>
    <path d="M300.627,230.065 C300.627,254.706 280.674,274.692 256,274.692 C231.358,274.692 211.373,254.706 211.373,230.065 C211.373,205.39 231.359,185.404 256,185.404 C280.675,185.404 300.627,205.39 300.627,230.065 z" fill="#FFB680"/>
    <path d="M300.627,347.448 C300.627,372.089 280.674,392.075 256,392.075 C231.358,392.075 211.373,372.089 211.373,347.448 C211.373,322.773 231.359,302.787 256,302.787 C280.675,302.787 300.627,322.772 300.627,347.448 z" fill="#94C1FF"/>
    <path d="M376.499,80.826 C367.269,97.764 365.845,121.084 368.889,148.086 C369.429,153.045 365.551,157.316 360.641,157.316 L337.468,157.316 L337.468,68.405 L369.331,68.405 C375.713,68.405 379.543,75.229 376.499,80.826 z" fill="#FFFFFF"/>
    <path d="M376.499,198.065 C367.269,214.953 365.845,238.274 368.889,265.276 C369.429,270.235 365.551,274.506 360.641,274.506 L337.468,274.506 L337.468,185.595 L369.331,185.595 C375.713,185.595 379.543,192.419 376.499,198.065 z" fill="#FFFFFF"/>
    <path d="M376.499,315.255 C367.269,332.144 365.845,355.464 368.889,382.515 C369.429,387.425 365.551,391.696 360.641,391.696 L337.468,391.696 L337.468,302.785 L369.331,302.785 C375.713,302.785 379.543,309.609 376.499,315.255 z" fill="#FFFFFF"/>
    <g>
      <path d="M256.002,63.112 C228.683,63.112 206.461,85.349 206.461,112.682 C206.461,139.998 228.683,162.221 256.002,162.221 C283.316,162.221 305.538,139.999 305.538,112.682 C305.538,85.349 283.316,63.112 256.002,63.112 z M256.002,152.402 C234.101,152.402 216.28,134.583 216.28,112.682 C216.28,90.764 234.101,72.931 256.002,72.931 C277.903,72.931 295.719,90.764 295.719,112.682 C295.719,134.583 277.903,152.402 256.002,152.402 z" fill="#116FFF"/>
      <path d="M246.763,83.594 C237.236,86.619 229.8,94.168 226.871,103.788 C226.085,106.382 227.547,109.124 230.141,109.913 C232.697,110.701 235.467,109.269 236.268,106.646 C238.253,100.118 243.287,95 249.736,92.953 C252.32,92.133 253.749,89.372 252.929,86.787 C252.114,84.208 249.366,82.772 246.763,83.594 z" fill="#116FFF"/>
      <path d="M256.002,180.495 C228.683,180.495 206.461,202.732 206.461,230.065 C206.461,257.381 228.683,279.604 256.002,279.604 C283.316,279.604 305.538,257.382 305.538,230.065 C305.538,202.731 283.316,180.495 256.002,180.495 z M256.002,269.784 C234.101,269.784 216.28,251.965 216.28,230.064 C216.28,208.146 234.101,190.313 256.002,190.313 C277.903,190.313 295.719,208.146 295.719,230.064 C295.719,251.965 277.903,269.784 256.002,269.784 z" fill="#116FFF"/>
      <path d="M246.763,200.977 C237.236,204.002 229.8,211.551 226.871,221.171 C226.085,223.765 227.547,226.507 230.141,227.296 C232.697,228.084 235.467,226.652 236.268,224.029 C238.253,217.501 243.287,212.383 249.736,210.336 C252.32,209.516 253.749,206.755 252.929,204.17 C252.114,201.59 249.366,200.157 246.763,200.977 z" fill="#116FFF"/>
      <path d="M256.002,297.877 C228.683,297.877 206.461,320.114 206.461,347.447 C206.461,374.763 228.683,396.986 256.002,396.986 C283.316,396.986 305.538,374.764 305.538,347.447 C305.538,320.114 283.316,297.877 256.002,297.877 z M256.002,387.167 C234.101,387.167 216.28,369.348 216.28,347.447 C216.28,325.529 234.101,307.696 256.002,307.696 C277.903,307.696 295.719,325.529 295.719,347.447 C295.719,369.348 277.903,387.167 256.002,387.167 z" fill="#116FFF"/>
      <path d="M246.763,318.359 C237.236,321.384 229.8,328.933 226.871,338.553 C226.085,341.147 227.547,343.889 230.141,344.678 C232.697,345.466 235.467,344.034 236.268,341.411 C238.253,334.883 243.287,329.765 249.736,327.718 C252.32,326.898 253.749,324.137 252.929,321.552 C252.114,318.97 249.366,317.544 246.763,318.359 z" fill="#116FFF"/>
      <path d="M380.821,83.17 C383.113,78.903 383.012,73.914 380.567,69.825 C378.189,65.853 373.984,63.482 369.319,63.482 L342.097,63.482 C339.639,39.288 319.162,20.344 294.348,20.344 L217.69,20.344 C192.858,20.344 172.363,39.288 169.903,63.482 L142.68,63.482 C132.612,63.482 126.367,74.212 131.178,83.17 C131.183,83.177 131.188,83.187 131.192,83.196 C139.151,97.826 141.462,118.881 138.249,147.571 C137.388,155.368 143.493,162.225 151.347,162.225 L169.652,162.225 L169.652,180.674 L142.68,180.674 C132.612,180.674 126.367,191.404 131.178,200.362 C131.183,200.369 131.188,200.379 131.192,200.388 C139.151,215.018 141.462,236.071 138.249,264.761 C137.385,272.586 143.52,279.418 151.347,279.418 L169.652,279.418 L169.652,297.867 L142.68,297.867 C132.612,297.867 126.367,308.597 131.178,317.555 C131.183,317.562 131.188,317.572 131.192,317.581 C139.151,332.211 141.462,353.264 138.249,381.954 C137.385,389.779 143.52,396.611 151.347,396.611 L169.652,396.611 L169.652,406.44 C169.652,432.927 191.203,454.476 217.688,454.476 L218.925,454.476 L218.925,471.264 C218.925,482.509 228.073,491.657 239.321,491.657 L272.676,491.657 C283.924,491.657 293.072,482.509 293.072,471.264 L293.072,454.476 L294.347,454.476 C320.812,454.476 342.344,432.927 342.344,406.44 L342.344,396.611 L360.649,396.611 C368.51,396.611 374.608,389.757 373.747,381.945 C370.535,353.265 372.846,332.212 380.804,317.582 C380.809,317.572 380.814,317.563 380.818,317.556 C385.636,308.585 379.371,297.868 369.316,297.868 L342.342,297.868 L342.342,279.419 L360.647,279.419 C368.508,279.419 374.606,272.565 373.745,264.753 C370.533,236.073 372.844,215.02 380.802,200.39 C380.807,200.38 380.812,200.371 380.816,200.364 C385.634,191.393 379.369,180.676 369.314,180.676 L342.34,180.676 L342.34,162.227 L360.645,162.227 C364.38,162.227 367.957,160.63 370.45,157.845 C372.953,155.05 374.156,151.305 373.744,147.563 C370.532,118.883 372.843,97.828 380.801,83.198 C380.811,83.186 380.816,83.177 380.821,83.17 z M169.635,269.599 L151.349,269.599 C149.361,269.599 147.791,267.86 148.012,265.845 C151.45,235.11 148.77,212.171 139.828,195.714 C138.558,193.341 139.983,190.493 142.681,190.493 L169.635,190.493 z M169.635,386.793 L151.349,386.793 C149.361,386.793 147.791,385.054 148.012,383.039 C151.45,352.304 148.77,329.363 139.823,312.906 C138.57,310.546 139.971,307.687 142.68,307.687 L169.634,307.687 L169.634,386.793 z M342.364,307.687 L369.318,307.687 C372.023,307.687 373.431,310.541 372.176,312.906 C363.23,329.363 360.549,352.304 363.987,383.03 C364.209,385.067 362.635,386.794 360.65,386.794 L342.364,386.794 z M342.364,190.493 L369.318,190.493 C372.018,190.493 373.44,193.343 372.171,195.714 C363.229,212.171 360.549,235.11 363.987,265.835 C364.209,267.872 362.635,269.599 360.65,269.599 L342.364,269.599 z M169.635,152.406 L151.349,152.406 C149.354,152.406 147.792,150.661 148.012,148.654 C151.45,117.917 148.77,94.975 139.823,78.518 C138.57,76.158 139.971,73.299 142.68,73.299 L169.634,73.299 L169.634,152.406 z M283.254,471.264 C283.254,477.094 278.507,481.838 272.677,481.838 L239.322,481.838 C233.492,481.838 228.745,477.094 228.745,471.264 L228.745,454.476 L283.253,454.476 L283.253,471.264 z M332.526,406.44 C332.526,427.512 315.4,444.657 294.348,444.657 C293.857,444.657 212.489,444.652 217.69,444.657 C196.618,444.657 179.473,427.512 179.473,406.44 L179.473,68.376 C179.473,47.304 196.618,30.162 217.69,30.162 L294.348,30.162 C315.4,30.162 332.526,47.305 332.526,68.376 z M372.176,78.519 C363.23,94.976 360.549,117.917 363.987,148.645 C364.131,149.963 363.522,150.87 363.143,151.292 C362.769,151.707 361.949,152.407 360.65,152.407 L342.364,152.407 L342.364,73.3 L369.318,73.3 C370.958,73.3 371.792,74.28 372.142,74.865 C372.795,75.964 372.809,77.328 372.176,78.519 z" fill="#116FFF"/>
    </g>
  </g>
  <g id="green" display="none">
    <path d="M288.177,449.53 L288.177,471.279 C288.177,479.822 281.254,486.745 272.663,486.745 L239.327,486.745 C230.735,486.745 223.862,479.822 223.862,471.279 L223.862,449.53 z" fill="#94C1FF"/>
    <path d="M174.521,68.405 L174.521,157.316 L151.348,157.316 C146.438,157.316 142.609,153.045 143.149,148.086 C146.144,121.084 144.72,97.763 135.49,80.826 C132.495,75.229 136.276,68.405 142.658,68.405 z" fill="#FFFFFF"/>
    <path d="M174.521,185.595 L174.521,274.506 L151.348,274.506 C146.438,274.506 142.609,270.235 143.149,265.276 C146.144,238.274 144.72,214.953 135.49,198.065 C132.495,192.419 136.276,185.595 142.658,185.595 z" fill="#FFFFFF"/>
    <path d="M174.521,302.785 L174.521,391.696 L151.348,391.696 C146.438,391.696 142.609,387.425 143.149,382.515 C146.144,355.464 144.72,332.144 135.49,315.255 C132.495,309.609 136.276,302.785 142.658,302.785 z" fill="#FFFFFF"/>
    <path d="M337.437,68.377 L337.437,406.439 C337.437,430.245 318.153,449.565 294.347,449.565 L217.689,449.565 C193.883,449.565 174.563,430.245 174.563,406.439 L174.563,68.377 C174.563,44.535 193.883,25.251 217.689,25.251 L294.347,25.251 C318.153,25.252 337.437,44.535 337.437,68.377 z" fill="#D7E9FF"/>
    <path d="M300.627,112.683 C300.627,137.324 280.674,157.31 256,157.31 C231.358,157.31 211.373,137.324 211.373,112.683 C211.373,88.008 231.359,68.022 256,68.022 C280.675,68.022 300.627,88.008 300.627,112.683 z" fill="#94C1FF"/>
    <path d="M300.627,230.065 C300.627,254.706 280.674,274.692 256,274.692 C231.358,274.692 211.373,254.706 211.373,230.065 C211.373,205.39 231.359,185.404 256,185.404 C280.675,185.404 300.627,205.39 300.627,230.065 z" fill="#94C1FF"/>
    <path d="M300.627,347.448 C300.627,372.089 280.674,392.075 256,392.075 C231.358,392.075 211.373,372.089 211.373,347.448 C211.373,322.773 231.359,302.787 256,302.787 C280.675,302.787 300.627,322.772 300.627,347.448 z" fill="#00EE22"/>
    <path d="M376.499,80.826 C367.269,97.764 365.845,121.084 368.889,148.086 C369.429,153.045 365.551,157.316 360.641,157.316 L337.468,157.316 L337.468,68.405 L369.331,68.405 C375.713,68.405 379.543,75.229 376.499,80.826 z" fill="#FFFFFF"/>
    <path d="M376.499,198.065 C367.269,214.953 365.845,238.274 368.889,265.276 C369.429,270.235 365.551,274.506 360.641,274.506 L337.468,274.506 L337.468,185.595 L369.331,185.595 C375.713,185.595 379.543,192.419 376.499,198.065 z" fill="#FFFFFF"/>
    <path d="M376.499,315.255 C367.269,332.144 365.845,355.464 368.889,382.515 C369.429,387.425 365.551,391.696 360.641,391.696 L337.468,391.696 L337.468,302.785 L369.331,302.785 C375.713,302.785 379.543,309.609 376.499,315.255 z" fill="#FFFFFF"/>
    <g>
      <path d="M256.002,63.112 C228.683,63.112 206.461,85.349 206.461,112.682 C206.461,139.998 228.683,162.221 256.002,162.221 C283.316,162.221 305.538,139.999 305.538,112.682 C305.538,85.349 283.316,63.112 256.002,63.112 z M256.002,152.402 C234.101,152.402 216.28,134.583 216.28,112.682 C216.28,90.764 234.101,72.931 256.002,72.931 C277.903,72.931 295.719,90.764 295.719,112.682 C295.719,134.583 277.903,152.402 256.002,152.402 z" fill="#116FFF"/>
      <path d="M246.763,83.594 C237.236,86.619 229.8,94.168 226.871,103.788 C226.085,106.382 227.547,109.124 230.141,109.913 C232.697,110.701 235.467,109.269 236.268,106.646 C238.253,100.118 243.287,95 249.736,92.953 C252.32,92.133 253.749,89.372 252.929,86.787 C252.114,84.208 249.366,82.772 246.763,83.594 z" fill="#116FFF"/>
      <path d="M256.002,180.495 C228.683,180.495 206.461,202.732 206.461,230.065 C206.461,257.381 228.683,279.604 256.002,279.604 C283.316,279.604 305.538,257.382 305.538,230.065 C305.538,202.731 283.316,180.495 256.002,180.495 z M256.002,269.784 C234.101,269.784 216.28,251.965 216.28,230.064 C216.28,208.146 234.101,190.313 256.002,190.313 C277.903,190.313 295.719,208.146 295.719,230.064 C295.719,251.965 277.903,269.784 256.002,269.784 z" fill="#116FFF"/>
      <path d="M246.763,200.977 C237.236,204.002 229.8,211.551 226.871,221.171 C226.085,223.765 227.547,226.507 230.141,227.296 C232.697,228.084 235.467,226.652 236.268,224.029 C238.253,217.501 243.287,212.383 249.736,210.336 C252.32,209.516 253.749,206.755 252.929,204.17 C252.114,201.59 249.366,200.157 246.763,200.977 z" fill="#116FFF"/>
      <path d="M256.002,297.877 C228.683,297.877 206.461,320.114 206.461,347.447 C206.461,374.763 228.683,396.986 256.002,396.986 C283.316,396.986 305.538,374.764 305.538,347.447 C305.538,320.114 283.316,297.877 256.002,297.877 z M256.002,387.167 C234.101,387.167 216.28,369.348 216.28,347.447 C216.28,325.529 234.101,307.696 256.002,307.696 C277.903,307.696 295.719,325.529 295.719,347.447 C295.719,369.348 277.903,387.167 256.002,387.167 z" fill="#116FFF"/>
      <path d="M246.763,318.359 C237.236,321.384 229.8,328.933 226.871,338.553 C226.085,341.147 227.547,343.889 230.141,344.678 C232.697,345.466 235.467,344.034 236.268,341.411 C238.253,334.883 243.287,329.765 249.736,327.718 C252.32,326.898 253.749,324.137 252.929,321.552 C252.114,318.97 249.366,317.544 246.763,318.359 z" fill="#116FFF"/>
      <path d="M380.821,83.17 C383.113,78.903 383.012,73.914 380.567,69.825 C378.189,65.853 373.984,63.482 369.319,63.482 L342.097,63.482 C339.639,39.288 319.162,20.344 294.348,20.344 L217.69,20.344 C192.858,20.344 172.363,39.288 169.903,63.482 L142.68,63.482 C132.612,63.482 126.367,74.212 131.178,83.17 C131.183,83.177 131.188,83.187 131.192,83.196 C139.151,97.826 141.462,118.881 138.249,147.571 C137.388,155.368 143.493,162.225 151.347,162.225 L169.652,162.225 L169.652,180.674 L142.68,180.674 C132.612,180.674 126.367,191.404 131.178,200.362 C131.183,200.369 131.188,200.379 131.192,200.388 C139.151,215.018 141.462,236.071 138.249,264.761 C137.385,272.586 143.52,279.418 151.347,279.418 L169.652,279.418 L169.652,297.867 L142.68,297.867 C132.612,297.867 126.367,308.597 131.178,317.555 C131.183,317.562 131.188,317.572 131.192,317.581 C139.151,332.211 141.462,353.264 138.249,381.954 C137.385,389.779 143.52,396.611 151.347,396.611 L169.652,396.611 L169.652,406.44 C169.652,432.927 191.203,454.476 217.688,454.476 L218.925,454.476 L218.925,471.264 C218.925,482.509 228.073,491.657 239.321,491.657 L272.676,491.657 C283.924,491.657 293.072,482.509 293.072,471.264 L293.072,454.476 L294.347,454.476 C320.812,454.476 342.344,432.927 342.344,406.44 L342.344,396.611 L360.649,396.611 C368.51,396.611 374.608,389.757 373.747,381.945 C370.535,353.265 372.846,332.212 380.804,317.582 C380.809,317.572 380.814,317.563 380.818,317.556 C385.636,308.585 379.371,297.868 369.316,297.868 L342.342,297.868 L342.342,279.419 L360.647,279.419 C368.508,279.419 374.606,272.565 373.745,264.753 C370.533,236.073 372.844,215.02 380.802,200.39 C380.807,200.38 380.812,200.371 380.816,200.364 C385.634,191.393 379.369,180.676 369.314,180.676 L342.34,180.676 L342.34,162.227 L360.645,162.227 C364.38,162.227 367.957,160.63 370.45,157.845 C372.953,155.05 374.156,151.305 373.744,147.563 C370.532,118.883 372.843,97.828 380.801,83.198 C380.811,83.186 380.816,83.177 380.821,83.17 z M169.635,269.599 L151.349,269.599 C149.361,269.599 147.791,267.86 148.012,265.845 C151.45,235.11 148.77,212.171 139.828,195.714 C138.558,193.341 139.983,190.493 142.681,190.493 L169.635,190.493 z M169.635,386.793 L151.349,386.793 C149.361,386.793 147.791,385.054 148.012,383.039 C151.45,352.304 148.77,329.363 139.823,312.906 C138.57,310.546 139.971,307.687 142.68,307.687 L169.634,307.687 L169.634,386.793 z M342.364,307.687 L369.318,307.687 C372.023,307.687 373.431,310.541 372.176,312.906 C363.23,329.363 360.549,352.304 363.987,383.03 C364.209,385.067 362.635,386.794 360.65,386.794 L342.364,386.794 z M342.364,190.493 L369.318,190.493 C372.018,190.493 373.44,193.343 372.171,195.714 C363.229,212.171 360.549,235.11 363.987,265.835 C364.209,267.872 362.635,269.599 360.65,269.599 L342.364,269.599 z M169.635,152.406 L151.349,152.406 C149.354,152.406 147.792,150.661 148.012,148.654 C151.45,117.917 148.77,94.975 139.823,78.518 C138.57,76.158 139.971,73.299 142.68,73.299 L169.634,73.299 L169.634,152.406 z M283.254,471.264 C283.254,477.094 278.507,481.838 272.677,481.838 L239.322,481.838 C233.492,481.838 228.745,477.094 228.745,471.264 L228.745,454.476 L283.253,454.476 L283.253,471.264 z M332.526,406.44 C332.526,427.512 315.4,444.657 294.348,444.657 C293.857,444.657 212.489,444.652 217.69,444.657 C196.618,444.657 179.473,427.512 179.473,406.44 L179.473,68.376 C179.473,47.304 196.618,30.162 217.69,30.162 L294.348,30.162 C315.4,30.162 332.526,47.305 332.526,68.376 z M372.176,78.519 C363.23,94.976 360.549,117.917 363.987,148.645 C364.131,149.963 363.522,150.87 363.143,151.292 C362.769,151.707 361.949,152.407 360.65,152.407 L342.364,152.407 L342.364,73.3 L369.318,73.3 C370.958,73.3 371.792,74.28 372.142,74.865 C372.795,75.964 372.809,77.328 372.176,78.519 z" fill="#116FFF"/>
    </g>
  </g>
</svg>
